<svg height="70" viewBox="0 0 230 70" width="230" xmlns="http://www.w3.org/2000/svg"><g fill="none" fill-rule="evenodd"><g transform="translate(5 14)"><g fill="#000" fill-rule="nonzero" transform="matrix(1 0 0 -1 49.951691 29.404188)"><path d="m71.0732327 13.0294047c-3.2875639-.6635936-5.1062162-2.9606483-5.1062162-6.45727597.0139896-4.10917563 2.4481859-6.57212873 6.5051796-6.57212873 1.5528493 0 2.4062169.1658984 3.4694291.676355 1.4269426.70187782 2.4901547 2.00354215 2.9797919 3.68804893.2937823.99539037.3217616 3.20311517.0559586 4.19850554-.5595854 2.10563343-2.1124347 3.72633313-4.1129523 4.28783543-.8533676.2297055-3.0077712.3445582-3.7911907.1786598zm3.4834188-1.722791c.2797926-.1276142.8113987-.523218 1.1891188-.8932991 1.9725383-1.97801928 1.7766835-6.38070746-.3637305-8.10349848-1.2450773-.99539037-3.2875638-1.1868116-4.8823821-.44664953-1.4968907.70187783-2.2803102 2.05458782-2.4062169 4.17298271-.1818653 3.25416082 1.2031085 5.2704644 3.8191699 5.5767384.8813469.1020913 1.986528-.0255229 2.6440408-.306274z"/><path d="m.6652147 13.013139c-.22058933-.0782345-.42739183-.2998988-.51011283-.5346023-.20680249-.5476414-.20680249-11.25272723 0-11.81340773.23437617-.65195407.63419433-.71714947 3.54321615-.63891498 2.84008764.07823448 3.68108447.23470346 5.03219413.91273569 1.37868335.69107131 2.48162995 2.11233118 2.85387445 3.67702095.1930157.8345012.1930157 3.14241861-.0137868 3.92476349-.5652602 2.22968288-2.30240116 3.80741178-4.74267064 4.35505318-.93750466.1955862-5.68017529.2998989-6.16271446.1173517zm6.39709062-1.7993932c.93750466-.3390161 1.77850149-1.0822438 2.16453282-1.90370588.42739183-.9127357.60662066-2.52958179.44117867-3.83348992-.413605-3.06418412-1.98530399-4.04211523-6.52117212-4.05515431h-1.075373v5.09828082 5.09828079l2.10938549-.0521563c1.73714099-.0521563 2.23346698-.1043127 2.88144814-.3520552z"/><path d="m31.4744588 13.0747454c-.3863166-.1301288-.6898511-.4684637-.6898511-.7547471 0-.5075024 4.3736563-11.51640091 4.7047849-11.85473585.607069-.61160547 1.6556427-.62461835 2.2903058-.01301288.3311285.31230918 4.7323789 11.36024633 4.7323789 11.88076153 0 .5985926-1.1175589 1.001992-1.5866577.559554-.0965791-.1041031-1.0347767-2.4073832-2.0695534-5.12707566-1.0485738-2.7196924-1.9591773-5.11406275-2.0281624-5.32226887-.1103762-.27327053-.1793613-.32532206-.2621434-.18218035-.0551881.09109017-.9795887 2.48546052-2.0557565 5.30925599-1.0761678 2.82379549-2.0281624 5.20515289-2.1109445 5.28323019-.2207524.2082062-.6622571.3123092-.9244006.221219z"/><path d="m84.2143751 13.049975c-.6844796-.2321146-.6844796-.2321146-.6398396-5.11941514l.04464-4.61650029.4463997-.74792462c1.0713592-1.84402107 3.4223976-2.77247922 6.3537557-2.52746943 1.9492786.18053353 3.7051175 1.2121537 4.4639969 2.63063144.3273598.63186736.3422398.76081988.3868798 5.15810088.02976 2.47588846.01488 4.62939556-.02976 4.78413856-.1785599.6060769-1.502879.6447626-1.8599987.0644763-.10416-.1676383-.1636799-1.7279638-.1636799-4.43596679 0-3.5332991-.04464-4.26832847-.2380799-4.79703381-.8630394-2.15350712-4.6276768-2.69510771-6.4281556-.91556291-.8481594.83819139-.9225594 1.34110623-.9225594 5.94471126 0 3.79120415-.02976 4.16516645-.2529598 4.34569995-.3571198.2708003-.8035195.3610671-1.1606392.2321146z"/><path d="m138.906366 12.6930999c-.359878-.3370173-.993264-1.6073134-2.922213-5.93668994-1.353143-3.03315602-2.504754-5.66448367-2.562334-5.85891675-.129557-.46663938.331088-.88142995 1.007659-.88142995.618991 0 .734152.14258426 1.51149 1.98321739l.604596 1.38695596 3.469228-.02592441 3.469228-.03888662.676572-1.54250241c.374273-.84254334.762942-1.58138904.863708-1.64620006.604596-.34997954 1.56907.03888661 1.56907.62218585 0 .23331969-4.750396 10.99195004-5.167855 11.66598464-.230322.3888662-.892498.6869969-1.540279.6869969-.388669 0-.633386-.1036976-.97887-.4147906zm2.634311-4.88675132c.719756-1.67212447 1.295562-3.05908043 1.266772-3.08500484-.028791-.02592441-1.324353-.02592441-2.864633-.0129622l-2.807052.03888661 1.309958 3.04611822c.734152 1.67212447 1.381933 3.16277803 1.439514 3.30536233l.115161.2592441.115161-.2592441c.05758-.1425843.705362-1.62027565 1.425119-3.29240012z"/><path d="m152.174389 12.9982536c-.178006-.0915131-.345542-.3006859-.376954-.4706388-.041884-.1699529-.073297-2.91534575-.073297-6.10523079v-5.79147161l.261774-.31375919c.293187-.37912568.638728-.41834558.973799-.11765969l.230361.19609949v6.11830409c0 5.6607386-.010471 6.1313774-.178007 6.3144036-.293186.3137592-.492134.3529791-.837676.1699529z"/><path d="m17.8939181 12.8326248c-.2389315-.2621578-.2522054-.5898551-.2920273-5.87233494-.026548-3.06724638 0-5.78057972.0398219-6.01652174.0398219-.23594203.1991095-.5505314.3451232-.6947182.2389315-.23594203.464589-.24904992 4.0220133-.24904992 2.0707396 0 3.8759996.03932367 3.9954654.07864734.3583972.1441868.5044109.6947182.2654794 1.04863124l-.1991096.31458937h-3.2521229-3.252123v2.29388084 2.29388084h2.9069997c3.1857531 0 3.3317668.02621578 3.3317668.77336554 0 .64228663-.1061918.66850241-3.2786709.66850241h-2.9600956v2.09726248 2.09726244h3.0530134c2.8804518 0 3.0662874.0131079 3.3184928.2621579.3185753.3145893.3451233.6947182.0530959.9699839-.1725616.1835104-.7300684.2097262-4.0220133.2097262-3.7167119 0-3.8229037-.0131079-4.0751092-.2752657z"/><path d="m101.678592 12.956901c-.486261-.3544969-.529167-.8534186-.529167-6.59101799 0-5.55378611 0-5.69821081.300338-6.03957828.328941-.38075602.772297-.43327409 1.244256-.13129518l.314639.19694277v4.92356925c0 2.70468071.042906 4.91043973.114415 4.91043973.057207-.0131295 1.587499-1.99568674 3.389524-4.42464756 4.118917-5.52752708 4.219029-5.64569274 4.848308-5.75072889.514864-.09190662 1.029729.07877711 1.330067.44640362.128716.15755421.171621 1.69370782.185923 6.19713249 0 5.63256324-.014302 6.00018974-.257432 6.19713254-.343243.2888493-1.086937.2888493-1.330067 0-.15732-.1706838-.214527-1.2341747-.271734-5.15990062l-.071509-4.93669877-3.718466 4.97608732c-2.374098 3.16421387-3.861484 5.04173487-4.104614 5.15990057-.47196.2232018-1.129842.2363313-1.444481.026259z"/><path d="m117.419201 12.8585802c-.240842-.4067695-.180631-.7741741.180631-.9841196.270947-.1705808.782736-.2099456 2.408417-.2099456h2.077259v-5.51106994-5.52419157l.376315-.31491829c.436526-.39364785 1.023577-.41989104 1.429998-.06560797.285999.24931031.301052.43301264.301052 5.83910985v5.57667792h2.152522c1.911681 0 2.19768.0262432 2.408417.2361887.301052.2886751.331157.8266605.075263 1.0497277-.135473.1180943-1.610629.1574591-5.71999.1574591-5.313569 0-5.539358-.0131216-5.689884-.2493103z"/><path d="m158.850006 12.956901c-.486261-.3544969-.529166-.8534186-.529166-6.59101799 0-5.55378611 0-5.69821081.300337-6.03957828.328941-.38075602.772297-.43327409 1.244256-.13129518l.31464.19694277v4.92356925c0 2.70468071.042905 4.91043973.114414 4.91043973.057207-.0131295 1.587499-1.99568674 3.389525-4.42464756 4.118916-5.52752708 4.219028-5.64569274 4.848307-5.75072889.514865-.09190662 1.029729.07877711 1.330067.44640362.128716.15755421.171621 1.69370782.185923 6.19713249 0 5.63256324-.014302 6.00018974-.257432 6.19713254-.343243.2888493-1.086936.2888493-1.330067 0-.157319-.1706838-.214527-1.2341747-.271734-5.15990062l-.071509-4.93669877-3.718466 4.97608732c-2.374097 3.16421387-3.861484 5.04173487-4.104614 5.15990057-.471959.2232018-1.129842.2363313-1.444481.026259z"/><path d="m47.900735 13.0797943c-.1628805-.026884-.4479215-.2150726-.6379488-.4032612l-.3529078-.3494931v-6.02203514c0-5.82040446.0135734-6.03547714.2578942-6.16989757.4207747-.21507268.9365631-.16130451 1.2351774.13442043.2578942.25539881.2714675.44358741.2714675 5.41714318v5.1348603l2.2396074-4.96011375c1.2216041-2.72873465 2.3617678-5.1079762 2.5246484-5.26928071.4479214-.47047149 1.1265903-.43014536 1.5880852.06721022.2036007.21507268 1.3437644 2.56743014 2.5382217 5.25583866l2.1717405 4.85257738.0407201-5.13486027c.0407202-5.71286812.0271468-5.63221586.9229898-5.63221586.8958429 0 .8687848-.20163064.8687848 6.30431799 0 5.72631014-.013662 5.90105674-.2715562 6.23710774-.6243754.7930806-1.8052593.6989863-2.4703548-.1881886-.1900273-.2553988-1.2623242-2.51366193-2.402488-5.0273239-1.1401637-2.51366197-2.1038736-4.61062062-2.1581671-4.66438879s-1.0994436 2.11040069-2.3210476 4.81225126c-2.1988873 4.86601943-2.6060886 5.56500563-3.2033173 5.56500563-.0950136 0-.2578941.0268841-.3664812.0537682-.0950136.0268841-.3121877.013442-.4750682-.0134421z"/></g><g stroke="#25aae1" stroke-width="2"><circle cx="21.256039" cy="21.256039" r="21.256039"/><path d="m22.5132008 17.7577423-4.7309548-8.79192505-11.23417722 20.14790395h13.81451122l7.8786473-13.4015874 7.8235207 13.4015874h-10.7681694" stroke-linecap="round" stroke-linejoin="round"/></g></g><path d="m0 0h230v70h-230z"/></g></svg>