<svg height="70" viewBox="0 0 230 70" width="230" xmlns="http://www.w3.org/2000/svg"><g fill="none" fill-rule="evenodd"><g fill-rule="nonzero" transform="matrix(1 0 0 -1 5 61.213134)"><path d="m154.141503 38.7158537c-10.732496-7.4151789-20.814538-14.3425172-22.375628-15.4157667l-2.894522-1.9513629h45.141528 45.109006l-8.098156 5.5939069c-4.455612 3.0571352-14.505131 10.0169961-22.375628 15.4482895-7.837974 5.4312934-14.440085 9.8543826-14.635222 9.8220381-.195136 0-9.138882-6.0819259-19.871378-13.4971049zm22.538241 4.455612c.975681-.5203635 2.309113-2.3416355 2.504249-3.4799305.097568-.5203635.227659-3.6100214.260182-6.8948155l.065045-5.9191341h-5.26868-5.301202v6.2768839c0 5.9516568.032523 6.3744521.748022 7.7078834 1.528568 2.8945216 4.227953 3.7726349 6.992384 2.3091128z" fill="#32673b"/><g fill="#000"><path d="m.60176644 48.0173502c-.09756814-.4553181-.32522714-1.3009086-.48784072-1.9188402-.26018172-1.0732496-.03252271-1.9513629.26018172-1.1057723.09756815.227659.42279529.7480224.74802244 1.138295.52036343.682977.97568144.7805452 4.29299834.9431587 2.01640832.0975682 3.80515763.0650455 3.93524849-.0325227.16261357-.1300908.227659-5.1385889.16261357-11.0902457-.09756815-11.3829502-.227659-12.3261089-1.56109031-12.3261089-.32522715 0-.68297701-.1300909-.81306787-.2927044-.09756814-.1951363 1.49604488-.3252272 4.0653393-.3252272 2.4717264 0 4.227953.1300909 4.227953.2927045 0 .1951362-.5203635.3252271-1.1382951.3252271-1.8863174 0-1.9188401.1951363-1.9513628 12.4887225v11.057723l3.2522714-.0975682c3.7726349-.0975681 4.8458845-.455318 4.9759754-1.7562266.1951363-1.7562266.7154997-.8130678.7154997 1.3334313v2.1790219h-10.2446551-10.27717788z"/><path d="m55.0773136 45.0903058c-4.6832709-.8130678-8.2282468-4.2279529-9.2039283-8.8136557-1.6261357-7.7404061 4.1954302-14.1799036 12.1634954-13.5294493 6.2768839.5203634 10.5048368 4.6507482 10.9601548 10.7324959.3252272 4.3905665-1.3334313 7.8379742-4.780839 9.919428-2.6668627 1.593613-6.0817477 2.2115446-9.1388829 1.6911811zm5.7890432-1.7237039c1.4635222-.7805451 3.1872261-2.6018171 4.0653394-4.3905664.6504543-1.3334313.7480224-2.0164084.7480224-5.4312934 0-3.6100213-.0650454-4.0328166-.8781133-5.5939069-2.048931-3.8702031-6.6996792-5.2361571-10.8625867-3.1872261-3.414885 1.6586585-5.1385889 5.0735435-5.1711116 10.0820416 0 2.4717263.1300908 3.2197487.8455905 4.7483163.9106361 1.9188402 2.4717264 3.4148851 4.2604757 4.0978621 1.4635221.5528861 5.6589523.3577499 6.9923836-.3252272z"/><path d="m124.578355 45.0577831c-1.853795-.4227953-3.317317-1.4309994-3.902726-2.6993853-.585409-1.2358632-.682977-3.3173169-.195136-4.5531801.422795-1.138295 2.699385-3.5449759 4.943453-5.2686798 3.284794-2.5367717 4.130384-5.236157 2.309112-7.2850881-2.309112-2.6018171-7.577792-1.2033404-7.577792 1.9838856 0 .5203635-.130091.9431588-.325227.9431588-.195137 0-.325228-.9756815-.325228-2.2765901 0-2.8294761.325228-3.0896579 4.227953-3.0896579 2.341636 0 2.99209.1300909 4.227953.8130679 1.91884 1.0732496 2.927045 2.8294762 2.927045 5.2361571 0 2.4717263-1.138295 4.1954302-4.845885 7.1549972-3.707589 2.9595671-4.488134 4.4230892-3.47993 6.4394975 1.496045 2.8619989 7.350133 1.8863175 7.350133-1.2683858 0-.3902726.130091-.6179316.292705-.5203635.13009.0975682.292704 1.0407269.325227 2.1139765l.032522 1.9188401-2.048931.3577499c-2.309112.3902726-2.211544.3902726-3.935248 0z"/><path d="m71.8915571 35.1708778c-.6504543-5.4963388-1.3334313-10.3097005-1.4960448-10.7650185-.2276591-.5528862-.5528862-.7805452-1.1382951-.7805452-.455318 0-.8130678-.1300909-.8130678-.2927044 0-.1626136 1.4635221-.3252272 3.2522714-.3252272 1.9838856 0 3.1872261.1300909 3.0896579.2927045-.1300908.1951362-.5528861.3252271-.9756814.3252271-.5528862 0-.8455906.227659-.9756814.7480224-.1626136.6504543.9756814 13.8221538 1.2033404 14.0823355.0650454.0325227 1.7562266-3.187226 3.8051576-7.1875199 2.0164083-4.0002939 3.8702031-7.5452699 4.0978621-7.870497.3902726-.5203634.8781133.2601817 4.3905665 7.4802244 2.1790219 4.4556119 4.0328166 8.0005878 4.097862 7.9355424.2927045-.2601817 1.4635222-13.1391768 1.3334313-14.2449491l-.1626135-1.2033404 3.3173169-.1626136c5.0735435-.2927044 8.3258148-.2601817 8.3258148.0975682 0 .1951362-.35775.3252271-.813068.3252271-.715499 0-.813068.1300909-.813068 1.0732496.032523.5528861.487841 2.27659 1.07325 3.8051576l1.040727 2.7644308 3.12218.0975681c2.244068.0650454 3.219749-.0325227 3.447408-.3252271.748023-1.0407269 2.731908-6.7972474 2.536772-7.415179s-.065045-.6504543 3.057135-.6504543c1.983886 0 3.284794.1300909 3.284794.3252272 0 .1951362-.422795.3252271-.975681.3252271-1.593613 0-2.504249 1.6261357-6.569588 11.7732227-2.081454 5.2361571-3.967772 9.5291555-4.162908 9.5291555-.227659 0-2.048931-4.3905665-4.097862-9.7242918-2.016408-5.3662479-3.9677712-10.1145642-4.2929984-10.5698822-.8130678-1.1057723-2.6993853-1.3009086-3.6100213-.3902726-.3577499.3577498-.7154997 1.138295-.8130679 1.7237039-.3577498 2.2440673-2.1464991 17.4646978-2.1464991 18.2777656 0 .455318-.1626136.8455906-.3252272.8455906-.1951363 0-2.3416354-4.0328166-4.780839-8.9762692l-4.455612-8.9437466-.5528861 1.0732496c-.3252272.5854089-2.3741582 4.5857028-4.5857028 8.8461784-2.2115446 4.2929983-4.1954302 7.8379743-4.3580438 7.9030197-.227659.0650454-.7805451-3.5774986-1.5610903-9.8218599zm36.5230089 1.3984768c.748022-2.0814538 1.333431-3.8702031 1.333431-3.9677712 0-.0975682-1.235863-.1951363-2.764431-.1951363-1.528567 0-2.76443.1300908-2.76443.2927044 0 .1951363.520363 1.821272 1.170817 3.6750668.617932 1.8537947 1.235863 3.5449759 1.300909 3.8051576.195136.6504543.260182.5528862 1.723704-3.6100213z"/><path d="m23.2375759 44.3422834 1.138295-.3902726.0975682-9.7242917c.0650454-10.0820416.0325227-10.602405-1.2683859-10.602405-.3577499 0-.6179316-.1300909-.6179316-.2927044 0-.1951363 1.7237039-.3252272 3.9027258-.3252272 2.27659 0 3.9027257.1300909 3.9027257.2927045 0 .1951362-.5203634.3252271-1.138295.3252271-1.593613 0-1.7887493.682977-1.7887493 6.3744521v4.6832709l6.276884-.0650454 6.2443612-.0975682.0975681-4.0653393c.0975682-5.3012025-.1626136-6.6346338-1.3334313-6.7647247-.4878407-.0650454-.8781133-.227659-.8781133-.3902725 0-.1626136 1.7562266-.2927045 3.9027258-.2927045 2.27659 0 3.9027258.1300909 3.9027258.2927045 0 .1951362-.4227953.3252271-.9431588.3252271-1.7562266 0-1.821272.3252272-1.9188401 9.4966327-.1626136 9.9844734-.0975682 10.5373596 1.3334313 11.1552912.9756814.4227952.7480224.455318-2.8619989.455318-2.9595671-.0325228-3.6425441-.0975682-2.8619989-.3252272 1.5285676-.455318 1.7562266-1.138295 1.6586584-5.0735435l-.0975681-3.5124532-6.2443612-.0975681-6.276884-.0650454v3.8051576c0 2.1139764.1300909 4.0002939.2601817 4.2279529.1300909.227659.6179316.5203634 1.0407269.7154997.6179316.227659-.1300909.3252272-2.9270443.3252272-3.3173169 0-3.6100214-.0325228-2.6018172-.3902726z"/><path d="m19.6600773 10.1283875v-8.94374656l-.8130679-.32522714c-.455318-.16261358-.8130679-.35774987-.8130679-.45531801 0-.06504543 1.2358632-.13009086 2.7644308-.16261357 1.6586584 0 2.6993853.13009086 2.6018172.32522714-.1300909.16261358-.5528862.29270444-.9756815.29270444-.4878407 0-.8455906.227659-.9756814.68297701-.2601817.81306786-.7154997 13.62701749-.4878407 13.59449479.0975681 0 1.2683858-1.2683859 2.6018171-2.7969535 3.3823624-3.83768034 11.3829502-12.1309726 11.7407001-12.1309726.1626135 0 .3252271 3.9677712.3577498 8.84617841l.0975682 8.84617839.8130678.4227953c.7154998.3577499.4878408.4227953-1.9513629.3577499-1.5285675 0-2.4392036-.0975682-2.048931-.1626136 1.4309995-.2927044 1.5610903-.8130679 1.7237039-7.9680651.0975681-3.70758949.0650454-6.76472468-.0650454-6.76472468-.1300909 0-.4227953.26018172-.6504543.58540887-.8130679 1.17081773-13.3993585 14.70026701-13.6595402 14.70026701-.1300909 0-.2601817-4.0328166-.2601817-8.9437465z"/><path d="m98.2024333 18.844475c-2.5367717-.7154997-3.7726349-3.4799304-2.731908-6.1793158.1951363-.4878407 1.7237039-2.2440673 3.4148851-3.8376803 2.9920896-2.89452161 3.0571356-2.95956704 3.0571356-4.45561191 0-1.13829502-.195137-1.7562266-.780546-2.43920361-.682977-.78054515-1.008204-.91063601-2.5692941-.91063601-2.1464992 0-3.4799305.97568144-3.4799305 2.50424903 0 .48784072-.1300908.91063602-.3252271.91063602-.1626136 0-.3252272-.81306787-.3252272-1.78874931 0-2.17902189.5203635-2.56929447 3.5774987-2.56929447 3.2847942 0 5.0410212 1.33343131 5.6589522 4.26047563.455318 2.08145374-.227659 3.3173169-3.7075893 6.60211113-3.0896579 2.9270443-3.2522715 3.187226-3.2522715 4.4230892 0 .9756814.1951363 1.4960448.8130678 2.0814537 1.6261358 1.5285676 5.26868.5528862 5.431293-1.4309994 0-.3902726.130091-.0325228.227659.7805451.130091.8130679.130091 1.593613 0 1.7562266-.260181.3252272-4.0978616.5528862-5.0084977.2927044z"/><path d="m112.837655 18.0314072c-.097568-.5854089-.292704-1.365954-.390273-1.7237039-.097568-.4878407.032523-.4227953.650455.3252271.748022.9106361.975681.9756815 3.447407 1.0732496l2.63434.1300909v-8.32581499-8.32581497l-.813068-.32522714c-.455318-.16261358-.813067-.35774987-.813067-.45531801 0-.06504543 1.398476-.13009086 3.089658-.13009086 1.853794 0 3.024612.09756815 2.927044.29270443-.130091.16261358-.552886.29270444-.975682.29270444-.422795 0-.84559.13009086-.943158.29270443-.097568.13009086-.195137 3.90272577-.195137 8.35833768l-.032522 8.09815599 1.593613.0975681c2.211544.1300909 3.740112-.2927044 4.130384-1.1708177.487841-1.0732496.650455-.8781133.682977.7480224l.032523 1.4635222h-6.927338c-3.805158 0-7.122475.0975681-7.382656.1951363-.35775.1300908-.552886-.1300909-.7155-.910636z"/></g><path d="m156.580706 18.2915889c0-.4227953-.260181-1.2358632-.552886-1.7562266-.520363-.910636-.520363-1.0082042 0-1.821272.325227-.455318.845591-.8455906 1.203341-.8455906.617931 0 .650454-.227659.650454-6.82977011v-6.82977009h3.089658 3.089658v6.82977009c0 5.49633881.097568 6.82977011.422795 6.82977011.650454 0 1.528568 1.0732496 1.528568 1.8863174 0 .3577499-.227659.9106361-.520364 1.1708178-.260182.2927044-.455318.8455906-.390272 1.2358631.097568.7480225.065045.7480225-4.195431.8455906l-4.325521.0975682z" fill="#32673b"/><path d="m182.598878 18.1289753c0-.5203634-.227659-1.1057723-.487841-1.3334313-.260181-.227659-.48784-.6504543-.48784-.9431587 0-.8455906.943158-1.9838856 1.658658-1.9838856.585409 0 .617932-.2927044.617932-6.82977011v-6.82977009h3.024612 2.99209l-.097568 6.82977009c-.097568 6.50454291-.065046 6.82977011.520363 6.82977011 1.398477 0 2.211545 2.048931 1.203341 3.0571352-.260182.2601817-.487841.8455906-.487841 1.3009086v.8455905h-4.227953-4.227953z" fill="#32673b"/><path d="m207.5438 18.8769978c-.130091-.1300909-.227659-.5203635-.227659-.8455906 0-.3252272-.227659-.9756815-.520363-1.4309995-.682977-1.0407268-.195136-2.3091127 1.008204-2.6018172l.813068-.1951362v-6.79724742-6.79724738h3.089658 3.089658v6.82977009c0 5.69147511.065045 6.82977011.455318 6.82977011 1.235863 0 2.081453 2.5367717 1.040727 3.1547033-.227659.1300909-.422796.6179316-.390273 1.0732496l.032523.8130679-4.097862.0975681c-2.244068.0325227-4.162908-.0325227-4.292999-.1300908z" fill="#32673b"/><path d="m1.3823116 18.2590662 1.04072687-.455318v-5.821566c0-6.95986092.32522715-8.52095123 2.24406731-10.24465511 2.6343399-2.40668089 7.93554242-2.24406731 10.14708702.29270444 1.5610903 1.75622659 1.7237039 2.6668626 1.8537947 8.74861027.0975682 6.8297701.1300909 7.0899518 1.1057723 7.5777925.6179316.2927045.227659.3577499-2.0164083.3252272-2.2115446 0-2.5692945-.0650455-1.7237039-.2927045 1.0082042-.2927044 1.0082042-.3577498 1.2683859-2.7969534.2927044-3.1872261 0-9.33401916-.5528861-11.12276847-.9756815-3.3173169-5.23615712-4.68327092-7.93554244-2.56929446-1.82127203 1.43099945-2.11397646 2.69938532-2.11397646 9.75681443v6.3744521l.91063601.3252271c.68297701.2601817.26018172.3577499-2.2115446.3577499-2.92704432 0-3.02461247 0-2.01640831-.455318z" fill="#000"/><path d="m38.848479 18.3241116.8130678-.4227953.0975682-7.7729288c.0975681-8.22824683 0-9.2689737-.7480225-9.2689737-.227659 0-.5203634-.13009086-.6179315-.29270444-.1300909-.16261357 1.0732495-.29270443 2.7644307-.32522714 1.6586585 0 2.8619989.13009086 2.6993853.29270443-.1626135.13009086-.5854088.32522715-.9431587.39027258-.3252271.06504543-.7154997.455318-.8455906.91063601-.1300908.455318-.227659 4.13038477-.2601817 8.19572406-.0325227 6.3094067.0325227 7.4477017.4878407 7.870497.682977.7154997 2.6018172.6504543 3.3173169-.0650454.3252272-.3252272 2.0814538-4.3905665 3.9352485-9.04131471 1.821272-4.61822549 3.4799305-8.55347397 3.6100213-8.71608755.3577499-.35774986.5528862.09756815 4.7483164 10.21213246 1.6911812 4.0328166 3.3173169 7.5127471 3.6100213 7.7404061.7805452.5528861 2.5367718.4878407 3.1547034-.1300909.455318-.4227953.5203634-1.6261357.5203634-8.03311052 0-7.87049697-.1300909-9.00879198-.8455906-9.00879198-.227659 0-.4878407-.13009086-.5854089-.26018172-.0975681-.16261358 2.0164084-.29270443 4.683271-.35774986 4.8133617-.06504543 4.8458845-.06504543 5.008498.68297701.0975682.42279529.227659 1.13829501.3577499 1.62613573.0975681.52036344.0325227.91063601-.1626136.91063601-.1626136 0-.3252271-.29270443-.3252271-.61793158 0-1.04072687-1.2358632-1.65865845-3.3173169-1.65865845-2.6993853 0-2.8619989.26018172-2.8619989 4.74831635v3.70758948h1.9188401c2.3416355 0 2.9595671-.19513629 2.9595671-.97568144 0-.35774986.1300908-.68297701.2927044-.78054515.1626136-.13009086.3577499.61793158.4227953 1.59361302.0975682 1.6911812-.0975681 2.2115446-.5528861 1.4635222-.0975682-.1626136-1.3009086-.3252272-2.6343399-.3252272h-2.4066809v3.5774986 3.5774987h2.048931c2.0814537 0 2.7969535-.2927045 3.4148851-1.4309995.2601817-.5203634.3252271-.3577499.4227952.8781133l.1300909 1.5285676-7.8054515-.0325227c-4.2929984-.0325227-7.4802244-.1300909-7.0574291-.1951363.4227953-.0975682.8455906-.3577499.910636-.5854089.1626136-.3902725-3.2197488-9.85438253-4.7157937-13.17169944l-.6504542-1.43099944-.3577499.94315872c-3.4474078 8.87870116-5.1385889 13.69206286-4.9434526 13.85467646.1300908.1300909.5203634.2927044.8781133.3902726.3577498.0975681-2.0489311.1626136-5.366248.1951363-5.0410208.0325227-5.8866113-.0325227-5.2036343-.3902726z" fill="#000"/><path d="m76.2496009 18.389157c.4227953-.1951363.910636-.4878407 1.0407269-.7154997.2927044-.455318.3577498-15.02549419.0650454-16.06622107-.1300909-.455318-.455318-.74802243-.8130679-.74802243-.3577498 0-.6179315-.13009086-.6179315-.29270444 0-.16261357 1.3334313-.29270443 2.9270443-.32522714 1.7887493 0 2.8619989.13009086 2.7644307.29270443-.1300908.19513629-.5528861.32522715-.9756814.32522715-1.0082042 0-1.138295.48784072-1.138295 4.09786205v3.05713519h1.7237039 1.6911811l2.4066809-3.25227148c1.3009086-1.75622659 2.7644308-3.47993047 3.2197488-3.7726349.9431587-.61793158 5.8215659-1.10577231 4.9434526-.48784073-.2601817.19513629-.8455906.35774987-1.3009086.35774987-.8781133 0-3.7075895 2.73190803-6.1142704 5.91913408l-1.3984767 1.82127202 1.138295 1.5285676c1.4635222 1.9188402 1.9513629 3.642544 1.4960449 5.3012025-.682977 2.5692945-2.4717263 3.3173169-7.870497 3.2847942-2.959567 0-3.8051576-.0975682-3.187226-.3252272zm6.6671565-.7480224c1.6261358-.682977 2.4392036-2.2115446 2.4392036-4.6507482 0-1.6911812-.1300908-2.1464992-.8455906-3.02461248-.8130678-.94315873-.9756814-1.00820416-2.8619989-.91063601l-1.9838856.09756814-.0975681 4.19543025c-.0975681 4.4556119 0 4.7483163 1.4960449 4.7483163.3902726 0 1.2358631-.1951363 1.8537947-.455318z" fill="#000"/><path d="m106.268067 18.3566343c.48784-.1626136.975681-.6504543 1.073249-1.0407269.097568-.3902725.130091-4.097862.065046-8.26076949l-.097569-7.57779253-.813067-.61793158c-.780546-.58540887-.780546-.58540887 2.211544-.61793158 1.821272 0 2.927045.13009086 2.829476.29270443-.13009.19513629-.48784.32522715-.813067.32522715-1.170818 0-1.300909 1.00820415-1.235864 9.1714055l.097568 7.870497.813068.4227953c.7155.3577499.455318.4227953-2.113976.3902726-2.341636 0-2.764431-.0975682-2.016408-.3577499z" fill="#000"/><path d="m129.456762 18.2915889c1.105772-.4878407 1.853795-1.4960449 4.878407-6.3744521l1.918841-3.0896579.097568-3.80515762.130091-3.83768034-.845591-.32522714c-.455318-.16261358-.845591-.35774987-.845591-.45531801 0-.06504543 1.333432-.13009086 2.927045-.16261357 1.626135 0 2.927044.13009086 2.927044.29270443s-.390273.32522715-.878113.39027258c-.748023.06504543-.943159.32522714-1.170818 1.39847673-.162614.71549972-.227659 2.40668089-.130091 3.77263491.097568 2.30911274.260182 2.73190803 1.91884 5.69147503 2.471727 4.3580438 3.675067 5.9516568 4.91093 6.4720203 1.008204.455318.975682.455318-1.333431.4878407-2.27659 0-2.341635-.0325227-1.951363-.6504543.455318-.7154997.35775-.9756814-2.63434-6.1142704l-1.56109-2.69938529-2.309113 4.03281659c-2.374158 4.1303848-2.666862 4.91093-1.91884 5.2036344.195136.0975681-.845591.1951363-2.374158.1951363-2.601817 0-2.699386-.0325227-1.756227-.4227953z" fill="#000"/><path d="m217.268092 2.61564039c-.975681-.94315873-.325227-2.40668089 1.040727-2.40668089 1.073249 0 1.691181.52036344 1.691181 1.46352216 0 1.39847674-1.723704 1.9838856-2.731908.94315873zm2.113976-.32522715c.552887-.68297701 0-1.59361302-1.040726-1.59361302-.780546 0-1.170818.74802244-.813068 1.65865845.227659.61793158 1.300908.58540887 1.853794-.06504543z" fill="#000"/><path d="m217.951069 2.25789053c-.422795-.39027258-.227659-1.13829502.227659-.97568144.260182.09756814.552886.03252271.650454-.19513629.065046-.227659.162614 0 .162614.52036343.032523.81306787-.520364 1.17081773-1.040727.6504543z" fill="#000"/></g><path d="m0 0h230v70h-230z"/></g></svg>