<?xml version="1.0" encoding="UTF-8"?>
<svg width="230px" height="70px" viewBox="0 0 230 70" version="1.1" xmlns="http://www.w3.org/2000/svg" xmlns:xlink="http://www.w3.org/1999/xlink">
    <title>tu</title>
    <g id="Page-1" stroke="none" stroke-width="1" fill="none" fill-rule="evenodd">
        <g id="tu" transform="translate(0.000000, -0.000000)">
            <g id="Group" transform="translate(115.000000, 35.106567) scale(-1, 1) rotate(-180.000000) translate(-115.000000, -35.106567) translate(5.000000, 9.000000)" fill-rule="nonzero">
                <path d="M154.141503,38.7158537 C143.409007,31.3006748 133.326965,24.3733365 131.765875,23.300087 L128.871353,21.3487241 L174.012881,21.3487241 L219.121887,21.3487241 L211.023731,26.942631 C206.568119,29.9997662 196.5186,36.9596271 188.648103,42.3909205 C180.810129,47.8222139 174.208018,52.2453031 174.012881,52.2129586 C173.817745,52.2129586 164.873999,46.1310327 154.141503,38.7158537 Z M176.679744,43.1714657 C177.655425,42.6511022 178.988857,40.8298302 179.183993,39.6915352 C179.281561,39.1711717 179.411652,36.0815138 179.444175,32.7967197 L179.50922,26.8775856 L174.24054,26.8775856 L168.939338,26.8775856 L168.939338,33.1544695 C168.939338,39.1061263 168.971861,39.5289216 169.68736,40.8623529 C171.215928,43.7568745 173.915313,44.6349878 176.679744,43.1714657 Z" id="Shape" fill="#32673B"></path>
                <path d="M0.601766444,48.0173502 C0.504198299,47.5620321 0.276539296,46.7164416 0.113925723,46.09851 C-0.146255995,45.0252604 0.0814030079,44.1471471 0.37410744,44.9927377 C0.471675585,45.2203967 0.796902732,45.7407601 1.12212988,46.1310327 C1.64249331,46.8140097 2.09781132,46.9115779 5.41512822,47.0741914 C7.43153654,47.1717596 9.22028585,47.1392369 9.35037671,47.0416687 C9.51299028,46.9115779 9.57803571,41.9030798 9.51299028,35.951423 C9.41542213,24.5684728 9.28533128,23.6253141 7.95189997,23.6253141 C7.62667282,23.6253141 7.26892296,23.4952232 7.1388321,23.3326097 C7.04126396,23.1374734 8.63487698,23.0073825 11.2041714,23.0073825 C13.6758978,23.0073825 15.4321244,23.1374734 15.4321244,23.300087 C15.4321244,23.4952232 14.9117609,23.6253141 14.2938293,23.6253141 C12.4075119,23.6253141 12.3749892,23.8204504 12.3424665,36.1140366 L12.3424665,47.1717596 L15.5947379,47.0741914 C19.3673728,46.9766233 20.4406224,46.6188734 20.5707133,45.3179648 C20.7658496,43.5617382 21.286213,44.504897 21.286213,46.6513961 L21.286213,48.830418 L11.0415579,48.830418 L0.764380017,48.830418 L0.601766444,48.0173502 Z" id="Path" fill="#000000"></path>
                <path d="M55.0773136,45.0903058 C50.3940427,44.277238 46.8490668,40.8623529 45.8733853,36.2766501 C44.2472496,28.536244 50.0688155,22.0967465 58.0368807,22.7472008 C64.3137646,23.2675642 68.5417175,27.397949 68.9970355,33.4796967 C69.3222627,37.8702632 67.6636042,41.3176709 64.2161965,43.3991247 C61.5493338,44.9927377 58.1344488,45.6106693 55.0773136,45.0903058 Z M60.8663568,43.3666019 C62.329879,42.5860568 64.0535829,40.7647848 64.9316962,38.9760355 C65.5821505,37.6426042 65.6797186,36.9596271 65.6797186,33.5447421 C65.6797186,29.9347208 65.6146732,29.5119255 64.8016053,27.9508352 C62.7526743,24.0806321 58.1019261,22.7146781 53.9390186,24.7636091 C50.5241336,26.4222676 48.8004297,29.8371526 48.767907,34.8456507 C48.767907,37.317377 48.8979978,38.0653994 49.6134975,39.593967 C50.5241336,41.5128072 52.0852239,43.0088521 53.8739732,43.6918291 C55.3374953,44.2447152 59.5329255,44.049579 60.8663568,43.3666019 Z" id="Shape" fill="#000000"></path>
                <path d="M124.578355,45.0577831 C122.72456,44.6349878 121.261038,43.6267837 120.675629,42.3583978 C120.09022,41.1225346 119.992652,39.0410809 120.480493,37.8052177 C120.903288,36.6669227 123.179878,34.2602418 125.423946,32.5365379 C128.70874,29.9997662 129.55433,27.3003809 127.733058,25.2514498 C125.423946,22.6496327 120.155266,24.0481094 120.155266,27.2353354 C120.155266,27.7556989 120.025175,28.1784942 119.830039,28.1784942 C119.634902,28.1784942 119.504811,27.2028127 119.504811,25.9019041 C119.504811,23.072428 119.830039,22.8122462 123.732764,22.8122462 C126.0744,22.8122462 126.724854,22.9423371 127.960717,23.6253141 C129.879557,24.6985637 130.887762,26.4547903 130.887762,28.8614712 C130.887762,31.3331975 129.749467,33.0569014 126.041877,36.0164684 C122.334288,38.9760355 121.553743,40.4395576 122.561947,42.4559659 C124.057992,45.3179648 129.91208,44.3422834 129.91208,41.1875801 C129.91208,40.7973075 130.042171,40.5696485 130.204785,40.6672166 C130.334875,40.7647848 130.497489,41.7079435 130.530012,42.7811931 L130.562534,44.7000332 L128.513603,45.0577831 C126.204491,45.4480557 126.302059,45.4480557 124.578355,45.0577831 Z" id="Path" fill="#000000"></path>
                <path d="M71.8915571,35.1708778 C71.2411028,29.674539 70.5581258,24.8611773 70.3955123,24.4058593 C70.1678532,23.8529731 69.8426261,23.6253141 69.2572172,23.6253141 C68.8018992,23.6253141 68.4441494,23.4952232 68.4441494,23.3326097 C68.4441494,23.1699961 69.9076715,23.0073825 71.6964208,23.0073825 C73.6803064,23.0073825 74.8836469,23.1374734 74.7860787,23.300087 C74.6559879,23.4952232 74.2331926,23.6253141 73.8103973,23.6253141 C73.2575111,23.6253141 72.9648067,23.8529731 72.8347159,24.3733365 C72.6721023,25.0237908 73.8103973,38.1954903 74.0380563,38.455672 C74.1031017,38.4881947 75.7942829,35.268446 77.8432139,31.2681521 C79.8596222,27.2678582 81.713417,23.7228822 81.941076,23.3976551 C82.3313486,22.8772917 82.8191893,23.6578368 86.3316425,30.8778795 C88.5106644,35.3334914 90.3644591,38.8784673 90.4295045,38.8134219 C90.722209,38.5532402 91.8930267,25.6742451 91.7629358,24.5684728 L91.6003223,23.3651324 L94.9176392,23.2025188 C99.9911827,22.9098144 103.243454,22.9423371 103.243454,23.300087 C103.243454,23.4952232 102.885704,23.6253141 102.430386,23.6253141 C101.714887,23.6253141 101.617318,23.755405 101.617318,24.6985637 C101.649841,25.2514498 102.105159,26.9751537 102.690568,28.5037213 L103.731295,31.2681521 L106.853475,31.3657202 C109.097543,31.4307656 110.073224,31.3331975 110.300883,31.0404931 C111.048906,29.9997662 113.032791,24.2432457 112.837655,23.6253141 C112.642519,23.0073825 112.77261,22.9748598 115.89479,22.9748598 C117.878676,22.9748598 119.179584,23.1049507 119.179584,23.300087 C119.179584,23.4952232 118.756789,23.6253141 118.203903,23.6253141 C116.61029,23.6253141 115.699654,25.2514498 111.634315,35.3985368 C109.552861,40.6346939 107.666543,44.9276923 107.471407,44.9276923 C107.243748,44.9276923 105.422476,40.5371258 103.373545,35.2034005 C101.357137,29.8371526 99.4057738,25.0888363 99.0805466,24.6335183 C98.2674788,23.527746 96.3811613,23.3326097 95.4705253,24.2432457 C95.1127754,24.6009955 94.7550256,25.3815407 94.6574574,25.9669496 C94.2997076,28.2110169 92.5109583,43.4316474 92.5109583,44.2447152 C92.5109583,44.7000332 92.3483447,45.0903058 92.1857311,45.0903058 C91.9905948,45.0903058 89.8440957,41.0574892 87.4048921,36.1140366 L82.9492801,27.17029 L82.396394,28.2435396 C82.0711668,28.8289485 80.0222358,32.8292424 77.8106912,37.089718 C75.5991466,41.3827163 73.615261,44.9276923 73.4526474,44.9927377 C73.2249884,45.0577831 72.6721023,41.4152391 71.8915571,35.1708778 Z M108.414566,36.5693546 C109.162588,34.4879008 109.747997,32.6991515 109.747997,32.6015834 C109.747997,32.5040152 108.512134,32.4064471 106.983566,32.4064471 C105.454999,32.4064471 104.219136,32.5365379 104.219136,32.6991515 C104.219136,32.8942878 104.739499,34.5204235 105.389953,36.3742183 C106.007885,38.228013 106.625816,39.9191942 106.690862,40.1793759 C106.885998,40.8298302 106.951044,40.7322621 108.414566,36.5693546 Z" id="Shape" fill="#000000"></path>
                <path d="M23.2375759,44.3422834 L24.3758709,43.9520108 L24.4734391,34.2277191 C24.5384845,24.1456775 24.5059618,23.6253141 23.2050532,23.6253141 C22.8473033,23.6253141 22.5871216,23.4952232 22.5871216,23.3326097 C22.5871216,23.1374734 24.3108255,23.0073825 26.4898474,23.0073825 C28.7664374,23.0073825 30.3925731,23.1374734 30.3925731,23.300087 C30.3925731,23.4952232 29.8722097,23.6253141 29.2542781,23.6253141 C27.6606651,23.6253141 27.4655288,24.3082911 27.4655288,29.9997662 L27.4655288,34.6830371 L33.7424128,34.6179917 L39.986774,34.5204235 L40.0843421,30.4550842 C40.1819103,25.1538817 39.9217285,23.8204504 38.7509108,23.6903595 C38.2630701,23.6253141 37.8727975,23.4627005 37.8727975,23.300087 C37.8727975,23.1374734 39.6290241,23.0073825 41.7755233,23.0073825 C44.0521133,23.0073825 45.6782491,23.1374734 45.6782491,23.300087 C45.6782491,23.4952232 45.2554538,23.6253141 44.7350903,23.6253141 C42.9788637,23.6253141 42.9138183,23.9505413 42.8162502,33.1219468 C42.6536366,43.1064202 42.718682,43.6593064 44.1496815,44.277238 C45.1253629,44.7000332 44.8977039,44.732556 41.2876826,44.732556 C38.3281155,44.7000332 37.6451385,44.6349878 38.4256837,44.4073288 C39.9542513,43.9520108 40.1819103,43.2690338 40.0843421,39.3337853 L39.986774,35.8213321 L33.7424128,35.723764 L27.4655288,35.6587186 L27.4655288,39.4638762 C27.4655288,41.5778526 27.5956197,43.4641701 27.7257105,43.6918291 C27.8558014,43.9194881 28.3436421,44.2121925 28.7664374,44.4073288 C29.384369,44.6349878 28.6363465,44.732556 25.8393931,44.732556 C22.5220762,44.732556 22.2293717,44.7000332 23.2375759,44.3422834 Z" id="Path" fill="#000000"></path>
                <path d="M19.6600773,10.1283875 L19.6600773,1.18464094 L18.8470094,0.859413796 C18.3916914,0.696800222 18.0339415,0.501663934 18.0339415,0.40409579 C18.0339415,0.33905036 19.2698047,0.274004931 20.7983723,0.241482216 C22.4570307,0.241482216 23.4977576,0.371573075 23.4001895,0.566709363 C23.2700986,0.729322937 22.8473033,0.859413796 22.424508,0.859413796 C21.9366673,0.859413796 21.5789174,1.0870728 21.4488266,1.54239081 C21.1886449,2.35545867 20.7333269,15.1694083 20.9609859,15.1368856 C21.058554,15.1368856 22.2293717,13.8684997 23.562803,12.3399321 C26.9451654,8.50225176 34.9457532,0.208959501 35.3035031,0.208959501 C35.4661166,0.208959501 35.6287302,4.1767307 35.6612529,9.05513791 L35.7588211,17.9013163 L36.5718889,18.3241116 C37.2873887,18.6818615 37.0597297,18.7469069 34.620526,18.6818615 C33.0919585,18.6818615 32.1813224,18.5842933 32.571595,18.5192479 C34.0025945,18.2265435 34.1326853,17.70618 34.2952989,10.5511828 C34.392867,6.84359331 34.3603443,3.78645812 34.2302535,3.78645812 C34.1001626,3.78645812 33.8074582,4.04663984 33.5797992,4.37186699 C32.7667313,5.54268472 20.1804407,19.072134 19.920259,19.072134 C19.7901681,19.072134 19.6600773,15.0393174 19.6600773,10.1283875 Z" id="Path" fill="#000000"></path>
                <path d="M98.2024333,18.844475 C95.6656616,18.1289753 94.4297984,15.3645446 95.4705253,12.6651592 C95.6656616,12.1773185 97.1942292,10.4210919 98.8854104,8.8274789 C101.8775,5.93295729 101.942546,5.86791186 101.942546,4.37186699 C101.942546,3.23357197 101.747409,2.61564039 101.162,1.93266338 C100.479023,1.15211823 100.153796,1.02202737 98.5927059,1.02202737 C96.4462067,1.02202737 95.1127754,1.99770881 95.1127754,3.5262764 C95.1127754,4.01411712 94.9826846,4.43691242 94.7875483,4.43691242 C94.6249347,4.43691242 94.4623211,3.62384455 94.4623211,2.64816311 C94.4623211,0.469141219 94.9826846,0.0788686425 98.0398198,0.0788686425 C101.324614,0.0788686425 103.080841,1.41229995 103.698772,4.33934427 C104.15409,6.42079801 103.471113,7.65666117 99.9911827,10.9414554 C96.9015248,13.8684997 96.7389112,14.1286814 96.7389112,15.3645446 C96.7389112,16.340226 96.9340475,16.8605894 97.551979,17.4459983 C99.1781148,18.9745659 102.820659,17.9988845 102.983272,16.0149989 C102.983272,15.6247263 103.113363,15.9824761 103.210931,16.795544 C103.341022,17.6086119 103.341022,18.389157 103.210931,18.5517706 C102.95075,18.8769978 99.1130694,19.1046568 98.2024333,18.844475 Z" id="Path" fill="#000000"></path>
                <path d="M112.837655,18.0314072 C112.740087,17.4459983 112.544951,16.6654532 112.447382,16.3077033 C112.349814,15.8198626 112.479905,15.884908 113.097837,16.6329304 C113.845859,17.5435665 114.073518,17.6086119 116.545244,17.70618 L119.179584,17.8362709 L119.179584,9.51045591 L119.179584,1.18464094 L118.366516,0.859413796 C117.911198,0.696800222 117.553449,0.501663934 117.553449,0.40409579 C117.553449,0.33905036 118.951925,0.274004931 120.643107,0.274004931 C122.496901,0.274004931 123.667719,0.371573075 123.570151,0.566709363 C123.44006,0.729322937 123.017265,0.859413796 122.594469,0.859413796 C122.171674,0.859413796 121.748879,0.989504655 121.651311,1.15211823 C121.553743,1.28220909 121.456174,5.054844 121.456174,9.51045591 L121.423652,17.6086119 L123.017265,17.70618 C125.228809,17.8362709 126.757377,17.4134756 127.147649,16.5353623 C127.63549,15.4621127 127.798104,15.657249 127.830626,17.2833847 L127.863149,18.7469069 L120.935811,18.7469069 C117.130653,18.7469069 113.813336,18.844475 113.553155,18.9420432 C113.195405,19.072134 113.000269,18.8119523 112.837655,18.0314072 Z" id="Path" fill="#000000"></path>
                <path d="M156.580706,18.2915889 C156.580706,17.8687936 156.320525,17.0557257 156.02782,16.5353623 C155.507457,15.6247263 155.507457,15.5271581 156.02782,14.7140903 C156.353047,14.2587723 156.873411,13.8684997 157.231161,13.8684997 C157.849092,13.8684997 157.881615,13.6408407 157.881615,7.03872959 L157.881615,0.208959501 L160.971273,0.208959501 L164.060931,0.208959501 L164.060931,7.03872959 C164.060931,12.5350684 164.158499,13.8684997 164.483726,13.8684997 C165.13418,13.8684997 166.012294,14.9417493 166.012294,15.7548171 C166.012294,16.112567 165.784635,16.6654532 165.49193,16.9256349 C165.231748,17.2183393 165.036612,17.7712255 165.101658,18.161498 C165.199226,18.9095205 165.166703,18.9095205 160.906227,19.0070886 L156.580706,19.1046568 L156.580706,18.2915889 Z" id="Path" fill="#32673B"></path>
                <path d="M182.598878,18.1289753 C182.598878,17.6086119 182.371219,17.023203 182.111037,16.795544 C181.850856,16.567885 181.623197,16.1450897 181.623197,15.8523853 C181.623197,15.0067947 182.566355,13.8684997 183.281855,13.8684997 C183.867264,13.8684997 183.899787,13.5757953 183.899787,7.03872959 L183.899787,0.208959501 L186.924399,0.208959501 L189.916489,0.208959501 L189.818921,7.03872959 C189.721353,13.5432725 189.753875,13.8684997 190.339284,13.8684997 C191.737761,13.8684997 192.550829,15.9174307 191.542625,16.9256349 C191.282443,17.1858166 191.054784,17.7712255 191.054784,18.2265435 L191.054784,19.072134 L186.826831,19.072134 L182.598878,19.072134 L182.598878,18.1289753 Z" id="Path" fill="#32673B"></path>
                <path d="M207.5438,18.8769978 C207.413709,18.7469069 207.316141,18.3566343 207.316141,18.0314072 C207.316141,17.70618 207.088482,17.0557257 206.795778,16.6004077 C206.112801,15.5596809 206.600642,14.291295 207.803982,13.9985905 L208.61705,13.8034543 L208.61705,7.00620688 L208.61705,0.208959501 L211.706708,0.208959501 L214.796366,0.208959501 L214.796366,7.03872959 C214.796366,12.7302047 214.861411,13.8684997 215.251684,13.8684997 C216.487547,13.8684997 217.333137,16.4052714 216.292411,17.023203 C216.064752,17.1532939 215.869615,17.6411346 215.902138,18.0964526 L215.934661,18.9095205 L211.836799,19.0070886 C209.592731,19.0396113 207.673891,18.9745659 207.5438,18.8769978 Z" id="Path" fill="#32673B"></path>
                <path d="M1.3823116,18.2590662 L2.42303847,17.8037482 L2.42303847,11.9821822 C2.42303847,5.02232128 2.74826562,3.46123097 4.66710578,1.73752709 C7.30144568,-0.669153796 12.6026482,-0.506540223 14.8141928,2.03023153 C16.3752831,3.78645812 16.5378967,4.69709413 16.6679875,10.7788418 C16.7655557,17.6086119 16.7980784,17.8687936 17.7737598,18.3566343 C18.3916914,18.6493388 18.0014188,18.7143842 15.7573515,18.6818615 C13.5458069,18.6818615 13.188057,18.616816 14.0336476,18.389157 C15.0418518,18.0964526 15.0418518,18.0314072 15.3020335,15.5922036 C15.5947379,12.4049775 15.3020335,6.25818444 14.7491474,4.46943513 C13.7734659,1.15211823 9.51299028,-0.21383579 6.81360496,1.90014067 C4.99233293,3.33114012 4.6996285,4.59952599 4.6996285,11.6569551 L4.6996285,18.0314072 L5.61026451,18.3566343 C6.29324152,18.616816 5.87044623,18.7143842 3.39871991,18.7143842 C0.471675585,18.7143842 0.37410744,18.7143842 1.3823116,18.2590662 Z" id="Path" fill="#000000"></path>
                <path d="M38.848479,18.3241116 L39.6615468,17.9013163 L39.759115,10.1283875 C39.8566831,1.90014067 39.759115,0.859413796 39.0110925,0.859413796 C38.7834335,0.859413796 38.4907291,0.729322937 38.393161,0.566709363 C38.2630701,0.40409579 39.4664105,0.274004931 41.1575917,0.241482216 C42.8162502,0.241482216 44.0195906,0.371573075 43.856977,0.534186649 C43.6943635,0.664277508 43.2715682,0.859413796 42.9138183,0.924459225 C42.5885912,0.989504655 42.1983186,1.37977723 42.0682277,1.83509524 C41.9381369,2.29041324 41.8405687,5.96548001 41.808046,10.0308193 C41.7755233,16.340226 41.8405687,17.478521 42.2958867,17.9013163 C42.9788637,18.616816 44.8977039,18.5517706 45.6132036,17.8362709 C45.9384308,17.5110437 47.6946574,13.4457044 49.5484521,8.79495619 C51.3697241,4.1767307 53.0283826,0.241482216 53.1584734,0.0788686425 C53.5162233,-0.27888122 53.7113596,0.176436787 57.9067898,10.2910011 C59.597971,14.3238177 61.2241067,17.8037482 61.5168111,18.0314072 C62.2973563,18.5842933 64.0535829,18.5192479 64.6715145,17.9013163 C65.1268325,17.478521 65.1918779,16.2751806 65.1918779,9.86820578 C65.1918779,1.99770881 65.061787,0.859413796 64.3462873,0.859413796 C64.1186283,0.859413796 63.8584466,0.729322937 63.7608784,0.599232078 C63.6633103,0.436618504 65.7772868,0.306527646 68.4441494,0.241482216 C73.2575111,0.176436787 73.2900339,0.176436787 73.4526474,0.924459225 C73.5502156,1.34725452 73.6803064,2.06275424 73.8103973,2.55059496 C73.9079654,3.0709584 73.84292,3.46123097 73.6477837,3.46123097 C73.4851701,3.46123097 73.3225566,3.16852654 73.3225566,2.84329939 C73.3225566,1.80257252 72.0866934,1.18464094 70.0052397,1.18464094 C67.3058544,1.18464094 67.1432408,1.44482266 67.1432408,5.93295729 L67.1432408,9.64054677 L69.0620809,9.64054677 C71.4037164,9.64054677 72.021648,9.44541048 72.021648,8.66486533 C72.021648,8.30711547 72.1517388,7.98188832 72.3143524,7.88432018 C72.476966,7.75422932 72.6721023,8.50225176 72.7371477,9.4779332 C72.8347159,11.1691144 72.6395796,11.6894778 72.1842616,10.9414554 C72.0866934,10.7788418 70.883353,10.6162282 69.5499217,10.6162282 L67.1432408,10.6162282 L67.1432408,14.1937268 L67.1432408,17.7712255 L69.1921718,17.7712255 C71.2736255,17.7712255 71.9891253,17.478521 72.6070569,16.340226 C72.8672386,15.8198626 72.932284,15.9824761 73.0298521,17.2183393 L73.159943,18.7469069 L65.3544915,18.7143842 C61.0614931,18.6818615 57.8742671,18.5842933 58.2970624,18.5192479 C58.7198577,18.4216797 59.142653,18.161498 59.2076984,17.933839 C59.370312,17.5435665 55.9879496,8.07945647 54.4919047,4.76213956 L53.8414505,3.33114012 L53.4837006,4.27429884 C50.0362928,13.153 48.3451117,17.9663617 48.540248,18.1289753 C48.6703388,18.2590662 49.0606114,18.4216797 49.4183613,18.5192479 C49.7761111,18.616816 47.3694302,18.6818615 44.0521133,18.7143842 C39.0110925,18.7469069 38.165502,18.6818615 38.848479,18.3241116 Z" id="Path" fill="#000000"></path>
                <path d="M76.2496009,18.389157 C76.6723962,18.1940207 77.1602369,17.9013163 77.2903278,17.6736573 C77.5830322,17.2183393 77.6480776,2.64816311 77.3553732,1.60743623 C77.2252823,1.15211823 76.9000552,0.859413796 76.5423053,0.859413796 C76.1845555,0.859413796 75.9243738,0.729322937 75.9243738,0.566709363 C75.9243738,0.40409579 77.2578051,0.274004931 78.8514181,0.241482216 C80.6401674,0.241482216 81.713417,0.371573075 81.6158488,0.534186649 C81.485758,0.729322937 81.0629627,0.859413796 80.6401674,0.859413796 C79.6319632,0.859413796 79.5018724,1.34725452 79.5018724,4.95727585 L79.5018724,8.01441104 L81.2255763,8.01441104 L82.9167574,8.01441104 L85.3234383,4.76213956 C86.6243469,3.00591297 88.0878691,1.28220909 88.5431871,0.989504655 C89.4863458,0.371573075 94.364753,-0.116267646 93.4866397,0.501663934 C93.226458,0.696800222 92.6410491,0.859413796 92.1857311,0.859413796 C91.3076178,0.859413796 88.4781416,3.59132183 86.0714607,6.77854788 L84.672984,8.5998199 L85.811279,10.1283875 C87.2748012,12.0472277 87.7626419,13.7709315 87.3073239,15.42959 C86.6243469,17.9988845 84.8355976,18.7469069 79.4368269,18.7143842 C76.4772599,18.7143842 75.6316693,18.616816 76.2496009,18.389157 Z M82.9167574,17.6411346 C84.5428932,16.9581576 85.355961,15.42959 85.355961,12.9903864 C85.355961,11.2992052 85.2258702,10.8438872 84.5103704,9.96577392 C83.6973026,9.02261519 83.534689,8.95756976 81.6483715,9.05513791 L79.6644859,9.15270605 L79.5669178,13.3481363 C79.4693497,17.8037482 79.5669178,18.0964526 81.0629627,18.0964526 C81.4532353,18.0964526 82.2988258,17.9013163 82.9167574,17.6411346 Z" id="Shape" fill="#000000"></path>
                <path d="M106.268067,18.3566343 C106.755907,18.1940207 107.243748,17.70618 107.341316,17.3159074 C107.438884,16.9256349 107.471407,13.2180454 107.406362,9.05513791 L107.308793,1.47734538 L106.495726,0.859413796 C105.71518,0.274004931 105.71518,0.274004931 108.70727,0.241482216 C110.528542,0.241482216 111.634315,0.371573075 111.536746,0.534186649 C111.406656,0.729322937 111.048906,0.859413796 110.723679,0.859413796 C109.552861,0.859413796 109.42277,1.86761795 109.487815,10.0308193 L109.585383,17.9013163 L110.398451,18.3241116 C111.113951,18.6818615 110.853769,18.7469069 108.284475,18.7143842 C105.942839,18.7143842 105.520044,18.616816 106.268067,18.3566343 Z" id="Path" fill="#000000"></path>
                <path d="M129.456762,18.2915889 C130.562534,17.8037482 131.310557,16.795544 134.335169,11.9171368 L136.25401,8.8274789 L136.351578,5.02232128 L136.481669,1.18464094 L135.636078,0.859413796 C135.18076,0.696800222 134.790487,0.501663934 134.790487,0.40409579 C134.790487,0.33905036 136.123919,0.274004931 137.717532,0.241482216 C139.343667,0.241482216 140.644576,0.371573075 140.644576,0.534186649 C140.644576,0.696800222 140.254303,0.859413796 139.766463,0.924459225 C139.01844,0.989504655 138.823304,1.24968637 138.595645,2.32293596 C138.433031,3.03843568 138.367986,4.72961685 138.465554,6.09557087 C138.563122,8.40468361 138.725736,8.8274789 140.384394,11.7870459 C142.856121,16.1450897 144.059461,17.7387027 145.295324,18.2590662 C146.303528,18.7143842 146.271006,18.7143842 143.961893,18.7469069 C141.685303,18.7469069 141.620258,18.7143842 142.01053,18.0964526 C142.465848,17.3809529 142.36828,17.1207712 139.37619,11.9821822 L137.8151,9.28279691 L135.505987,13.3156135 C133.131829,17.4459983 132.839125,18.2265435 133.587147,18.5192479 C133.782283,18.616816 132.741556,18.7143842 131.212989,18.7143842 C128.611172,18.7143842 128.513603,18.6818615 129.456762,18.2915889 Z" id="Path" fill="#000000"></path>
                <path d="M217.268092,2.61564039 C216.292411,1.67248166 216.942865,0.208959501 218.308819,0.208959501 C219.382068,0.208959501 220,0.729322937 220,1.67248166 C220,3.0709584 218.276296,3.65636726 217.268092,2.61564039 Z M219.382068,2.29041324 C219.934955,1.60743623 219.382068,0.696800222 218.341342,0.696800222 C217.560796,0.696800222 217.170524,1.44482266 217.528274,2.35545867 C217.755933,2.97339025 218.829182,2.94086754 219.382068,2.29041324 Z" id="Shape" fill="#000000"></path>
                <path d="M217.951069,2.25789053 C217.528274,1.86761795 217.72341,1.11959551 218.178728,1.28220909 C218.43891,1.37977723 218.731614,1.3147318 218.829182,1.0870728 C218.894228,0.859413796 218.991796,1.0870728 218.991796,1.60743623 C219.024319,2.4205041 218.471432,2.77825396 217.951069,2.25789053 Z" id="Path" fill="#000000"></path>
            </g>
            <rect id="Rectangle" x="0" y="0" width="230" height="70"></rect>
        </g>
    </g>
</svg>