<?xml version="1.0" standalone="no"?>
<!DOCTYPE svg PUBLIC "-//W3C//DTD SVG 20010904//EN"
 "http://www.w3.org/TR/2001/REC-SVG-20010904/DTD/svg10.dtd">
<svg version="1.0" xmlns="http://www.w3.org/2000/svg"
 width="700.000000pt" height="700.000000pt" viewBox="0 0 700.000000 700.000000"
 preserveAspectRatio="xMidYMid meet">
<metadata>
Created by potrace 1.14, written by Peter Selinger 2001-2017
</metadata>
<g transform="translate(0.000000,700.000000) scale(0.100000,-0.100000)"
fill="#4D2406" stroke="none">
<path d="M0 3500 l0 -3500 3500 0 3500 0 0 3500 0 3500 -3500 0 -3500 0 0
-3500z m3955 2188 c192 -436 374 -851 406 -923 31 -71 130 -296 219 -500 259
-589 551 -1253 837 -1905 147 -333 350 -796 453 -1030 104 -234 186 -428 183
-432 -2 -5 -303 -8 -669 -8 l-665 0 -77 59 c-415 316 -871 470 -1276 432 -235
-22 -429 -77 -633 -180 -136 -68 -298 -173 -392 -255 l-65 -56 -673 0 -674 0
18 31 c65 113 202 317 283 421 131 170 393 431 550 547 387 288 825 465 1330
538 99 14 188 18 430 18 316 0 406 -8 631 -54 151 -31 170 -100 -200 740 -178
404 -332 749 -343 767 -38 63 -27 84 -247 -453 -94 -230 -196 -461 -213 -482
-7 -9 -41 -13 -103 -13 -267 0 -709 -128 -1142 -330 -51 -24 -95 -41 -98 -38
-3 3 99 234 226 514 128 280 287 631 354 779 213 470 409 901 545 1200 73 160
152 333 175 385 23 52 125 275 225 495 101 220 195 428 211 463 15 34 32 62
37 62 5 0 165 -357 357 -792z"/>
</g>
</svg>
