<?xml version="1.0" standalone="no"?>
<!DOCTYPE svg PUBLIC "-//W3C//DTD SVG 20010904//EN"
 "http://www.w3.org/TR/2001/REC-SVG-20010904/DTD/svg10.dtd">
<svg version="1.0" xmlns="http://www.w3.org/2000/svg"
 width="260.000000pt" height="260.000000pt" viewBox="0 0 260.000000 260.000000"
 preserveAspectRatio="xMidYMid meet">
<metadata>
Created by potrace 1.14, written by Peter Selinger 2001-2017
</metadata>
<g transform="translate(0.000000,260.000000) scale(0.100000,-0.100000)"
fill="#00AAEE" stroke="none">
<path d="M0 1300 l0 -1300 1300 0 1300 0 0 1300 0 1300 -1300 0 -1300 0 0
-1300z m1525 687 c89 -205 287 -655 440 -1002 152 -346 279 -636 282 -642 4
-10 -48 -13 -242 -13 l-247 0 -82 54 c-139 93 -240 126 -383 126 -145 0 -264
-41 -391 -134 l-62 -46 -245 0 c-135 0 -245 3 -245 6 0 23 128 193 200 265
139 140 284 224 475 274 158 42 395 45 543 8 15 -3 22 -1 22 8 -1 21 -244 562
-253 563 -5 0 -37 -66 -71 -149 -35 -82 -68 -162 -75 -176 -12 -23 -21 -27
-104 -38 -98 -13 -222 -51 -333 -101 -37 -16 -69 -28 -71 -26 -2 2 143 328
324 725 313 690 328 720 341 695 7 -14 87 -193 177 -397z"/>
</g>
</svg>
