<?xml version="1.0" encoding="UTF-8"?>
<svg width="170px" height="160px" viewBox="0 0 170 160" version="1.1" xmlns="http://www.w3.org/2000/svg" xmlns:xlink="http://www.w3.org/1999/xlink">
    <title>c</title>
    <g id="Page-1" stroke="none" stroke-width="1" fill="none" fill-rule="evenodd">
        <g id="c" transform="translate(-0.000000, 0.000000)">
            <rect id="Rectangle" x="0" y="0" width="170" height="160"></rect>
            <g id="Ceridian-lockup-indigo_RGB-Copy" transform="translate(8.000000, 13.000000)" fill-rule="nonzero">
                <path d="M5.48446157,131.823928 C3.78607999,130.865481 2.38677337,129.454805 1.44210127,127.748723 C0.474752195,126.005337 -0.0219943299,124.040119 0.000747175601,122.046469 C0.000747175601,119.96718 0.48161962,118.077797 1.44336451,116.378322 C2.39657493,114.687146 3.79454894,113.289172 5.48572481,112.335962 C7.21888679,111.342215 9.20343305,110.84492 11.4393636,110.844078 C14.0551076,110.844078 16.3360936,111.537174 18.2823216,112.923367 L16.035022,116.207785 C14.7563606,115.142262 13.137674,114.571172 11.473471,114.59842 C10.0418017,114.59842 8.7895122,114.935283 7.7166024,115.60901 C6.65086628,116.271417 5.7911874,117.218157 5.23434053,118.342656 C4.65136495,119.502737 4.35260272,120.784817 4.36270659,122.083103 C4.35142254,123.375865 4.65032526,124.652483 5.23434053,125.805864 C5.79991306,126.929581 6.66452318,127.875494 7.73302449,128.53951 C8.81856666,129.221658 10.0653822,129.562733 11.473471,129.562733 C13.1420196,129.581822 14.7615298,128.99878 16.035022,127.920524 L18.2823216,131.204941 C16.3141975,132.61303 14.0332115,133.317496 11.4393636,133.318338 C9.20343305,133.317496 7.21846571,132.819359 5.48446157,131.823928 Z" id="Path" fill="#3067DB"></path>
                <polygon id="Path" fill="#3067DB" points="28.1014675 114.868753 28.1014675 120.472475 35.9171185 120.472475 35.9171185 123.726575 28.1014675 123.726575 28.1014675 129.361878 37.5934347 129.361878 37.5934347 132.852203 23.8759377 132.852203 23.8759377 111.377164 37.5934347 111.377164 37.5934347 114.864963"></polygon>
                <path d="M49.5411359,124.127021 L48.1667334,124.127021 L48.1667334,132.843361 L43.9399404,132.843361 L43.9399404,111.377164 L51.620425,111.377164 C52.8880295,111.366844 54.1441492,111.617982 55.310342,112.114895 C56.4133728,112.577346 57.3656898,113.338063 58.0604102,114.311665 C58.7543488,115.284358 59.1008969,116.441484 59.1000548,117.783042 C59.1000548,119.348614 58.6250775,120.628695 57.6751228,121.623284 C56.7251681,122.617873 55.4674045,123.329076 53.9018321,123.756893 L60.9456449,132.852203 L55.7802664,132.852203 L49.5411359,124.127021 Z M48.1667334,120.968927 L50.7487911,120.968927 C52.0229767,120.968927 53.0070388,120.694805 53.7009773,120.14656 C54.3949158,119.598314 54.741464,118.832371 54.7406234,117.84873 C54.7406234,116.843193 54.3772305,116.049459 53.6504478,115.467528 C52.9236651,114.885596 51.8894946,114.595051 50.5479363,114.595892 L48.1667334,114.595892 L48.1667334,120.968927 Z" id="Shape" fill="#3067DB"></path>
                <polygon id="Path" fill="#3067DB" points="69.639246 132.852203 65.412453 132.852203 65.412453 111.377164 69.639246 111.377164"></polygon>
                <path d="M90.1731731,112.773042 C91.916441,113.699416 93.2466302,114.974023 94.1637407,116.596862 C95.0808512,118.219701 95.5394064,120.047606 95.5394064,122.080576 C95.5394064,124.137969 95.0808512,125.982717 94.1637407,127.61482 C93.2368146,129.256902 91.84962,130.591841 90.1731731,131.455063 C88.4282209,132.381437 86.3598799,132.844624 83.9681501,132.844624 L76.9912888,132.844624 L76.9912888,111.377164 L83.9681501,111.377164 C86.3598799,111.377164 88.4282209,111.842457 90.1731731,112.773042 Z M89.1625831,127.44681 C90.5041414,126.172624 91.1749205,124.38388 91.1749205,122.080576 C91.1749205,119.821908 90.5041414,118.053375 89.1625831,116.774978 C87.8210247,115.496582 85.9202732,114.859068 83.4603286,114.862423 L81.2168186,114.862423 L81.2168186,129.353056 L83.4641183,129.353056 C85.9240629,129.357246 87.8248144,128.721837 89.1663728,127.44681 L89.1625831,127.44681 Z" id="Shape" fill="#3067DB"></path>
                <polygon id="Path" fill="#3067DB" points="105.33834 132.852203 101.111547 132.852203 101.111547 111.377164 105.33834 111.377164"></polygon>
                <path d="M125.061269,127.916734 L116.408091,127.916734 L114.66356,132.843361 L110.100746,132.843361 L118.587176,111.377164 L122.882184,111.377164 L131.366088,132.852203 L126.804537,132.852203 L125.061269,127.916734 Z M123.887721,124.696741 L120.729627,115.808602 L117.571533,124.696741 L123.887721,124.696741 Z" id="Shape" fill="#3067DB"></path>
                <polygon id="Path" fill="#3067DB" points="155 111.377164 155 132.852203 151.075121 132.852203 140.510665 118.021794 140.510665 132.852203 136.417775 132.852203 136.417775 111.377164 140.346444 111.377164 150.912163 126.202521 150.912163 111.377164"></polygon>
                <path d="M82.548271,81.8174045 C62.1899339,81.8174045 45.6857348,65.3132053 45.6857348,44.9548682 C45.6857348,24.5965312 62.1899339,8.092332 82.548271,8.092332 C90.8967366,8.08607223 98.9975986,10.9277685 105.512667,16.1479981 L110.096956,9.44273298 C102.223679,3.31174168 92.5271194,-0.0118909844 82.548271,-7.18067437e-15 C57.7205993,-7.18067437e-15 37.5934347,20.1271966 37.5934347,44.9548682 C37.5934347,69.7825399 57.7205993,89.9097421 82.548271,89.9097421 C92.4343481,89.9225094 102.046388,86.6611942 109.883469,80.6350141 L105.335814,73.8943783 C98.8510613,79.0300655 90.8203492,81.8222727 82.548271,81.8174045 L82.548271,81.8174045 Z" id="Path" fill="#3067DB"></path>
                <path d="M45.6857348,44.9548682 C45.6857348,65.3132053 62.1899339,81.8174116 82.548271,81.8174116 C90.8207822,81.8225577 98.851985,79.0303347 105.337077,73.8943783 L100.807107,67.1853234 C95.6671808,71.4242841 89.2106718,73.7394969 82.548271,73.7326839 C66.6592686,73.7326839 53.7780348,60.8476604 53.7780348,44.9611844 C53.7780348,29.0747084 66.6630583,16.1909482 82.548271,16.1909482 C89.2691359,16.1819348 95.779222,18.5361902 100.939747,22.8418941 L105.512667,16.1543143 C98.9984415,10.9318168 90.8974983,8.08786395 82.548271,8.09232674 C62.1899339,8.09232674 45.6857348,24.5927415 45.6857348,44.9548682 Z" id="Path" fill="#3982E8"></path>
            </g>
        </g>
    </g>
</svg>