<?xml version="1.0" encoding="UTF-8"?>
<svg width="170px" height="160px" viewBox="0 0 170 160" version="1.1" xmlns="http://www.w3.org/2000/svg" xmlns:xlink="http://www.w3.org/1999/xlink">
    <title>dm</title>
    <g id="Page-1" stroke="none" stroke-width="1" fill="none" fill-rule="evenodd">
        <g id="dm">
            <g transform="translate(20.000000, 15.000000)">
                <g id="logo" transform="translate(10.140000, 0.000000)" stroke="#25AAE1" stroke-width="3.5">
                    <circle id="Oval" cx="54.86" cy="54.86" r="54.86"></circle>
                    <polyline id="Path-2" stroke-linecap="round" stroke-linejoin="round" points="58.1046269 45.8311993 45.8944412 23.14 16.9 75.14 52.5540604 75.14 72.8881687 40.5516604 93.08 75.14 65.2882847 75.14"></polyline>
                </g>
                <g id="DevMountain" transform="translate(65.000000, 125.423103) scale(-1, 1) rotate(-180.000000) translate(-65.000000, -125.423103) translate(0.000000, 120.380000)" fill="#000000" fill-rule="nonzero">
                    <path d="M54.3346788,10.025814 C51.8213735,9.51519465 50.4310345,7.74766623 50.4310345,5.0570952 C50.4417294,1.89518325 52.3026448,0 55.4041703,0 C56.591306,0 57.2436959,0.12765483 58.0565095,0.520438923 C59.1473909,1.06051705 59.9602045,2.06211649 60.3345266,3.35830399 C60.5591198,4.12423298 60.5805096,5.82302418 60.3773062,6.58895316 C59.9495096,8.20918754 58.7623739,9.45627704 57.233001,9.88833954 C56.5806111,10.0650924 54.9335941,10.1534688 54.3346788,10.025814 Z M56.9977128,8.70016766 C57.2116111,8.60197164 57.6180179,8.29756396 57.9067807,8.0127955 C59.4147638,6.49075714 59.265035,3.10299433 57.6287128,1.77734802 C56.6768653,1.01141904 55.1154076,0.864125004 53.8961872,1.43366194 C52.7518312,1.97374007 52.1529159,3.01461791 52.0566617,4.6446719 C51.9176278,7.14867049 52.9764245,8.70016766 54.9763737,8.93583811 C55.6501534,9.01439493 56.4950518,8.91619891 56.9977128,8.70016766 Z" id="Shape"></path>
                    <path d="M0.508549082,10.0132979 C0.339911044,9.95309835 0.181812884,9.78253294 0.11857362,9.60193426 C-0.03952454,9.18053734 -0.03952454,0.943230946 0.11857362,0.511800769 C0.297751535,0.0101377729 0.603407978,-0.0400285267 2.8273221,0.0201710328 C4.99853683,0.0803705923 5.64146935,0.200769711 6.67437733,0.722499227 C7.72836506,1.254262 8.57155525,2.34788733 8.85613193,3.55187853 C9.00369022,4.19400716 9.00369022,5.96989417 8.84559206,6.57188976 C8.41345709,8.28757721 7.08543254,9.50160166 5.21987425,9.92299858 C4.50316259,10.0734975 0.877444788,10.1537636 0.508549082,10.0132979 Z M5.39905217,8.62870805 C6.11576383,8.36784329 6.75869634,7.79594747 7.05381291,7.1638521 C7.38054911,6.4615239 7.51756751,5.21739967 7.39108898,4.21407368 C7.07489266,1.8562576 5.87334665,1.1037631 2.405727,1.09372984 L1.58361657,1.09372984 L1.58361657,5.01673447 L1.58361657,8.9397391 L3.1962178,8.89960606 C4.52424235,8.85947302 4.90367793,8.81933998 5.39905217,8.62870805 Z" id="Shape"></path>
                    <path d="M24.0618661,10.0607026 C23.7665314,9.96057156 23.5344828,9.70023095 23.5344828,9.47994275 C23.5344828,9.08943183 26.8780933,0.618348892 27.1312373,0.358008282 C27.5953347,-0.112607437 28.3969574,-0.122620537 28.8821501,0.347995182 C29.1352941,0.588309591 32.5,9.08943183 32.5,9.48995585 C32.5,9.95055846 31.6456389,10.2609646 31.2870183,9.92051916 C31.2131846,9.84041436 30.4959432,8.06809559 29.7048682,5.97535761 C28.9032454,3.88261962 28.2070994,2.04020915 28.1543611,1.87999954 C28.0699797,1.66972443 28.0172414,1.62967203 27.9539554,1.73981614 C27.9117647,1.80990784 27.205071,3.65231831 26.3823529,5.8251611 C25.5596349,7.99800389 24.8318458,9.83040126 24.7685598,9.89047986 C24.5997972,10.0506895 24.2622718,10.1307943 24.0618661,10.0607026 Z" id="Shape"></path>
                    <path d="M64.3809327,10.0416423 C63.8576559,9.86303573 63.8576559,9.86303573 63.8917827,6.10237532 L63.9259094,2.55008924 L64.2671769,1.9745792 C65.0862189,0.555649289 66.8835611,-0.158776963 69.124551,0.0297521871 C70.6147524,0.168668403 71.9570712,0.962475349 72.5372259,2.0539599 C72.7874888,2.54016665 72.7988643,2.63939252 72.8329911,6.02299463 C72.8557422,7.9281313 72.8443667,9.5852033 72.8102399,9.70427434 C72.6737329,10.1706359 71.661306,10.2004037 71.388292,9.75388728 C71.3086629,9.62489365 71.2631606,8.42426064 71.2631606,6.34051741 C71.2631606,3.62172862 71.2290338,3.05614117 71.0811513,2.64931511 C70.4213674,0.992243109 67.5433449,0.575494463 66.1668993,1.94481144 C65.5184911,2.58977959 65.4616132,2.97676047 65.4616132,6.51912397 C65.4616132,9.4363645 65.438862,9.72411952 65.2682282,9.86303573 C64.9952142,10.0714101 64.6539467,10.1408682 64.3809327,10.0416423 Z" id="Shape"></path>
                    <path d="M106.192339,9.76703552 C105.917216,9.50770877 105.432999,8.53024643 103.95834,5.19889518 C102.923877,2.86495448 102.043484,0.840211054 101.999464,0.690599471 C101.90042,0.331531671 102.252577,0.0123602933 102.769809,0.0123602933 C103.24302,0.0123602933 103.331059,0.122075454 103.925325,1.53839844 L104.387532,2.60562774 L107.039717,2.58567952 L109.691903,2.55575721 L110.209134,1.36883865 C110.495262,0.720521787 110.792395,0.151997771 110.869429,0.102127243 C111.331636,-0.167173607 112.068966,0.13204956 112.068966,0.58088431 C112.068966,0.760418209 108.437342,9.03892581 108.118199,9.5575793 C107.942121,9.85680247 107.435894,10.0862069 106.940673,10.0862069 C106.64354,10.0862069 106.456457,10.0064141 106.192339,9.76703552 Z M108.206239,6.00679773 C108.756485,4.72013811 109.196682,3.65290882 109.174672,3.63296061 C109.152662,3.6130124 108.162219,3.6130124 106.984693,3.6229865 L104.838733,3.65290882 L105.840181,5.99682362 C106.401432,7.28348324 106.896653,8.43050538 106.940673,8.54022054 L107.028712,8.73970265 L107.116752,8.54022054 C107.160771,8.43050538 107.655993,7.29345734 108.206239,6.00679773 Z" id="Shape"></path>
                    <path d="M116.335591,10.0018439 C116.199507,9.93142679 116.071429,9.77047335 116.047414,9.63969869 C116.015394,9.50892402 115.991379,7.39641015 115.991379,4.94187023 L115.991379,0.485471936 L116.191502,0.24404178 C116.41564,-0.0476863249 116.679803,-0.0778650944 116.935961,0.153505472 L117.112069,0.304399319 L117.112069,5.01228736 C117.112069,9.36808976 117.104064,9.73023499 116.975985,9.87106925 C116.751847,10.1124994 116.599754,10.1426782 116.335591,10.0018439 Z" id="Shape"></path>
                    <path d="M13.6796971,9.87439655 C13.4970367,9.67267241 13.4868889,9.42051724 13.4564455,5.35577586 C13.4361499,2.99560345 13.4564455,0.907758621 13.4868889,0.726206897 C13.5173323,0.544655172 13.6391059,0.302586207 13.7507317,0.191637931 C13.9333921,0.0100862069 14.1059047,0 16.8255151,0 C18.408572,0 19.7886728,0.0302586207 19.880003,0.0605172414 C20.1539936,0.171465517 20.2656194,0.595086207 20.082959,0.867413793 L19.930742,1.10948276 L17.4445309,1.10948276 L14.9583199,1.10948276 L14.9583199,2.87456897 L14.9583199,4.63965517 L17.1806881,4.63965517 C19.6161602,4.63965517 19.727786,4.65982759 19.727786,5.23474138 C19.727786,5.72896552 19.6466036,5.74913793 17.2212793,5.74913793 L14.9583199,5.74913793 L14.9583199,7.36293103 L14.9583199,8.97672414 L17.2923139,8.97672414 C19.4943866,8.97672414 19.6364558,8.98681034 19.829264,9.17844828 C20.0728112,9.42051724 20.0931068,9.71301724 19.8698552,9.92482759 C19.7379338,10.0660345 19.3117262,10.0862069 16.7950717,10.0862069 C13.9536877,10.0862069 13.8725053,10.0761207 13.6796971,9.87439655 Z" id="Shape"></path>
                    <path d="M77.7321278,9.97002414 C77.3603869,9.69724722 77.3275862,9.31333897 77.3275862,4.89839407 C77.3275862,0.624889057 77.3275862,0.513757721 77.5571909,0.251083654 C77.8086627,-0.0418989597 78.147603,-0.0823103546 78.5084104,0.150055166 L78.7489487,0.301597897 L78.7489487,4.09016617 C78.7489487,6.17135301 78.7817494,7.8686316 78.8364172,7.8686316 C78.8801514,7.85852875 80.0500421,6.33299859 81.4276703,4.46397158 C84.5765349,0.210672259 84.6530698,0.11974662 85.1341463,0.0389238302 C85.5277544,-0.031796111 85.9213625,0.0995409226 86.1509672,0.382420687 C86.2493692,0.503654872 86.2821699,1.68568817 86.2931034,5.15096529 C86.2931034,9.4850874 86.2821699,9.76796716 86.0962994,9.91950989 C85.833894,10.1417726 85.265349,10.1417726 85.0794786,9.91950989 C84.9592094,9.78817286 84.9154752,8.96984211 84.871741,5.94909034 L84.8170732,2.15041922 L81.9743482,5.97939889 C80.1593776,8.41418543 79.0222876,9.8588928 78.8364172,9.94981844 C78.4756098,10.1215669 77.9726661,10.1316697 77.7321278,9.97002414 Z" id="Shape"></path>
                    <path d="M89.7656448,9.8943686 C89.5815241,9.58136928 89.6275543,9.29866022 89.9037354,9.13711218 C90.1108712,9.0058544 90.5021277,8.97556414 91.7449426,8.97556414 L93.3329837,8.97556414 L93.3329837,4.73492817 L93.3329837,0.484195444 L93.6206724,0.241873388 C93.9543912,-0.0610291814 94.4031854,-0.081222686 94.7138891,0.191389627 C94.9325325,0.383227921 94.94404,0.524582453 94.94404,4.68444441 L94.94404,8.97556414 L96.5896189,8.97556414 C98.0510771,8.97556414 98.2697205,8.99575765 98.4308261,9.15730568 C98.660977,9.37943423 98.6839921,9.79340108 98.4883638,9.96504587 C98.3847959,10.0559166 97.2570565,10.0862069 94.1154968,10.0862069 C90.0533335,10.0862069 89.8807203,10.0761101 89.7656448,9.8943686 Z" id="Shape"></path>
                    <path d="M121.439024,9.97002414 C121.067283,9.69724722 121.034483,9.31333897 121.034483,4.89839407 C121.034483,0.624889057 121.034483,0.513757721 121.264087,0.251083654 C121.515559,-0.0418989597 121.8545,-0.0823103546 122.215307,0.150055166 L122.455845,0.301597897 L122.455845,4.09016617 C122.455845,6.17135301 122.488646,7.8686316 122.543314,7.8686316 C122.587048,7.85852875 123.756939,6.33299859 125.134567,4.46397158 C128.283431,0.210672259 128.359966,0.11974662 128.841043,0.0389238302 C129.234651,-0.031796111 129.628259,0.0995409226 129.857864,0.382420687 C129.956266,0.503654872 129.989066,1.68568817 130,5.15096529 C130,9.4850874 129.989066,9.76796716 129.803196,9.91950989 C129.540791,10.1417726 128.972246,10.1417726 128.786375,9.91950989 C128.666106,9.78817286 128.622372,8.96984211 128.578638,5.94909034 L128.52397,2.15041922 L125.681245,5.97939889 C123.866274,8.41418543 122.729184,9.8588928 122.543314,9.94981844 C122.182506,10.1215669 121.679563,10.1316697 121.439024,9.97002414 Z" id="Shape"></path>
                    <path d="M36.6195676,10.0645876 C36.4950473,10.0439009 36.2771367,9.89909432 36.131863,9.75428771 L35.862069,9.48536116 L35.862069,4.8515498 C35.862069,0.372888369 35.8724457,0.207395107 36.0592261,0.103961817 C36.3809036,-0.0615314458 36.775218,-0.02015813 37.0035052,0.207395107 C37.2006624,0.403918356 37.2110391,0.548724961 37.2110391,4.37575667 L37.2110391,8.32690832 L38.9231935,4.51021994 C39.8570959,2.41052417 40.7287381,0.579754948 40.8532585,0.455635001 C41.1956893,0.0936184882 41.714524,0.124648475 42.0673316,0.507351646 C42.222982,0.672844909 43.0946242,2.48292747 44.0077732,4.55159326 L45.6680442,8.285535 L45.6991742,4.33438335 C45.7303043,-0.0615314458 45.7199276,0.000528527838 46.4047894,0.000528527838 C47.0896511,0.000528527838 47.0689655,-0.154621406 47.0689655,4.8515498 C47.0689655,9.25780792 47.0585211,9.3922712 46.8613639,9.65085442 C46.384036,10.2611108 45.4812637,10.1887075 44.9728057,9.50604782 C44.827532,9.30952457 44.0077732,7.57184531 43.136131,5.6376428 C42.2644887,3.70344029 41.5277435,2.08988097 41.4862367,2.04850766 C41.44473,2.00713434 40.6457246,3.6724103 39.7118222,5.75141942 C38.0307979,9.49570449 37.7194971,10.0335576 37.2629226,10.0335576 C37.1902857,10.0335576 37.0657654,10.0542443 36.9827518,10.0749309 C36.910115,10.0956176 36.7440879,10.0852742 36.6195676,10.0645876 Z" id="Shape"></path>
                </g>
            </g>
            <rect id="Rectangle-Copy-6" x="0" y="0" width="170" height="160"></rect>
        </g>
    </g>
</svg>