<?xml version="1.0" encoding="UTF-8"?>
<svg width="170px" height="160px" viewBox="0 0 170 160" version="1.1" xmlns="http://www.w3.org/2000/svg" xmlns:xlink="http://www.w3.org/1999/xlink">
    <title>hgs</title>
    <g id="Page-1" stroke="none" stroke-width="1" fill="none" fill-rule="evenodd">
        <g id="hgs">
            <g id="High-Ground-Solutions" transform="translate(20.000000, 37.000000)" fill="#1E3248" fill-rule="nonzero">
                <g transform="translate(0.000000, 74.540970)" id="Shape">
                    <path d="M13.0661544,11.1265234 C12.5786114,10.9640091 11.9041768,10.6227289 11.7091595,10.4439631 C11.6197766,10.3545802 11.6766566,10.2651973 12.0341882,9.88328854 L12.472977,9.43637408 L13.1230344,9.75327712 C13.7243376,10.0539286 13.8218461,10.0783058 14.4719036,10.0783058 C15.2844754,10.0783058 15.6013784,9.97267149 15.9914129,9.57451132 C16.1945558,9.35511687 16.275813,9.18447679 16.332693,8.81069382 C16.3814473,8.55067083 16.4139502,8.24189354 16.4139502,8.13625922 C16.4139502,7.95749342 16.3976988,7.9493677 16.275813,8.06312775 C16.1945558,8.1281335 15.9507843,8.2662707 15.7232642,8.37190503 C15.3738583,8.54254511 15.1950925,8.56692226 14.4231493,8.56692226 C12.8548857,8.56692226 12.0179368,8.09563063 11.4735137,6.91740153 C11.2866222,6.51111563 11.2622451,6.36485271 11.2622451,5.44664658 C11.2541193,4.52031474 11.2784964,4.39030325 11.465388,3.97589164 C11.839171,3.187697 12.4811028,2.59451959 13.2449202,2.35074805 C13.4724403,2.2776166 13.9356062,2.23698801 14.4637779,2.23698801 C15.3657326,2.24511372 15.8207728,2.38325093 16.2433102,2.77328539 L16.4139502,2.93579974 L16.4139502,2.60264531 L16.4139502,2.2776166 L17.0640076,2.2776166 L17.714065,2.2776166 L17.714065,5.69854384 C17.714065,8.64005373 17.6978137,9.16822542 17.5840535,9.53388267 C17.3077791,10.3870831 16.7633561,10.8908776 15.7720185,11.2077805 C15.3007269,11.3621692 13.6024518,11.313415 13.0661544,11.1265234 Z M15.6013784,7.13679591 C16.8608647,6.46236133 16.7552304,4.22778889 15.4388641,3.5939829 C15.065081,3.41521711 13.9356062,3.40709139 13.6024518,3.57773146 C12.9848972,3.89463446 12.5136056,4.69095481 12.5136056,5.39789227 C12.5136056,5.70666956 12.7086229,6.34860127 12.8873887,6.65737855 C13.0336515,6.90927581 13.5211947,7.21805309 13.9274805,7.32368742 C14.3500178,7.43744747 15.2275954,7.33181314 15.6013784,7.13679591 Z"></path>
                    <path d="M32.6247575,9.09509394 C30.8777281,8.71318523 29.8620134,7.78685334 29.4476018,6.21046407 C29.382596,5.94231537 29.3338417,5.37351512 29.3338417,4.78033771 C29.3338417,3.31770849 29.6426189,2.40762808 30.4226879,1.56255342 C30.9021053,1.04250747 31.3165168,0.782484497 32.0722086,0.530587242 C32.6978889,0.327444294 32.811649,0.311192858 33.9004952,0.34369573 C34.8593299,0.368072884 35.1518557,0.408701473 35.5906445,0.571215831 C36.3707134,0.855615959 37.1345309,1.37566191 37.1345309,1.62755916 C37.1345309,1.69256491 36.931388,1.95258788 36.6957422,2.18823369 L36.2488276,2.62702247 L35.9237989,2.33449662 C35.517513,1.96883931 35.1843586,1.79819924 34.6155583,1.66006203 C33.4698321,1.38378762 32.2103458,1.66818775 31.544037,2.35074805 C30.967111,2.94392547 30.7152138,3.69961723 30.7152138,4.82909202 C30.7152138,5.92606394 30.9833624,6.61674996 31.6496713,7.21805309 C32.1859686,7.70559617 32.6328832,7.84373337 33.6404722,7.84373337 C34.3067811,7.83560766 34.4692954,7.8112305 34.8187013,7.62433899 C35.4850101,7.28305883 35.948176,6.73051001 36.1431933,6.04794971 C36.3544619,5.32476082 36.4194677,5.36538941 34.8593299,5.36538941 L33.4779578,5.36538941 L33.4779578,4.71533197 L33.4779578,4.06527453 L35.4687587,4.06527453 L37.4595596,4.06527453 L37.4595596,6.54361851 L37.4595596,9.02196245 L36.8907593,9.02196245 L36.3300848,9.02196245 L36.3057076,8.56692226 L36.2813305,8.11188206 L35.9969304,8.36377931 C35.2493644,9.03821391 33.7948609,9.35511687 32.6247575,9.09509394 Z"></path>
                    <path d="M45.2602488,9.07071675 C44.7077,8.91632814 44.3501684,8.72131087 43.9926368,8.38815647 C43.2369451,7.69747044 42.9850478,7.00678443 42.9850478,5.69041812 C42.9850478,4.95097779 43.0175506,4.66657767 43.1638136,4.2765432 C43.4888423,3.35021136 43.9438825,2.83016541 44.76458,2.45638239 C45.1789916,2.26136516 45.3171289,2.24511372 46.2759635,2.24511372 C47.2347983,2.24511372 47.3729354,2.26136516 47.7792213,2.44825667 C48.5917931,2.83016541 49.0712105,3.37458852 49.3962392,4.2765432 C49.6075079,4.86972061 49.631885,6.30797268 49.4531192,6.91740153 C49.1037134,8.07125347 48.3805245,8.76193952 47.1616668,9.09509394 C46.7310037,9.20885398 45.7315405,9.20072825 45.2602488,9.07071675 Z M47.0885353,7.79497907 C47.502947,7.59996183 47.87673,7.20992738 48.0798729,6.76301289 C48.2911416,6.29172125 48.2748902,4.93472635 48.0473701,4.51218902 C47.8361014,4.11402885 47.6654613,3.9108859 47.2916783,3.65898864 C47.039781,3.48022284 46.9178953,3.45584569 46.3084665,3.45584569 C45.5202718,3.45584569 45.2846259,3.54522859 44.8702143,3.97589164 C44.4395513,4.43093184 44.3420427,4.7315834 44.333917,5.64978953 C44.333917,6.55174422 44.4883056,7.00678443 44.9189687,7.42119604 C45.4958947,7.97374486 46.3897236,8.1281335 47.0885353,7.79497907 Z"></path>
                    <path d="M52.370252,9.07071675 C51.7852003,8.89195095 51.5820574,8.7781909 51.2732801,8.45316221 C50.6638512,7.80310478 50.6638512,7.82748193 50.6394741,4.90222348 L50.6150969,2.2776166 L51.2651543,2.2776166 L51.9152118,2.2776166 L51.9395889,4.70720625 L51.9639661,7.13679591 L52.2077376,7.44557319 C52.5246406,7.83560766 52.947178,7.98187057 53.6297382,7.9493677 C54.2635442,7.91686483 54.7023331,7.71372189 55.0436132,7.28305883 L55.2955105,6.97428155 L55.3198876,4.62594908 L55.3442648,2.2776166 L56.0268251,2.2776166 L56.7175111,2.2776166 L56.7175111,5.64978953 L56.7175111,9.02196245 L56.0268251,9.02196245 L55.336139,9.02196245 L55.336139,8.7781909 C55.336139,8.64817944 55.3198876,8.53441939 55.2955105,8.53441939 C55.2711333,8.53441939 55.108619,8.63192801 54.9379789,8.74568806 C54.7592131,8.85944811 54.4504358,9.00571099 54.2310414,9.07071675 C53.7841269,9.20072825 52.8334179,9.20072825 52.370252,9.07071675 Z"></path>
                    <path d="M67.5897216,9.06259102 C66.6796412,8.81069382 65.9483267,8.1281335 65.6151722,7.22617881 C65.5420408,7.02303586 65.4607836,6.47861276 65.4364064,5.97481825 C65.363275,4.57719477 65.6720522,3.62648577 66.4033669,2.96830262 C66.9884186,2.44825667 67.4272073,2.26949087 68.2966591,2.22073657 C68.8817108,2.18010798 69.1498595,2.20448513 69.5236425,2.31824519 C69.9868084,2.46450811 70.4255972,2.70015393 70.547483,2.88704544 C70.5799859,2.92767403 70.6124887,2.31824519 70.6124887,1.53005055 L70.6124887,0.0836727566 L71.2625462,0.0836727566 L71.9126036,0.0836727566 L71.9126036,4.55281761 L71.9126036,9.02196245 L71.2625462,9.02196245 L70.6124887,9.02196245 L70.6124887,8.77006525 C70.6124887,8.51816796 70.604363,8.51816796 70.4337229,8.64817944 C70.1574485,8.83507092 69.7999169,8.99758535 69.4342596,9.09509394 C69.0035966,9.20885398 68.0610133,9.19260252 67.5897216,9.06259102 Z M69.3448767,7.86811052 C69.8567969,7.71372189 70.4012201,7.1286702 70.5637344,6.56799565 C70.8318831,5.6335381 70.6206144,4.455309 70.0924428,3.94338877 C69.6780311,3.54522859 69.4342596,3.45584569 68.7435736,3.45584569 C68.158522,3.45584569 67.9960075,3.48834857 67.7116074,3.65086292 C66.7527727,4.20341174 66.4114926,5.90981251 67.0371728,7.07179016 C67.4190816,7.79497907 68.4266706,8.13625922 69.3448767,7.86811052 Z"></path>
                    <path d="M78.4538065,9.06259102 C77.8525034,8.94070533 77.2755774,8.73756233 76.8774172,8.51816796 C76.4386285,8.27439642 75.8129482,7.77872762 75.8129482,7.68121901 C75.8129482,7.55933324 76.6498971,6.74676145 76.7799086,6.74676145 C76.8692915,6.74676145 77.0480573,6.86864722 77.5030975,7.24243024 C77.5599775,7.29118455 77.8525034,7.44557319 78.153155,7.5837104 C78.6732009,7.82748193 78.7463324,7.83560766 79.6726642,7.82748193 C80.7696361,7.82748193 81.1109163,7.72997332 81.549705,7.32368742 C82.0291224,6.86864722 81.9072366,6.25109266 81.2409278,5.8204296 C81.0296591,5.6822924 80.802139,5.60916094 79.5507784,5.2760065 C79.217624,5.18662361 78.8357152,5.08098928 78.6975781,5.04036069 C78.2262864,4.91847492 77.6412347,4.69095481 77.2512003,4.49593759 C76.3898741,4.06527453 76.0567197,3.56148002 76.0567197,2.68390249 C76.0567197,2.01759362 76.2354855,1.61130773 76.7311544,1.16439324 C77.3974632,0.546838678 78.1612807,0.327444294 79.5832813,0.327444294 C80.4527331,0.327444294 80.6721275,0.359947166 81.2246763,0.53871296 C81.9722424,0.790610215 83.0448372,1.4650448 83.0448372,1.68443918 C83.0448372,1.72506777 82.8254427,1.96883931 82.5572941,2.23698801 L82.0778767,2.70827965 L81.7203451,2.38325093 C81.5172022,2.19635942 81.2409278,1.98509075 81.0946648,1.91195929 C79.5995327,1.14001608 77.2512003,1.70069062 77.4705947,2.78141111 C77.5356004,3.11456554 77.6412347,3.187697 78.5350637,3.58585718 C78.6244466,3.62648577 78.9169725,3.71586867 79.1851211,3.78900013 C79.4532699,3.86213159 79.7864243,3.94338877 79.9164358,3.98401735 C80.0545729,4.02464594 80.4527331,4.13028028 80.8102647,4.22778889 C81.6553394,4.455309 82.1916367,4.72345769 82.6222998,5.14599502 C83.13422,5.64166381 83.2479801,5.93418966 83.2398544,6.70613286 C83.2317286,7.21805309 83.1911001,7.42932176 83.0529628,7.68121901 C82.6873056,8.33127645 81.8747338,8.86757384 80.9077733,9.07071675 C80.2902188,9.20072825 79.1119896,9.20072825 78.4538065,9.06259102 Z"></path>
                    <path d="M86.2057414,9.06259102 C85.5638097,8.8838253 85.2550324,8.69693377 84.7674894,8.17688781 C84.1336834,7.4943275 83.9386661,6.90927581 83.9386661,5.64978953 C83.9386661,4.71533197 84.0930547,4.06527453 84.4505863,3.53710287 C84.7349864,3.12269126 85.2631581,2.66765106 85.726324,2.44825667 C86.1326099,2.26136516 86.2626214,2.24511372 87.2295815,2.24511372 C88.1965422,2.24511372 88.3265542,2.26136516 88.740965,2.45638239 C89.9760741,3.02518264 90.5123718,3.99214308 90.5204978,5.64978953 C90.5204978,6.92552725 90.3092294,7.56745896 89.6754231,8.22564211 C89.0497429,8.87569957 88.2371708,9.19260252 87.1889537,9.17635115 C86.8557984,9.16822542 86.4088843,9.11947104 86.2057414,9.06259102 Z M87.9283938,7.84373337 C88.6840851,7.51870465 89.0091143,7.09616732 89.1553767,6.26734409 C89.3503939,5.12974359 89.0334917,4.1871603 88.3021768,3.68336579 C87.9933998,3.47209713 87.8958903,3.45584569 87.2295815,3.45584569 C86.563273,3.45584569 86.4657644,3.48022284 86.1651128,3.68336579 C85.4906782,4.138406 85.2794096,4.63407479 85.2875353,5.69041812 C85.2875353,6.54361851 85.4500496,7.02303586 85.872587,7.42119604 C86.4007587,7.93311627 87.3027136,8.12000778 87.9283938,7.84373337 Z"></path>
                    <path d="M96.1678716,9.07071675 C95.1684083,8.77006525 94.7052428,8.30689929 94.4614709,7.35619029 C94.3639623,7.00678443 94.3395849,6.35672699 94.3395849,4.5934462 L94.3395849,2.2776166 L95.0302711,2.2776166 L95.7209573,2.2776166 L95.7209573,4.63407479 C95.7209573,7.16117307 95.7290825,7.24243024 96.1434942,7.60808755 C96.4278948,7.87623624 96.8991864,7.98999629 97.4761119,7.94124198 C98.1342955,7.89248768 98.6462158,7.59996183 98.9306155,7.12054448 L99.1337587,6.7711386 L99.1337587,4.52844046 L99.1337587,2.2776166 L99.8244449,2.2776166 L100.51513,2.2776166 L100.51513,5.64978953 L100.51513,9.02196245 L99.8244449,9.02196245 L99.1337587,9.02196245 L99.1337587,8.7781909 C99.1337587,8.64817944 99.1175074,8.53441939 99.0931301,8.53441939 C99.0687527,8.53441939 98.9143642,8.62380229 98.7437244,8.73756233 C98.1099181,9.15197396 96.9641916,9.30636257 96.1678716,9.07071675 Z"></path>
                    <path d="M103.22912,9.01383672 C103.001601,8.9325796 102.700949,8.73756233 102.562811,8.5831737 C102.107771,8.07937919 102.059017,7.77872762 102.059017,5.52790376 L102.059017,3.49647428 L101.652732,3.49647428 L101.246445,3.49647428 L101.246445,2.88704544 L101.246445,2.2776166 L101.652732,2.2776166 L102.050891,2.2776166 L102.075269,1.70069062 L102.099646,1.12376465 L102.700949,0.806861651 C103.034103,0.636221575 103.318504,0.489958652 103.334755,0.489958652 C103.34288,0.489958652 103.359132,0.896244546 103.359132,1.38378762 L103.359132,2.2776166 L104.374847,2.2776166 L105.390561,2.2776166 L105.390561,2.88704544 L105.390561,3.49647428 L104.374847,3.49647428 L103.359132,3.49647428 L103.359132,5.39789227 C103.359132,7.38869317 103.391635,7.5837104 103.732915,7.84373337 C103.992938,8.0387506 104.431727,7.98999629 104.846138,7.7218476 C105.057407,7.59183612 105.26055,7.47807606 105.293053,7.47807606 C105.382435,7.47807606 106.121876,8.24189354 106.121876,8.33127645 C106.121876,8.42065935 105.626207,8.77006525 105.309304,8.91632814 C104.618618,9.23323117 103.879178,9.26573401 103.22912,9.01383672 Z"></path>
                    <path d="M111.444222,9.07071675 C110.834793,8.91632814 110.420381,8.67255658 110.005969,8.22564211 C109.372163,7.55120753 109.128392,6.81989291 109.128392,5.61728666 C109.128392,4.13028028 109.705317,3.09018839 110.842918,2.5051367 C111.346713,2.25323944 111.395467,2.24511372 112.33805,2.23698801 C113.418771,2.23698801 113.833182,2.33449662 114.385731,2.70015393 C115.092669,3.17144557 115.515206,3.83775444 115.718349,4.80471487 C115.929617,5.80417817 115.67772,7.19367593 115.149549,7.92499055 C114.840772,8.36377931 114.239468,8.81069382 113.727548,8.98133389 C113.199376,9.16009969 111.980518,9.20885398 111.444222,9.07071675 Z M113.321262,7.77060191 C114.036326,7.43744747 114.410109,6.71425858 114.410109,5.66604097 C114.410109,4.64220051 114.044451,3.93526305 113.321262,3.57773146 C112.988108,3.40709139 111.842381,3.41521711 111.525478,3.5939829 C110.997306,3.87838303 110.721032,4.26029177 110.542267,4.92660064 C110.209113,6.21046407 110.753535,7.51057894 111.76925,7.86811052 C112.208039,8.02249916 112.874348,7.98187057 113.321262,7.77060191 Z"></path>
                    <path d="M126.021759,9.07071675 C125.209187,8.84319665 124.071587,8.17688781 124.079669,7.93311627 C124.087838,7.88436196 124.282855,7.64871614 124.518501,7.4049446 L124.95729,6.95803012 L125.274193,7.22617881 C125.729234,7.60808755 125.761736,7.62433899 126.379291,7.87623624 C126.671817,7.98999629 127.622525,7.98187057 127.947555,7.8599848 C128.402595,7.68934473 128.630115,7.46182463 128.630115,7.18555022 C128.630115,6.80364148 128.35384,6.62487568 127.370628,6.34860127 C125.973005,5.95856682 125.192936,5.65791525 124.851655,5.38164084 C123.900947,4.5934462 124.136593,3.13081698 125.322947,2.53763957 C126.192399,2.0988508 127.793166,2.08259937 128.695121,2.49701098 C129.044526,2.65139962 129.848972,3.24457703 129.848972,3.34208564 C129.848972,3.37458852 129.662081,3.61023433 129.426435,3.85400587 L129.012024,4.30092036 L128.678869,4.04089739 C128.491977,3.89463446 128.329463,3.75649726 128.305086,3.7321201 C128.280709,3.69961723 128.085692,3.61836005 127.874422,3.54522859 C127.151234,3.30145705 126.184274,3.41521711 125.818616,3.78087441 C125.420457,4.17903459 125.664228,4.48781187 126.598685,4.76408628 C126.842457,4.83721774 127.134982,4.92660064 127.248742,4.95910351 C127.362503,4.99160638 127.720034,5.10536643 128.053188,5.20287505 C129.393932,5.60916094 129.938355,6.11295545 129.995235,7.01491014 C130.060241,8.04687632 129.458938,8.75381379 128.264458,9.07071675 C127.760663,9.20885398 126.517428,9.20072825 126.021759,9.07071675 Z"></path>
                    <polygon points="0 4.71533197 0 0.408701473 0.650057434 0.408701473 1.30011487 0.408701473 1.30011487 2.2776166 1.30011487 4.14653171 3.65657307 4.14653171 6.01303126 4.14653171 6.01303126 2.2776166 6.01303126 0.408701473 6.6630887 0.408701473 7.31314613 0.408701473 7.31314613 4.71533197 7.31314613 9.02196245 6.6630887 9.02196245 6.01303126 9.02196245 6.01303126 7.19367593 6.01303126 5.36538941 3.65657307 5.36538941 1.30011487 5.36538941 1.30011487 7.19367593 1.30011487 9.02196245 0.650057434 9.02196245 0 9.02196245"></polygon>
                    <polygon points="8.85703252 5.64978953 8.85703252 2.2776166 9.50708997 2.2776166 10.1571474 2.2776166 10.1571474 5.64978953 10.1571474 9.02196245 9.50708997 9.02196245 8.85703252 9.02196245"></polygon>
                    <path d="M19.1766943,4.55281761 L19.1766943,0.0836727566 L19.8267517,0.0836727566 L20.4768092,0.0836727566 L20.4930606,1.51379911 L20.5174378,2.93579974 L20.6962036,2.76515967 C21.1268666,2.36699949 21.5900325,2.24511372 22.6301244,2.24511372 C23.7595992,2.24511372 24.1333822,2.37512521 24.7346853,2.96830262 C25.3116113,3.55335431 25.3522399,3.78087441 25.3522399,6.59237281 L25.3522399,9.02196245 L24.7021825,9.02196245 L24.0521251,9.02196245 L24.0521251,6.74676145 C24.0521251,4.31717179 24.0358736,4.20341174 23.6377134,3.80525156 C23.2639304,3.43959425 22.3863529,3.30145705 21.663164,3.5046 C21.2568781,3.61836005 20.7043293,4.17090887 20.5743178,4.60157192 C20.509312,4.82909202 20.4768092,5.60103522 20.4768092,6.98240727 L20.4768092,9.02196245 L19.8267517,9.02196245 L19.1766943,9.02196245 L19.1766943,4.55281761 Z"></path>
                    <path d="M38.9221888,5.64978953 L38.9221888,2.2776166 L39.5722463,2.2776166 L40.2223037,2.2776166 L40.2223037,2.74078252 L40.2223037,3.20394844 L40.5067038,2.91142259 C40.8886126,2.52138813 41.3924071,2.29386803 42.0424645,2.22886228 L42.5787619,2.17198226 L42.5787619,2.86266829 L42.5787619,3.55335431 L42.0180874,3.60210861 C41.42491,3.65086292 41.221767,3.7321201 40.847984,4.06527453 C40.327938,4.52844046 40.2223037,5.04848641 40.2223037,7.21805309 L40.2223037,9.02196245 L39.5722463,9.02196245 L38.9221888,9.02196245 L38.9221888,5.64978953 Z"></path>
                    <path d="M58.1801403,5.64978953 L58.1801403,2.2776166 L58.822072,2.2776166 L59.4721294,2.2776166 L59.4965066,2.61077103 C59.5208838,2.93579974 59.5208838,2.93579974 59.6833981,2.78953683 C59.772781,2.70827965 60.032804,2.54576529 60.2521984,2.44013095 C60.60973,2.26136516 60.7641186,2.23698801 61.5929418,2.24511372 C62.4298907,2.24511372 62.5761537,2.26136516 62.9905653,2.45638239 C63.5674913,2.72453108 64.0306572,3.19582272 64.2175488,3.70774295 C64.3394345,4.05714882 64.3556859,4.43093184 64.3556859,6.56799565 L64.3556859,9.02196245 L63.7056285,9.02196245 L63.0555711,9.02196245 L63.0555711,6.75488717 C63.0555711,4.22778889 63.0311939,4.07340026 62.5355251,3.69961723 C62.308005,3.52897716 62.1292392,3.47209713 61.6579476,3.43959425 C60.8453758,3.38271423 60.4147127,3.5046 60.0084268,3.93526305 C59.5208838,4.43905756 59.4802551,4.65845195 59.4802551,6.98240727 L59.4802551,9.02196245 L58.8301978,9.02196245 L58.1801403,9.02196245 L58.1801403,5.64978953 Z"></path>
                    <polygon points="91.6580983 4.55281761 91.6580983 0.0836727566 92.3081559 0.0836727566 92.9582134 0.0836727566 92.9582134 4.55281761 92.9582134 9.02196245 92.3081559 9.02196245 91.6580983 9.02196245"></polygon>
                    <polygon points="106.771934 5.64978953 106.771934 2.2776166 107.421991 2.2776166 108.072048 2.2776166 108.072048 5.64978953 108.072048 9.02196245 107.421991 9.02196245 106.771934 9.02196245"></polygon>
                    <path d="M116.847823,5.64978953 L116.847823,2.2776166 L117.53851,2.2776166 L118.229196,2.2776166 L118.229196,2.56201672 L118.229196,2.84641685 L118.781745,2.53763957 C119.326168,2.23698801 119.326168,2.23698801 120.301253,2.23698801 C121.268214,2.23698801 121.284465,2.23698801 121.804512,2.52951385 C122.373312,2.83829113 122.787724,3.30145705 122.958364,3.80525156 C123.02337,4.00839451 123.063998,4.90222348 123.08025,6.56799565 L123.112752,9.02196245 L122.422066,9.02196245 L121.723255,9.02196245 L121.723255,6.74676145 C121.723255,4.30904607 121.690752,4.06527453 121.300717,3.7321201 C121.032568,3.49647428 120.520648,3.39083995 119.886842,3.43959425 C119.18803,3.48834857 118.73299,3.74837154 118.424213,4.26841748 C118.229196,4.60969763 118.229196,4.61782336 118.229196,6.81176719 L118.229196,9.02196245 L117.53851,9.02196245 L116.847823,9.02196245 L116.847823,5.64978953 Z"></path>
                    <path d="M9.14143264,1.61130773 C8.72702101,1.38378762 8.5726324,0.847490241 8.78390104,0.38432432 C8.9789183,-0.0463387304 9.67773005,-0.135721628 10.0271359,0.221809961 C10.2221532,0.408701473 10.2465303,0.489958652 10.2221532,0.888118833 C10.197776,1.29440473 10.1733988,1.35128475 9.9215016,1.52192483 C9.62085002,1.72506777 9.39332993,1.74944493 9.14143264,1.61130773 Z"></path>
                    <path d="M106.999453,1.57880485 C106.715054,1.43254193 106.609419,1.22939898 106.609419,0.863741677 C106.609419,0.286815704 106.893819,0.00241557716 107.454494,0.00241557716 C107.641385,0.00241557716 107.795774,0.0755470384 107.942037,0.221809961 C108.137054,0.408701473 108.161431,0.489958652 108.137054,0.888118833 C108.112677,1.29440473 108.0883,1.35128475 107.836402,1.52192483 C107.5195,1.7331935 107.308231,1.74944493 106.999453,1.57880485 Z"></path>
                </g>
                <path d="M13.0003361,71.9933369 C13.0003361,71.9229925 48.3483976,1.26204184 48.3835697,1.26204184 C48.4046731,1.26204184 50.289903,4.99732952 52.5690615,9.56268115 C54.8482201,14.1280327 56.7334501,17.856286 56.7545535,17.8422171 C56.7756567,17.8351827 56.98669,17.7507694 57.2188265,17.6663562 L57.6479273,17.4975295 L57.690134,16.1539515 C57.7112373,15.2183709 57.7745473,14.5289959 57.8800639,13.924034 C58.5624045,10.0550919 60.6516333,6.4323553 63.6764424,3.8718191 C66.1455309,1.7825904 69.311029,0.439012343 72.6453536,0.0591525779 C73.7356918,-0.0604329037 76.2751247,0.00991149724 77.2951185,0.192806939 C79.4054505,0.572666704 81.2062672,1.24093851 82.9789461,2.29610452 C85.2018291,3.61857926 87.3543674,5.74298017 88.7190491,7.9588288 L89.0567025,8.50751512 L89.352149,8.4512396 C89.5069067,8.42310184 90.3721423,8.40199852 91.2584819,8.40903296 C92.7357144,8.40903296 92.953782,8.43013628 93.7627427,8.59896284 C96.9634133,9.27426912 99.6787068,11.0750857 101.578006,13.7833452 C101.957865,14.3249971 102.823102,15.9640216 103.013031,16.4986391 L103.09041,16.7167067 L104.208886,16.7589134 C105.468051,16.80112 106.255908,16.9207055 107.332178,17.2372553 C111.827185,18.5456611 115.126337,22.0980534 116.174468,26.7618871 C116.322192,27.4090556 116.357364,27.7889154 116.385502,29.0480802 C116.420674,30.3635204 116.406605,30.6660014 116.279985,31.4046176 C115.78054,34.2817036 114.563582,36.5749311 112.481388,38.5516087 C110.722777,40.218771 108.68279,41.2880059 106.277012,41.7944856 C105.714257,41.9140711 105.249984,41.9422088 103.308478,41.9703466 L101.008216,42.0055188 L108.49286,56.9818417 C112.615042,65.2191711 115.984539,71.9722336 115.984539,71.9933369 C115.984539,72.0144402 114.570616,72.0214747 112.840144,72.0144402 L109.688715,71.9933369 L101.599109,55.835228 C97.153343,46.9507302 93.4883992,39.6560158 93.4602621,39.6349125 C93.4039863,39.578637 88.6205672,49.1103033 88.6205672,49.2720954 C88.6205672,49.3283709 91.1529651,54.4424088 94.2481189,60.6327161 C97.3432727,66.8230234 99.8756714,71.915958 99.8756714,71.9581647 C99.8756714,72.0074058 98.7994022,72.0285091 96.7805176,72.0285091 L93.6853638,72.0285091 L83.0141182,50.6789834 C77.1403608,38.9385029 72.3217693,29.3294577 72.300666,29.3294577 C72.2795627,29.3294577 71.1540523,31.5453064 69.8034397,34.2535658 L67.3413857,39.1776739 L75.5224396,55.546816 C80.0244812,64.5579337 83.7034934,71.9440958 83.6964589,71.979268 C83.6964589,72.0074058 82.2966053,72.0214747 80.5872364,72.0144402 L77.4709795,71.9933369 L62.9448607,42.9622026 C54.9537368,26.9869892 48.4046731,13.924034 48.3835697,13.924034 C48.3624664,13.924034 41.8134027,26.9869892 33.8222787,42.9622026 L19.29616,71.9933369 L16.1517653,72.0144402 C14.4142585,72.0214747 13.0003361,72.0144402 13.0003361,71.9933369 Z M89.4365619,34.9218376 C91.6242732,30.5253126 93.4321242,26.9447826 93.4602621,26.9658859 C93.4883992,26.9799548 94.7123921,29.4068366 96.1825897,32.3472326 L98.8556772,37.7004415 L101.563937,37.7004415 C104.630953,37.7004415 105.193708,37.644166 106.396597,37.2432029 C107.30404,36.940722 107.965277,36.5960343 108.68279,36.0684514 C112.734628,33.0647454 113.26221,27.303539 109.815335,23.6948712 C108.345137,22.1613634 106.389563,21.2187483 104.448057,21.1202662 C103.843095,21.085094 101.71166,21.2046795 100.361048,21.3383338 L100.114842,21.3664716 L99.8897404,20.7544753 C99.7701546,20.4238567 99.4887771,19.6430338 99.2777435,19.0240031 C99.0596759,18.4049723 98.7360914,17.6100806 98.5672656,17.2583585 C97.4558235,15.0143722 95.1907342,13.2909343 92.7216454,12.8266613 C91.757927,12.6508003 90.3369704,12.7211447 88.6557392,13.0306601 C87.9241574,13.1713489 87.1925756,13.2979688 87.0378179,13.3261066 L86.7564403,13.3683132 L86.0529964,12.0810107 C84.8993482,9.97771306 84.2451453,9.04213261 83.1759104,7.97993211 C82.6623962,7.46641799 81.9659867,6.86145614 81.6001958,6.6082163 C79.0115218,4.79333076 75.9304371,4.00547347 72.954869,4.39236767 C71.4635677,4.589332 70.2747473,4.94808844 68.9874447,5.59525692 C65.5194658,7.32572918 63.0433429,10.519365 62.2273478,14.3038938 C62.0936935,14.91589 62.0725901,15.2465087 62.0725901,16.6674656 C62.0655557,17.5749084 62.0796246,18.8270387 62.1007279,19.439035 L62.1359001,20.5645454 L61.0455619,20.9373707 C59.272883,21.5423326 58.7241967,21.7604002 58.7311645,21.8377791 C58.7311645,21.8729513 59.9622581,24.3631431 61.4605938,27.3598145 L64.1969911,32.8115056 L68.2277252,24.7359684 C70.4506083,20.2972367 72.2795627,16.6674656 72.300666,16.6674656 C72.3358382,16.6674656 78.4346978,28.8792536 83.3165991,38.7415386 C84.4561785,41.0277317 85.4058279,42.9059271 85.4269312,42.9059271 C85.4480345,42.9059271 87.2558855,39.3113282 89.4365619,34.9218376 Z" id="HGS-Logo"></path>
            </g>
            <rect id="Rectangle-Copy-2" x="0" y="0" width="170" height="160"></rect>
        </g>
    </g>
</svg>