<?xml version="1.0" encoding="UTF-8"?>
<svg width="170px" height="160px" viewBox="0 0 170 160" version="1.1" xmlns="http://www.w3.org/2000/svg" xmlns:xlink="http://www.w3.org/1999/xlink">
    <title>mb</title>
    <g id="Page-1" stroke="none" stroke-width="1" fill="none" fill-rule="evenodd">
        <g id="mb">
            <g transform="translate(10.000000, 30.000000)">
                <rect id="Rectangle-2" stroke="#979797" stroke-width="0.001" x="0" y="0" width="149.999" height="99.999"></rect>
                <g id="Ministry-Brands" transform="translate(3.167543, 19.999500)" fill-rule="nonzero">
                    <g id="Brands" transform="translate(41.611618, 40.053314)" fill="#404041">
                        <path d="M26.6993739,19.2607428 C25.7765262,18.9317157 25.1570805,18.4002103 24.7399028,17.5776424 C24.0193231,16.134985 24.1836659,14.3633003 25.1444388,13.2749798 C26.2316292,12.0221457 27.8244896,11.5286049 31.0734191,11.4273658 L33.2477999,11.3514365 L33.2477999,10.8958604 C33.2351582,10.022673 32.9949649,8.7192193 32.7294882,8.20036881 C31.831924,6.45399397 29.5311257,6.25151573 26.2821962,7.64355364 C26.143137,7.70682809 26.0293612,7.60558897 25.8776602,7.27656183 C25.7638845,7.02346402 25.6627505,6.75771133 25.6627505,6.6691271 C25.6627505,6.52992331 26.3959719,6.20089617 27.6222216,5.79593968 C27.9382653,5.69470056 28.7852625,5.63142611 29.9103782,5.63142611 C31.629656,5.63142611 31.7055065,5.644081 32.4260862,6.01107281 C33.2983669,6.45399397 33.8925291,7.1753227 34.2212146,8.13709435 C34.4108408,8.70656441 34.4361243,9.50382249 34.4866913,14.0216183 L34.5246166,19.2480879 L33.9810214,19.2101233 L33.4374261,19.1721586 L33.3236504,18.2863163 C33.2604417,17.8054305 33.1972329,17.3751642 33.1719494,17.3498544 C33.1466659,17.3245446 32.7800552,17.6156071 32.3628775,18.0205636 C31.2251201,19.1088841 30.4666151,19.4126015 28.759979,19.4505662 C27.6475051,19.4885308 27.2303274,19.4505662 26.6993739,19.2607428 Z M30.3022724,18.0205636 C31.2756871,17.7548109 32.135326,17.0081724 32.6283542,15.9957812 C33.0076067,15.2238329 33.0581737,15.0086997 33.1087407,13.8064852 L33.1466659,12.4903766 L31.2756871,12.5663059 C29.316216,12.6548902 27.7612808,12.9459526 27.0154176,13.3762189 C26.042003,13.945689 25.5616165,15.1605584 25.8144515,16.362773 C26.1684205,18.0332185 27.9129818,18.6786179 30.3022724,18.0205636 Z" id="Shape"></path>
                        <path d="M56.8499453,19.3619819 C55.7121879,19.0709195 54.7387732,18.3749005 54.0181935,17.3245446 C52.6528847,15.3377269 52.4759002,10.9338251 53.6642246,8.41550194 C54.6755645,6.2894804 56.9510793,5.17585006 59.5299961,5.55549677 C60.7815293,5.74532012 61.6664517,6.18824128 62.4123149,7.01080913 L63.0191188,7.66886342 L62.9811936,3.83443171 L62.9306266,0 L63.6385645,0 L64.3465025,0 L64.3465025,9.6177165 L64.3465025,19.235433 L63.8534743,19.235433 C63.3604461,19.235433 63.3604461,19.235433 63.2845956,18.6406532 C63.0949693,17.2359604 63.1581781,17.2739251 62.3870314,18.0585283 C61.9951372,18.438175 61.3756915,18.893751 60.9711555,19.0835744 C60.3264263,19.3746368 60.0609496,19.4252564 58.7841329,19.4505662 C57.9877027,19.4632211 57.1154221,19.4252564 56.8499453,19.3619819 Z M59.6058466,18.2103869 C62.1341964,17.742156 63.0823276,15.9704714 62.9179849,12.0221457 C62.8042091,9.17479535 62.2353304,7.89665144 60.7688875,7.21328738 C58.9990427,6.39071952 56.7488113,6.69443688 55.7121879,7.89665144 C54.5744305,9.22541491 54.094044,11.3767463 54.3721625,13.8697596 C54.650281,16.4133925 55.6489792,17.7801207 57.5073163,18.1724223 C58.430164,18.3749005 58.7082824,18.3749005 59.6058466,18.2103869 Z" id="Shape"></path>
                        <path d="M69.4537691,19.3619819 C69.0871584,19.2987075 68.5182797,19.1341939 68.1895942,18.9949901 L67.5701485,18.7545472 L67.5322232,18.0332185 C67.4816563,17.1979957 67.3552388,17.2233055 68.8975321,17.7927756 C69.7698128,18.1218027 69.9973643,18.1471125 71.7545674,18.1471125 C73.6255463,18.1597674 73.6634715,18.1597674 74.396693,17.7801207 C75.3321824,17.2992348 75.7240766,16.7677295 75.7240766,15.9578165 C75.7240766,14.6923275 74.8897212,13.945689 72.3740131,12.9712624 C69.3020681,11.7690479 68.1643107,10.9211702 67.8861922,9.57975183 C67.5195815,7.75744765 68.5435632,6.26417062 70.5536013,5.73266523 C72.1085364,5.32770875 74.9655717,5.54284188 76.4446563,6.16293149 C76.7733418,6.30213529 76.861834,6.39071952 76.7986253,6.55523309 C76.7480583,6.6691271 76.6469243,6.9222249 76.5837155,7.12470314 C76.5205068,7.3145265 76.4067311,7.46638518 76.3435223,7.46638518 C76.2803136,7.46638518 75.7367184,7.3145265 75.1299144,7.13735803 C73.688755,6.69443688 71.7040004,6.64381732 70.7305857,7.01080913 C69.6054701,7.42842051 69.0618749,8.14974924 69.2009341,9.02293666 C69.3779186,10.1112573 70.11114,10.6680724 72.6015646,11.6551539 C75.3827494,12.7308195 76.1412543,13.1990504 76.710133,14.1608221 C77.0008933,14.6670177 77.0514603,14.8821508 77.0514603,15.7553383 C77.0514603,16.9955175 76.6974913,17.8054305 75.8757776,18.438175 C74.8770794,19.1974684 74.1185745,19.3999466 71.9947606,19.4379113 C70.9581372,19.4632211 69.8077381,19.4252564 69.4537691,19.3619819 Z" id="Shape"></path>
                        <g id="Reserved" transform="translate(78.702500, 3.109674)">
                            <path d="M2.15372587,6.30659606 C1.31457529,5.9902238 0.519016946,5.22656664 0.170279042,4.39745315 C-0.0803763258,3.79743681 -0.0476821473,2.55376657 0.22476934,1.92102206 C0.529915006,1.23373062 1.41265783,0.393707744 2.05564334,0.175519983 C2.84030362,-0.0863053303 3.88651733,-0.0535771662 4.57309508,0.262795087 C7.02515847,1.40828083 7.07964877,4.88837561 4.66027956,6.14295524 C4.14807076,6.40478055 2.67683273,6.50296504 2.15372587,6.30659606 Z M4.38782807,5.67385155 C6.09882341,4.80110051 6.45845937,2.59740412 5.1071,1.28827756 C3.76663868,-0.020849002 1.79408991,0.284613863 0.813264553,1.94284084 C0.573507244,2.36830697 0.519016946,2.58649473 0.519016946,3.21923924 C0.519016946,3.85198375 0.573507244,4.07017151 0.813264553,4.49563764 C1.58702678,5.80476421 3.13455123,6.31750544 4.38782807,5.67385155 Z" id="Shape"></path>
                            <path d="M2.09923558,3.21923924 L2.09923558,1.31009633 L2.9274881,1.31009633 C3.69035226,1.31009633 3.77753674,1.33191511 4.07178434,1.62646859 C4.49680866,2.05193472 4.50770672,2.67376984 4.11537658,3.15378291 L3.83202704,3.48106455 L4.32243971,4.27744988 C4.76926015,5.00837888 4.79105627,5.07383521 4.5948912,5.10656337 C4.22435718,5.1720197 4.10447852,5.06292582 3.69035226,4.32108743 C3.3307163,3.68834293 3.24353182,3.60106782 2.97108034,3.60106782 L2.64413855,3.60106782 L2.64413855,4.36472499 C2.64413855,5.10656337 2.63324049,5.12838215 2.37168706,5.12838215 L2.09923558,5.12838215 L2.09923558,3.21923924 Z M3.62496391,2.94650454 C4.12627464,2.44467269 3.75574062,1.74647186 3.00377451,1.74647186 L2.64413855,1.74647186 L2.64413855,2.45558208 L2.64413855,3.1646923 L3.02557063,3.1646923 C3.26532794,3.1646923 3.49418719,3.0774172 3.62496391,2.94650454 Z" id="Shape"></path>
                        </g>
                        <path d="M0,10.1998415 L0,1.13894011 L3.274213,1.13894011 C7.52184066,1.13894011 8.76073207,1.36672814 10.0628322,2.35380957 C11.6936178,3.60664369 12.0096616,6.74505644 10.6443527,8.25098837 C10.0628322,8.89638776 9.44338652,9.28868936 8.64695633,9.52913227 C8.00222713,9.73161051 8.01486888,9.7442654 9.0262088,10.0100181 C9.35489427,10.0986024 9.92377298,10.3643551 10.2903837,10.5921431 C11.4660664,11.3767463 11.9085276,12.325863 11.9211693,14.1102025 C11.9211693,16.0084361 11.3649324,17.1473762 9.98698172,18.1344576 C8.64695633,19.0709195 8.15392812,19.1595037 3.83044995,19.2101233 L0,19.2480879 L0,10.1998415 Z M7.83788439,17.742156 C9.30432728,17.2612702 10.1386827,16.3121534 10.3788759,14.8441862 C10.6443527,13.3255993 10.1133992,11.9082517 9.06413404,11.2628523 C8.02751063,10.6174529 7.18051344,10.4655942 4.20970242,10.4023197 L1.39059239,10.3517002 L1.39059239,14.2367514 L1.39059239,18.1344576 L4.20970242,18.0585283 C6.59899299,18.0079087 7.14258819,17.9572891 7.83788439,17.742156 Z M7.98958538,8.75718397 C8.96300005,8.36488238 9.32961077,8.04851012 9.68357975,7.28921672 C10.3156672,5.92248858 9.94905648,4.01160017 8.92507481,3.31558122 C7.83788439,2.5689427 7.35749793,2.48035847 4.27291117,2.42973891 L1.39059239,2.37911935 L1.39059239,5.75797501 L1.39059239,9.13683067 L4.33611991,9.08621111 C7.00352896,9.03559155 7.33221443,9.01028177 7.98958538,8.75718397 Z" id="Shape"></path>
                        <path d="M15.4229338,12.4524119 L15.4229338,5.68204567 L16.0297378,5.72001034 L16.6239,5.75797501 L16.6618252,6.94753468 L16.6997505,8.14974924 L17.1169282,7.51700474 C17.6605234,6.71974666 18.3431778,6.11231193 19.0763993,5.78328479 C19.5567857,5.56815166 19.9107547,5.5175321 21.0232286,5.53018699 C21.8070171,5.53018699 22.4517463,5.59346144 22.5275967,5.66939078 C22.6034472,5.74532012 22.6287307,6.0237277 22.5781637,6.39071952 L22.4896715,6.97284446 L21.8323006,6.87160534 C20.1888732,6.61850754 19.1522498,6.90957001 18.2926108,7.83337699 C16.9525854,9.27603447 16.8135262,9.93408876 16.8135262,15.1099389 L16.8135262,19.235433 L16.11823,19.235433 L15.4229338,19.235433 L15.4229338,12.4524119 Z" id="Shape"></path>
                        <path d="M38.683752,12.4650668 L38.683752,5.69470056 L39.2526307,5.69470056 C39.8973599,5.69470056 39.8973599,5.69470056 40.0111356,6.75771133 L40.0996279,7.50434985 L40.4030299,7.12470314 C41.1868183,6.11231193 42.7543952,5.53018699 44.625374,5.53018699 C47.0778733,5.53018699 48.3799735,6.30213529 49.0752697,8.16240413 C49.3533882,8.89638776 49.3660299,9.12417578 49.4039552,14.0848928 L49.4545222,19.235433 L48.7465842,19.235433 L48.051288,19.235433 L48.0133628,14.0848928 C47.9627958,8.4661215 47.9754375,8.47877639 47.2295743,7.68151831 C45.8895489,6.23886084 42.2740087,6.50461353 41.0224756,8.14974924 C40.8454911,8.39019216 40.5673726,8.90904265 40.4156716,9.31399914 C40.1501949,10.022673 40.1375531,10.2884257 40.0996279,14.6543628 L40.0617026,19.235433 L39.3664064,19.235433 L38.683752,19.235433 L38.683752,12.4650668 Z" id="Shape"></path>
                    </g>
                    <g id="Ministry" transform="translate(41.611618, 13.926554)" fill="#404041">
                        <path d="M91.1993368,28.92362 C91.0806108,28.8937756 90.66507,28.8340866 90.2792107,28.7893199 L89.566855,28.6997865 L89.566855,27.9536746 C89.566855,27.5507742 89.5816957,27.222485 89.6113772,27.222485 C89.626218,27.222485 90.0417588,27.2821739 90.5166626,27.3717074 C92.6834111,27.729841 93.559015,26.8941958 94.9243634,23.2382476 L95.5031524,21.7012572 L92.5350037,13.9118493 C90.9025219,9.61424497 89.566855,6.01798579 89.566855,5.91353012 C89.566855,5.77922999 89.7746254,5.73446328 90.3385737,5.76430775 L91.1251331,5.80907446 L93.1583149,11.2556911 C94.2862114,14.2550608 95.4586301,17.4633418 95.7702858,18.3885205 L96.334234,20.0747333 L97.2395194,17.5677974 C97.7292639,16.1949516 98.9313641,12.9568261 99.8960124,10.4051235 L101.662061,5.73446328 L102.44862,5.73446328 C102.864161,5.73446328 103.220339,5.79415223 103.220339,5.88368565 C103.220339,6.12244145 95.7109228,25.6108833 95.3102227,26.4166842 C94.7462745,27.5209297 94.2565299,28.0581303 93.3809261,28.4759529 C92.6537296,28.8191644 91.7187628,29.0131535 91.1993368,28.92362 Z" id="Shape"></path>
                        <path d="M57.4442272,21.7468705 C57.0142115,21.6723935 56.3469457,21.4787533 55.9614144,21.3149038 L55.2348361,21.0318911 L55.1903517,20.182853 C55.1310392,19.1997563 54.982758,19.2295471 56.7917896,19.8998403 C57.8149304,20.2871209 58.0818367,20.3169117 60.1429465,20.3169117 C62.3375095,20.3318071 62.3819939,20.3318071 63.2420253,19.8849449 C64.3393068,19.3189195 64.7989788,18.6933125 64.7989788,17.7400066 C64.7989788,16.2504661 63.8203223,15.3716372 60.8695248,14.224691 C57.2662897,12.8096275 55.9317582,11.8116354 55.6055393,10.2327225 C55.1755236,8.08778416 56.376602,6.33012637 58.7342744,5.70451936 C60.5581341,5.2278664 63.9092911,5.48108828 65.6441821,6.21096313 C66.0297134,6.37481259 66.1335103,6.47908042 66.0593696,6.67272069 C66.0000571,6.80677933 65.8814321,7.10468743 65.8072915,7.34301391 C65.7331508,7.56644499 65.5996977,7.74518985 65.525557,7.74518985 C65.4514164,7.74518985 64.8138069,7.56644499 64.1020567,7.35790932 C62.4116501,6.83657014 60.083634,6.77698852 58.9418682,7.20895527 C57.6221648,7.70050363 56.9845552,8.54954172 57.1476647,9.57732466 C57.3552585,10.8583295 58.2152899,11.5137273 61.1364311,12.6755689 C64.3986193,13.9416783 65.288307,14.4928083 65.9555727,15.6248591 C66.2966197,16.2206753 66.3559322,16.4738972 66.3559322,17.5016801 C66.3559322,18.9614298 65.9407446,19.9147357 64.9769163,20.659506 C63.8054942,21.5532303 62.9158065,21.7915568 60.424681,21.836243 C59.2087745,21.8660338 57.8594148,21.8213476 57.4442272,21.7468705 Z" id="Shape"></path>
                        <path d="M73.2236347,21.7314843 C72.1422787,21.4038811 71.4964689,20.8380209 71.0008475,19.7807559 C70.775565,19.3340242 70.7455273,18.4405608 70.7004708,13.1989088 L70.6554143,7.12335763 L69.4539077,7.12335763 L68.26742,7.12335763 L68.26742,6.6170617 C68.26742,6.12565682 68.2974576,6.09587471 69.0634181,5.87250886 C69.4839454,5.75338041 70.0246234,5.60446984 70.2499058,5.55979667 C70.6253766,5.47045033 70.6554143,5.36621293 70.9858286,3.68352351 L71.3312618,1.91148776 L71.8268832,1.91148776 L72.3225047,1.91148776 L72.3225047,3.77286986 L72.3225047,5.63425195 L74.6504237,5.63425195 L76.9783427,5.63425195 L76.9783427,6.37880479 L76.9783427,7.12335763 L74.6504237,7.12335763 L72.3074859,7.12335763 L72.3525424,12.9010877 C72.3975989,18.3214323 72.4126177,18.6937087 72.6979755,19.2595689 C72.9082392,19.6765185 73.2086158,19.9594486 73.6741996,20.1977055 C74.2749529,20.5104177 74.5002354,20.5401998 75.5515537,20.4657445 C76.2123823,20.4359624 76.8732109,20.346616 77.0233992,20.3019429 C77.2486817,20.2125965 77.2787194,20.2870518 77.2787194,20.867803 C77.2787194,21.5379006 77.2637006,21.5527916 76.7230226,21.7017022 C76.0772128,21.8803949 73.7943503,21.8952859 73.2236347,21.7314843 Z" id="Shape"></path>
                        <path d="M0,10.9227872 L0,0.27306968 L1.22901887,0.317691401 L2.45803775,0.362313123 L6.17507044,9.50976602 C8.21344321,14.5371466 9.90709117,18.7167145 9.92207921,18.7762102 C9.95205528,18.8357058 11.6606913,14.7156335 13.7290401,9.62875727 L17.4760489,0.362313123 L18.7050678,0.317691401 L19.9340866,0.27306968 L19.9340866,10.9227872 L19.9340866,21.5576308 L19.1097447,21.5576308 L18.2704147,21.5576308 L18.3153788,11.9639607 C18.3453549,6.68372366 18.3003908,2.47440794 18.2404387,2.62314701 C18.1804865,2.77188608 16.4118984,7.07044524 14.3285615,12.1870693 L10.5216006,21.4832613 L9.93706724,21.527883 L9.35253388,21.5725047 L5.45564476,12.0085824 L1.57374368,2.44466012 L1.52877958,12.0085824 L1.49880351,21.5576308 L0.749401753,21.5576308 L0,21.5576308 L0,10.9227872 Z" id="Shape"></path>
                        <polygon id="Shape" points="25.3954802 13.7900188 25.3954802 5.73446328 26.2146893 5.73446328 27.0338983 5.73446328 27.0338983 13.7900188 27.0338983 21.8455744 26.2146893 21.8455744 25.3954802 21.8455744"></polygon>
                        <path d="M31.9491525,13.6136456 L31.9491525,5.65478644 L32.6270192,5.65478644 C33.395268,5.65478644 33.395268,5.65478644 33.5308414,6.9044017 L33.6362873,7.78210766 L33.9978161,7.3358165 C34.9317657,6.14570672 36.7996649,5.4613936 39.029093,5.4613936 C41.9514513,5.4613936 43.5030127,6.3688523 44.3315164,8.55567902 C44.6629179,9.41850861 44.6779816,9.68628331 44.7231727,15.5178212 L44.7834275,21.5725047 L43.9398601,21.5725047 L43.1113565,21.5725047 L43.0661654,15.5178212 C43.0059105,8.91271195 43.0209742,8.92758832 42.1322158,7.99037687 C40.5354633,6.29447044 36.2272442,6.60687426 34.7359376,8.54080265 C34.5250458,8.82345372 34.1936443,9.43338498 34.0128799,9.90942889 C33.6965421,10.7425057 33.6814784,11.0549096 33.6362873,16.187258 L33.5910962,21.5725047 L32.7625925,21.5725047 L31.9491525,21.5725047 L31.9491525,13.6136456 Z" id="Shape"></path>
                        <polygon id="Shape" points="49.6986817 13.7900188 49.6986817 5.73446328 50.5178908 5.73446328 51.3370998 5.73446328 51.3370998 13.7900188 51.3370998 21.8455744 50.5178908 21.8455744 49.6986817 21.8455744"></polygon>
                        <path d="M80.5555556,13.5998207 L80.5555556,5.64201104 L81.2708191,5.68663427 L81.9711814,5.7312575 L82.0158854,7.12945209 L82.0605894,8.54252109 L82.5523331,7.79880056 C83.1930901,6.8617127 83.9977616,6.147741 84.8620384,5.76100632 C85.4282888,5.50814134 85.8455259,5.4486437 87.1568425,5.46351811 C88.0807246,5.46351811 88.8406922,5.53789017 88.9301001,5.62713663 C89.0195081,5.71638309 89.0493107,6.04362012 88.9897054,6.47497803 L88.8853962,7.15920091 L88.1105273,7.04020563 C86.173355,6.74271742 84.9514464,7.08482886 83.9381563,8.17066083 C82.3586159,9.86634363 82.1947013,10.639813 82.1947013,16.7234469 L82.1947013,21.5725047 L81.3751284,21.5725047 L80.5555556,21.5725047 L80.5555556,13.5998207 Z" id="Shape"></path>
                        <path d="M25.3895619,2.50074338 C25.285865,2.38576668 25.1821681,1.92585985 25.1377266,1.50906928 C25.0488435,0.474278918 25.3451203,0 26.0709986,0 C26.7376215,0 27.0338983,0.416790564 27.0338983,1.3653484 C27.0338983,2.29953415 26.7376215,2.7306968 26.0858124,2.7306968 C25.8043494,2.7306968 25.5080726,2.63009218 25.3895619,2.50074338 Z" id="Shape"></path>
                        <path d="M49.9658331,2.50074338 C49.8621362,2.38576668 49.7584393,1.92585985 49.7139977,1.50906928 C49.6251147,0.474278918 49.9213915,0 50.6472698,0 C51.3138927,0 51.6101695,0.416790564 51.6101695,1.3653484 C51.6101695,2.29953415 51.3138927,2.7306968 50.6620836,2.7306968 C50.3806206,2.7306968 50.0843438,2.63009218 49.9658331,2.50074338 Z" id="Shape"></path>
                    </g>
                    <g id="Leaves" transform="translate(0.000000, 0.000000)">
                        <path d="M38.0305608,5.55671125 C38.3747058,4.84107727 38.6870787,4.15676206 38.9994516,3.44112808 C38.6251074,3.50376563 38.218362,3.5657768 37.8433887,3.62778797 C28.5933131,5.40074376 21.9375368,11.2188324 23.0001709,16.6009636 C23.0001709,16.6636012 23.0316284,16.7252992 23.0630859,16.7876235 C27.843681,17.6582854 34.187399,13.0544257 38.0305608,5.55608488 L38.0305608,5.55671125 Z" id="Shape" fill="#C7DB4C"></path>
                        <path d="M21.424933,16.3092064 C22.4580515,16.8387261 23.5850898,16.9941354 24.7751617,16.932097 C27.6866775,12.8547954 25.0881229,5.60225564 18.7951767,0 C16.1963069,7.25222646 17.1667071,14.1623017 21.4246178,16.3095197 L21.424933,16.3092064 Z" id="Shape" fill="#C7DB4C"></path>
                        <path d="M25.4963014,9.80293884 C23.5172178,11.9135751 22.5583414,14.3042543 22.9910811,16.6017943 C22.9910811,16.6636787 23.0222134,16.7258758 23.0533458,16.7880728 C23.6096809,16.8812121 24.1974597,16.9121544 24.8160595,16.8812121 C26.1149012,15.0184264 26.2693177,12.5033531 25.4963014,9.8020012 L25.4963014,9.80293884 Z" id="Shape" fill="#7AB038"></path>
                        <path d="M0,9.8306792 C1.30843995,11.563318 2.92862231,13.2345886 4.86023345,14.7815652 C8.91037571,17.9689726 13.3657204,19.794754 17.1041202,20.0732471 C17.1662178,19.6402432 17.228629,19.2072393 17.1972666,18.7736123 C16.9168866,13.3890993 9.25316691,9.4282036 0,9.83005618 L0,9.8306792 Z" id="Shape" fill="#468136"></path>
                        <path d="M20.5221754,16.0662441 C17.6987862,14.5920703 14.0071423,15.5643306 10.5319375,18.3242238 C15.4650606,20.6128233 20.2741919,20.8325289 23.0972688,18.6998698 C22.4769977,17.5397866 21.6081184,16.6303444 20.5221754,16.0659284 L20.5221754,16.0662441 Z" id="Shape" fill="#7AB038"></path>
                        <path d="M16.0459812,15.5372147 C11.8152511,16.4074377 7.05528834,20.4815217 3.91339974,26.4829306 C3.41548258,27.4470626 2.98019651,28.4111946 2.60691521,29.4060036 C11.0683754,28.4105686 17.4764753,23.8706962 17.1968275,18.7711264 C17.1341964,17.5894386 16.7302259,16.5323367 16.0456681,15.5375277 L16.0459812,15.5372147 Z" id="Shape" fill="#9FCC3B"></path>
                        <path d="M16.9255695,17.3516906 C16.8942767,17.2266521 16.8629838,17.1327945 16.8323168,17.007756 L16.5525589,16.3507525 C16.521266,16.3192567 16.521266,16.2568949 16.4899732,16.225399 C16.3660535,15.975322 16.241508,15.7561108 16.0862956,15.5372147 C14.2525352,15.8814643 12.3868562,16.8512216 10.5840758,18.2590861 C12.8528066,19.2912052 15.0602034,19.9170277 17.1117619,20.0732471 C17.1430547,19.8858468 17.1743476,19.6984465 17.1743476,19.5104163 C17.2056404,19.2600243 17.2056404,19.0096322 17.2056404,18.7595552 C17.1743476,18.4461715 17.1430547,18.1334177 17.0804691,17.8518448 C17.0188222,17.6953104 16.9565494,17.539091 16.9255695,17.3510607 L16.9255695,17.3516906 Z" id="Shape" fill="#144519"></path>
                        <path d="M23.5854237,19.186896 L23.3065919,19.2801156 C18.4735088,21.3692399 17.2964272,29.6001885 20.549464,37.9566855 C20.951805,37.3022648 21.3547699,36.6164571 21.7265455,35.9303354 C24.9795823,29.6632765 25.5378695,23.1156172 23.5854237,19.186896 Z" id="Shape" fill="#9FCC3B"></path>
                        <path d="M35.0890788,24.1921732 C31.5292986,20.0260101 27.1893528,17.9581516 23.7229284,19.1617099 C25.4718571,22.0935578 29.7809985,23.9762535 35.0890788,24.1921732 Z" id="Shape" fill="#468136"></path>
                    </g>
                </g>
            </g>
            <rect id="Rectangle-Copy" x="0" y="0" width="170" height="160"></rect>
        </g>
    </g>
</svg>