<?xml version="1.0" encoding="UTF-8"?>
<svg width="170px" height="160px" viewBox="0 0 170 160" version="1.1" xmlns="http://www.w3.org/2000/svg" xmlns:xlink="http://www.w3.org/1999/xlink">
    <title>pg</title>
    <g id="Page-1" stroke="none" stroke-width="1" fill="none" fill-rule="evenodd">
        <g id="pg">
            <g id="Provisions-Group" transform="translate(10.000000, 30.000000)">
                <g id="Group" transform="translate(98.624376, 51.220037) scale(-1, 1) rotate(-180.000000) translate(-98.624376, -51.220037) translate(48.251748, 42.737311)" fill="#000000" fill-rule="nonzero">
                    <path d="M31.3423458,16.7250571 C28.4463062,15.6968774 27.709444,12.0639756 29.9543031,9.83625286 C30.571211,9.21934501 31.3594821,8.7395278 33.3301599,7.7970297 C36.1405179,6.46039604 37.0658797,5.79207921 37.3743336,4.84958111 C37.6485149,4.00990099 37.4771516,2.86176695 36.9630617,2.07349581 C35.8492003,0.376999238 32.8160701,0.17136329 31.1709825,1.66222391 C30.2970297,2.45049505 29.7486672,3.41012947 29.3716679,4.76389947 C29.1488957,5.5521706 28.9946687,5.82635187 28.8061691,5.79207921 C28.5662605,5.74067022 28.5319878,5.34653465 28.4805788,3.11881188 C28.4463062,0.599771516 28.4463062,0.514089871 28.7890327,0.514089871 C28.9775324,0.514089871 29.1317593,0.599771516 29.1317593,0.685453161 C29.1317593,0.788271135 29.2517136,1.14813404 29.3888043,1.4737243 L29.6458492,2.09063214 L30.2798934,1.54226961 C32.4047982,-0.325590251 36.0205636,-0.411271896 37.8541508,1.37090632 C38.8309216,2.33054075 39.1222391,2.98172125 39.2079208,4.47258187 C39.2593298,5.51789794 39.2079208,5.92916984 38.9508759,6.52894136 C38.2996954,8.00266565 37.6999238,8.48248286 34.5468393,10.0247525 C31.3766184,11.5670221 30.571211,12.1839299 30.3313024,13.2977913 C29.8343488,15.4226961 31.7878903,16.8964204 34.1355674,16.2109673 C35.4550647,15.833968 36.5175171,14.737243 37.1001523,13.1607007 C37.2715156,12.6980198 37.5114242,12.3381569 37.6313785,12.3381569 C37.8198781,12.3381569 37.8712871,12.7837014 37.8712871,14.480198 C37.8712871,16.2966489 37.8370145,16.6222391 37.6142422,16.6222391 C37.4600152,16.6222391 37.3057883,16.4851485 37.2543793,16.3309216 C37.2029703,16.1595583 37.0658797,15.8511043 36.980198,15.6454684 C36.7916984,15.2684692 36.7916984,15.2684692 36.0548363,15.8682407 C34.8210206,16.8792841 32.7989337,17.2562833 31.3423458,16.7250571 Z" id="Shape"></path>
                    <path d="M57.2010663,16.6907845 C54.7848439,16.1081493 52.6599391,14.480198 51.666032,12.4581112 C49.7467631,8.53389185 51.1348058,3.41012947 54.6991622,1.31949733 C57.3210206,-0.205635948 61.2623762,-0.359862909 64.0213252,0.959634425 C65.3408225,1.5936786 67.1401371,3.37585682 67.7227723,4.62680883 C68.8709063,7.09444021 68.8194973,10.2646611 67.602818,12.6808835 C67.0715918,13.7433359 65.6150038,15.1999238 64.4668698,15.8168317 C62.5476009,16.8621478 59.428789,17.239147 57.2010663,16.6907845 Z M61.4851485,16.0910129 C64.1241432,15.5083778 65.8035034,12.5609292 65.8035034,8.60243717 C65.8035034,3.34158416 63.490099,0.496953542 59.3945164,0.719725819 C56.6869764,0.87395278 55.0076161,2.09063214 54.116527,4.59253618 C53.6709825,5.84348819 53.4824829,9.59634425 53.8080731,11.1728865 C54.5963442,15.2341965 57.3895659,17.0163747 61.4851485,16.0910129 Z" id="Shape"></path>
                    <path d="M92.8617669,16.7250571 C89.9657273,15.6968774 89.2288652,12.0639756 91.4737243,9.83625286 C92.0906321,9.21934501 92.8789033,8.7395278 94.8495811,7.7970297 C97.6599391,6.46039604 98.5853008,5.79207921 98.8937548,4.84958111 C99.167936,4.00990099 98.9965727,2.86176695 98.4824829,2.07349581 C97.3686215,0.376999238 94.3354912,0.17136329 92.6904037,1.66222391 C91.8164509,2.45049505 91.2680883,3.41012947 90.8910891,4.76389947 C90.6683168,5.5521706 90.5140899,5.82635187 90.3255903,5.79207921 C90.0856816,5.74067022 90.051409,5.34653465 90,3.11881188 C89.9657273,0.599771516 89.9657273,0.514089871 90.3084539,0.514089871 C90.4969535,0.514089871 90.6511805,0.599771516 90.6511805,0.685453161 C90.6511805,0.788271135 90.7711348,1.14813404 90.9082254,1.4737243 L91.1652704,2.09063214 L91.7993145,1.54226961 C93.9242193,-0.325590251 97.5399848,-0.411271896 99.373572,1.37090632 C100.350343,2.33054075 100.64166,2.98172125 100.727342,4.47258187 C100.778751,5.51789794 100.727342,5.92916984 100.470297,6.52894136 C99.8191165,8.00266565 99.219345,8.48248286 96.0662605,10.0247525 C92.8960396,11.5670221 92.0906321,12.1839299 91.8507235,13.2977913 C91.35377,15.4226961 93.3073115,16.8964204 95.6549886,16.2109673 C96.9744859,15.833968 98.0369383,14.737243 98.6195735,13.1607007 C98.7909368,12.6980198 99.0308454,12.3381569 99.1507997,12.3381569 C99.3392993,12.3381569 99.3907083,12.7837014 99.3907083,14.480198 C99.3907083,16.2966489 99.3564356,16.6222391 99.1336634,16.6222391 C98.9794364,16.6222391 98.8252094,16.4851485 98.7738005,16.3309216 C98.7223915,16.1595583 98.5853008,15.8511043 98.4996192,15.6454684 C98.3111196,15.2684692 98.3111196,15.2684692 97.5742574,15.8682407 C96.3404417,16.8792841 94.3183549,17.2562833 92.8617669,16.7250571 Z" id="Shape"></path>
                    <path d="M0,16.3823305 C0,16.2452399 0.274181264,16.1252856 0.719725819,16.0567403 C1.1824067,15.988195 1.5936786,15.7996954 1.90213252,15.4741051 C2.19345011,15.1827875 3.10167555,13.2977913 4.31835491,10.4531607 C5.39794364,7.95125666 6.85453161,4.57539985 7.5571211,2.94744859 C8.7395278,0.205635948 8.8594821,-1.04083409e-17 9.25361767,0.034272658 C9.63061691,0.0856816451 9.9219345,0.70258949 12.5952018,7.04303123 C14.2060168,10.8644326 15.73115,14.3431074 15.988195,14.7886519 C16.3137852,15.3370145 16.6565118,15.6626047 17.136329,15.8682407 C17.5133283,16.039604 17.8217822,16.2795126 17.8217822,16.3994669 C17.8217822,16.5708302 17.2734196,16.6222391 15.3370145,16.6222391 C13.3492003,16.6222391 12.8522468,16.5708302 12.8522468,16.3823305 C12.8522468,16.2452399 13.1092917,16.1081493 13.5034273,16.039604 C14.2402894,15.936786 14.6515613,15.5597867 14.8229246,14.8914699 C14.9600152,14.3602437 14.4459254,12.9379284 11.9440213,6.99162224 C10.2475248,2.93031226 10.1618431,2.75894897 9.95620716,3.22162986 C8.15689261,7.1458492 4.96953542,14.8057883 4.96953542,15.1999238 C4.96953542,15.7996954 5.48362529,16.1081493 6.42612338,16.1081493 C6.83739528,16.1081493 7.0258949,16.1938309 7.0258949,16.3651942 C7.0258949,16.5879665 6.52894136,16.6222391 3.51294745,16.6222391 C0.651180503,16.6222391 0,16.5708302 0,16.3823305 Z" id="Shape"></path>
                    <path d="M18.8499619,16.3823305 C18.8499619,16.2281036 19.1412795,16.1252856 19.8095963,16.0738766 C20.4607768,16.0224676 20.8549124,15.885377 21.0091394,15.6968774 C21.351866,15.2170602 21.4546839,12.9379284 21.3861386,7.28293983 C21.351866,3.54722011 21.2661843,1.86785986 21.1290937,1.61081493 C20.8891851,1.19954303 20.0837776,0.856816451 19.3469155,0.856816451 C19.0213252,0.856816451 18.8499619,0.771134806 18.8499619,0.599771516 C18.8499619,0.376999238 19.3811881,0.34272658 22.5342727,0.34272658 C25.6873572,0.34272658 26.2185834,0.376999238 26.2185834,0.599771516 C26.2185834,0.771134806 26.0472201,0.856816451 25.7216299,0.856816451 C24.9847677,0.856816451 24.1793602,1.19954303 23.956588,1.61081493 C23.699543,2.03922315 23.5453161,11.1214775 23.7338157,13.6747906 C23.8880427,15.6797411 24.1793602,16.1081493 25.4474486,16.1081493 C26.0129474,16.1081493 26.2185834,16.1766946 26.2185834,16.3651942 C26.2185834,16.5879665 25.6873572,16.6222391 22.5342727,16.6222391 C19.5182788,16.6222391 18.8499619,16.5708302 18.8499619,16.3823305 Z" id="Shape"></path>
                    <path d="M41.2985529,16.3823305 C41.2985529,16.2281036 41.5898705,16.1252856 42.2581874,16.0738766 C42.9093679,16.0224676 43.3035034,15.885377 43.4577304,15.6968774 C43.800457,15.2170602 43.9032749,12.9379284 43.8347296,7.28293983 C43.800457,3.54722011 43.7147753,1.86785986 43.5776847,1.61081493 C43.3377761,1.19954303 42.5323686,0.856816451 41.7955065,0.856816451 C41.4699162,0.856816451 41.2985529,0.771134806 41.2985529,0.599771516 C41.2985529,0.376999238 41.8297791,0.34272658 44.9828637,0.34272658 C48.1359482,0.34272658 48.6671744,0.376999238 48.6671744,0.599771516 C48.6671744,0.771134806 48.4958111,0.856816451 48.1702209,0.856816451 C47.4333587,0.856816451 46.6279513,1.19954303 46.405179,1.61081493 C46.148134,2.03922315 45.9939071,11.1214775 46.1824067,13.6747906 C46.3366337,15.6797411 46.6279513,16.1081493 47.8960396,16.1081493 C48.4615385,16.1081493 48.6671744,16.1766946 48.6671744,16.3651942 C48.6671744,16.5879665 48.1359482,16.6222391 44.9828637,16.6222391 C41.9668698,16.6222391 41.2985529,16.5708302 41.2985529,16.3823305 Z" id="Shape"></path>
                    <path d="M70.6016756,16.3651942 C70.6016756,16.1766946 70.7901752,16.1081493 71.2699924,16.1081493 C72.1610815,16.1081493 72.658035,15.6797411 72.8465347,14.737243 C73.0178979,13.8290175 73.0178979,2.84463062 72.8465347,2.22772277 C72.6923077,1.67936024 71.8354912,1.09672506 70.9615385,0.959634425 C70.4988576,0.891089109 70.258949,0.771134806 70.258949,0.599771516 C70.258949,0.376999238 70.7216299,0.34272658 73.3434882,0.34272658 C75.9139375,0.34272658 76.4280274,0.376999238 76.4280274,0.582635187 C76.4280274,0.753998477 76.1538462,0.87395278 75.6568926,0.959634425 C74.5258949,1.11386139 73.8233054,1.66222391 73.6519421,2.46763138 C73.5662605,2.82749429 73.5319878,5.86062452 73.5491241,9.18507235 L73.6005331,15.2341965 L79.3412034,7.62566641 C83.0769231,2.656131 85.1846915,0 85.3731912,0 C85.6645088,0 85.6816451,0.462680883 85.6816451,7.45430312 L85.6816451,14.9257426 L86.092917,15.3370145 C86.4527799,15.6968774 87.4809596,16.1081493 88.0464585,16.1081493 C88.1492765,16.1081493 88.2520944,16.2281036 88.2520944,16.3651942 C88.2520944,16.5879665 87.8065499,16.6222391 85.2532369,16.6222391 C82.8198781,16.6222391 82.2543793,16.5708302 82.2543793,16.3823305 C82.2543793,16.2281036 82.5628332,16.1081493 83.1283321,16.039604 C83.7795126,15.9539223 84.1393755,15.782559 84.4992384,15.4226961 L84.9961919,14.9428789 L84.9961919,9.49352628 C84.9961919,6.51180503 84.9447829,4.11271896 84.8762376,4.18126428 C84.790556,4.2498096 82.6485149,7.06016756 80.1123382,10.418888 L75.468393,16.5365575 L73.0350343,16.5879665 C70.9444021,16.6222391 70.6016756,16.5879665 70.6016756,16.3651942 Z" id="Shape"></path>
                </g>
                <g id="Group" transform="translate(100.451728, 68.838617) scale(-1, 1) rotate(-180.000000) translate(-100.451728, -68.838617) translate(66.083916, 64.698282)" fill="#9B9B9B" fill-rule="nonzero">
                    <path d="M3.48914244,8.24468545 C2.56164888,8.10482531 1.79609864,7.68524489 1.09679794,6.94913889 C0.32388664,6.13206123 0,5.30762251 0,4.16665822 C0,2.93000014 0.36069194,2.04667294 1.20721384,1.21487316 C1.79609864,0.625988364 2.39970556,0.280018545 3.09900626,0.110714165 C4.43135812,-0.198450355 5.74162679,0.147519465 6.65439823,1.05292984 C7.39786529,1.7963969 7.70702981,2.56194714 7.74383511,3.79124416 L7.76591829,4.30651836 L6.13176297,4.32860154 L4.4902466,4.34332366 L4.4902466,3.75443886 L4.4902466,3.16555406 L5.48398969,3.16555406 L6.47773279,3.16555406 L6.43356643,2.96680544 C6.34523371,2.56194714 6.09495767,2.14236672 5.77843209,1.85528538 C4.66691204,0.817375924 3.19470004,0.913069704 2.01693044,2.0908393 C1.3249908,2.78277894 1.0673537,3.65138402 1.24401914,4.67457136 C1.51637836,6.20567183 2.78984174,7.21413705 4.35038646,7.12580433 C5.06440927,7.08163797 5.62384983,6.82400087 6.16856827,6.27928243 L6.56606551,5.88914625 L7.00036805,6.26456031 L7.44203165,6.64733543 L7.08870077,7.00802737 C6.60287081,7.50857945 5.96245859,7.92079881 5.41774015,8.09010319 C4.88038278,8.25940757 4.00441664,8.32565711 3.48914244,8.24468545 Z" id="Shape"></path>
                    <path d="M34.596982,8.24468545 C33.6400442,8.11954743 32.889216,7.73677231 32.1678322,7.00066631 C31.3139492,6.13206123 30.9900626,5.35914993 30.9900626,4.15929716 C30.9900626,2.95208332 31.3581156,2.03931188 32.1604711,1.25167846 C33.4781008,-0.0438680954 35.3698933,-0.353032615 37.0261318,0.456683985 C37.6591829,0.758487444 38.5425101,1.63445358 38.8590357,2.26014368 C39.6908355,3.92374324 39.3227825,5.96275685 37.9609864,7.18469281 C37.0334928,8.01649259 35.8041958,8.40662877 34.596982,8.24468545 Z M36.3636364,6.87552829 C37.1218255,6.51483635 37.7033493,5.85970201 37.9609864,5.04262435 C38.0934855,4.64512712 38.0861244,3.65138402 37.9536253,3.20972042 C37.4383511,1.5019545 35.4508649,0.662793664 33.8314317,1.4651492 C32.9775488,1.88472962 32.396025,2.68708516 32.2340817,3.65138402 C32.0353331,4.85859786 32.5432462,6.03636745 33.5296283,6.66205755 C34.0964299,7.03011055 34.5307324,7.14052645 35.2594774,7.11844327 C35.7747516,7.10372115 35.9735002,7.05955479 36.3636364,6.87552829 Z" id="Shape"></path>
                    <path d="M17.1512698,4.15929716 L17.1512698,0.147519465 L17.7401546,0.147519465 L18.3290394,0.147519465 L18.3290394,1.76695266 C18.3290394,3.28333102 18.3364004,3.38638586 18.4615385,3.38638586 C18.5498712,3.38638586 18.9620905,2.8637506 19.7276408,1.76695266 L20.861244,0.147519465 L21.5826279,0.147519465 C22.1494295,0.147519465 22.2966507,0.169602645 22.2598454,0.243213245 C22.2230401,0.287379605 22.0316526,0.567099884 21.8255429,0.846820164 C21.6194332,1.1339015 21.0967979,1.84792432 20.6624954,2.44417018 L19.882223,3.526246 L20.2649982,3.70291144 C20.8097166,3.94582642 21.1556864,4.28443518 21.3986014,4.77026514 C21.6709606,5.32970569 21.6856827,6.16150547 21.4206846,6.75775133 C21.2145749,7.23622023 20.6919396,7.72205019 20.1987486,7.89871563 C19.7938903,8.03857577 18.6750092,8.16371379 17.7622378,8.17107485 L17.1512698,8.17107485 L17.1512698,4.15929716 Z M19.5583364,6.91233359 C20.7655502,6.60316907 20.7434671,4.90276422 19.5288922,4.57151652 C19.3743099,4.52735016 19.0430622,4.49054486 18.7927862,4.49054486 L18.3290394,4.49054486 L18.3290394,5.74192505 L18.3290394,6.99330525 L18.778064,6.99330525 C19.020979,6.99330525 19.3743099,6.95649995 19.5583364,6.91233359 Z" id="Shape"></path>
                    <path d="M48.5977181,5.21192873 C48.6198013,2.3116711 48.6271623,2.2380605 48.7964667,1.81848008 C49.0099374,1.26640058 49.6135444,0.618627304 50.1582628,0.346268085 C51.659919,-0.411921095 53.500184,0.191685825 54.1994847,1.67861994 L54.4350386,2.17181096 L54.4571218,5.17512343 L54.479205,8.17107485 L53.8903202,8.17107485 L53.3014354,8.17107485 L53.2793522,5.32234463 C53.257269,2.6061135 53.249908,2.45153124 53.1026868,2.13500566 C52.9407435,1.78167478 52.521163,1.36209436 52.1972764,1.23695634 C51.8954729,1.11917938 51.1593669,1.14862362 50.8060361,1.28848376 C50.4453441,1.43570496 50.0478469,1.86264644 49.9079868,2.26014368 C49.8417372,2.46625336 49.8049319,3.29805314 49.7828487,5.35914993 L49.7460434,8.17107485 L49.1571586,8.17107485 L48.5756349,8.17107485 L48.5977181,5.21192873 Z" id="Shape"></path>
                    <path d="M64.2620537,4.15929716 L64.2620537,0.147519465 L64.8509385,0.147519465 L65.4398233,0.147519465 L65.4398233,1.76695266 L65.4398233,3.38638586 L65.8667648,3.38638586 C66.4703717,3.38638586 67.110784,3.51888494 67.5009201,3.72499462 C67.9352227,3.95318748 68.0161943,4.01943702 68.3253589,4.43165638 C69.1350755,5.49901007 68.6934119,7.28038659 67.4641148,7.87663245 C67.118145,8.04593683 66.0802356,8.16371379 64.9466323,8.17107485 L64.2620537,8.17107485 L64.2620537,4.15929716 Z M66.9856459,6.80927875 C67.6407803,6.41914257 67.7732794,5.54317643 67.2727273,4.96901376 C67.0003681,4.65984924 66.6764814,4.54943334 65.9992639,4.53471122 L65.4766286,4.52735016 L65.4545455,5.77136929 L65.4398233,7.00802737 L66.0875966,6.97858313 C66.5587045,6.95649995 66.8089805,6.91233359 66.9856459,6.80927875 Z" id="Shape"></path>
                </g>
                <path d="M75.7073762,72.7028401 C74.7446238,71.1867817 73.8040036,70.2129632 73.1400364,70.013773 C71.9227633,69.6485911 71.7567715,70.4121533 72.7969867,71.5962281 C73.0847058,71.9282117 73.4277555,72.1274018 74.3794418,72.514716 C75.8401696,73.1012204 75.972963,73.1122865 75.7073762,72.7028401 Z M70.7165563,72.0610051 C70.4952339,71.5298314 70.5173661,71.1757156 70.8050852,70.6888063 C71.0374737,70.2793599 71.0374737,70.2572276 70.8493497,69.7592523 C70.6169612,69.1395496 69.3554236,67.7341524 69.3443574,68.0882682 C69.3443574,68.2099955 69.2226301,68.4866485 69.0566383,68.6969048 C68.6471919,69.2502108 68.7025225,69.8809796 69.2447624,70.6777402 C69.5988782,71.2089139 70.7165563,72.4483193 70.8382836,72.4483193 C70.8604158,72.4483193 70.8050852,72.2712614 70.7165563,72.0610051 Z M60.9451727,69.9141779 C60.7681148,69.4272687 60.6463875,69.0178223 60.6685197,69.0178223 C60.7017181,69.0178223 60.5689247,68.7964999 60.3808006,68.5198469 C60.0266848,68.0108054 59.8053624,67.8448136 59.2631226,67.6898879 C58.9754035,67.601359 58.931139,67.6234912 58.8758084,67.878012 C58.7651472,68.2985245 59.1303291,69.2834091 59.5397756,69.6596572 C60.137346,70.2240293 61.2107596,71.0097238 61.243958,70.9101287 C61.2550241,70.8658642 61.1222306,70.4121533 60.9451727,69.9141779 Z M67.4631171,69.4715332 C67.2749931,69.1174173 67.3303237,68.3317229 67.5737783,67.9665409 C67.8614974,67.5349622 67.8504313,67.2915076 67.5184477,66.6275404 C67.1532658,65.9082427 66.245844,64.823763 66.245844,65.1114821 C66.245844,65.2221433 66.0909183,65.5319946 65.9138604,65.7975815 C65.7146702,66.0853006 65.5818768,66.4283503 65.5818768,66.6386066 C65.5818768,67.1587142 66.157315,68.2210617 66.8655467,68.99569 C67.5073816,69.7149878 67.6623073,69.825649 67.4631171,69.4715332 Z M57.35975,69.1174173 C57.2490888,68.719037 57.4040145,68.25426 57.724932,67.9444087 C57.9905188,67.6898879 58.0347833,67.5902928 57.9905188,67.1697803 C57.9573205,66.7824661 57.5036096,65.5541269 57.3486839,65.3881351 C57.3265517,65.3660028 57.0941631,65.5541269 56.8396424,65.8086476 C56.3748654,66.2623585 56.3748654,66.2734246 56.4191299,66.9484579 C56.4523282,67.4574994 56.5629894,67.8558797 56.8839069,68.4977146 C57.3044194,69.3498058 57.4704112,69.5711282 57.35975,69.1174173 Z M72.5313999,68.6305081 C72.9519124,68.2763923 73.3945572,68.1878633 73.9478632,68.342789 L74.3794418,68.4534502 L74.1027888,68.2321278 C73.4056233,67.6677557 72.3322097,67.048053 71.8231682,66.9152596 C71.1370688,66.7382016 70.7940191,66.8156645 70.2960437,67.2472431 C70.0968536,67.4353672 69.8644651,67.5792267 69.7980683,67.5792267 C69.399688,67.5792267 69.8976634,68.0108054 70.9378787,68.5862436 C71.6461103,68.9846239 72.0998212,68.99569 72.5313999,68.6305081 Z M59.5729739,66.6054082 C59.9049575,66.4283503 60.32547,66.4394164 60.7349165,66.6496727 L61.0779662,66.8267306 L60.7017181,66.2955569 C60.225875,65.6094574 60.2037427,65.5873252 59.6172384,65.1668127 C59.0528663,64.7573662 58.6212876,64.7131018 57.9573205,65.011887 L57.5036096,65.2221433 L57.8909238,65.7090525 C58.2893041,66.218094 59.0196679,66.7935322 59.2188581,66.7603339 C59.2741887,66.7492678 59.4401805,66.682871 59.5729739,66.6054082 Z M64.2318102,66.2844907 C64.0990168,65.7865154 64.1764796,65.3328045 64.4752649,64.9565564 C64.5969922,64.8016307 64.6965873,64.5360439 64.6965873,64.3700521 C64.6965873,63.993804 64.0436862,62.6880019 63.5899753,62.1568282 C63.3022562,61.8137785 63.2690578,61.8027123 63.2579917,62.0019025 C63.2579917,62.1346959 63.103066,62.422415 62.9260081,62.6658697 C62.6272229,63.0310516 62.5829584,63.163845 62.6050907,63.7060849 C62.6272229,64.2040603 62.7157519,64.458581 63.0588016,65.0340192 C63.4571819,65.6869203 64.209678,66.6939372 64.3092731,66.6939372 C64.3314053,66.6939372 64.298207,66.5168792 64.2318102,66.2844907 Z M55.3457163,66.1406312 C55.2350551,65.7754492 55.4010469,65.2664077 55.7440966,64.9122919 C56.153543,64.4917794 56.1646091,63.993804 55.788361,62.9646549 L55.5006419,62.2010926 L55.0579972,62.6105391 C54.8145425,62.8318615 54.5710879,63.163845 54.5268234,63.3409029 C54.39403,63.7946138 54.5710879,64.6909695 54.9805343,65.6094574 C55.3014518,66.3287552 55.4895758,66.6054082 55.3457163,66.1406312 Z M69.3332913,65.9857055 C69.9197957,65.5430607 70.2849776,65.5319946 71.1702672,65.8750443 C71.2919945,65.9193088 71.0706721,65.6869203 70.6722918,65.3549367 C70.2739115,65.0340192 69.9308618,64.735234 69.8976634,64.7020356 C69.8644651,64.6688373 69.5324815,64.5028455 69.1672995,64.3368537 C68.2709439,63.9384734 67.8282991,63.9495395 67.2971253,64.3700521 C67.0647368,64.5581761 66.8102161,64.7020356 66.7327532,64.7020356 C66.4561003,64.7020356 66.5667615,64.9012258 67.0536707,65.2774739 C67.8393652,65.9082427 68.3926712,66.2070279 68.8574482,66.2402263 C68.9127788,66.2512924 69.1341012,66.1295651 69.3332913,65.9857055 Z M46.990796,64.5139116 C46.990796,63.3741013 46.802672,62.8097292 46.3710933,62.6105391 C46.1387048,62.510944 46.0833742,62.5330762 45.9395147,62.8207953 C45.6296633,63.4294319 45.7181923,63.9163412 46.4042917,65.1336143 C46.891201,66.0078378 46.990796,65.9082427 46.990796,64.5139116 Z M58.7319488,63.2855724 C58.2229073,62.5330762 57.5146757,61.8580429 57.1162954,61.7584479 C56.8839069,61.7031173 55.9543528,61.9465719 55.7440966,62.1125637 C55.600237,62.234291 56.806444,63.6175559 57.171626,63.7282171 C57.2601549,63.7614155 57.5257418,63.717151 57.7691964,63.6396882 C58.1454445,63.5068947 58.2450396,63.5068947 58.654486,63.6950188 C58.8979406,63.8167461 59.119263,63.9163412 59.1413953,63.9163412 C59.1524614,63.9274073 58.9754035,63.6396882 58.7319488,63.2855724 Z M61.2660902,63.3077046 C61.0669001,62.8097292 61.1332968,62.2232249 61.432082,61.8248446 C61.896859,61.1940758 61.7640656,60.4305135 60.9562389,59.1579098 C60.602123,58.6046038 60.502528,58.5160748 60.4471974,58.6820666 C60.413999,58.8037939 60.2369411,59.0583147 60.0598832,59.2464387 C59.8828253,59.4456289 59.7057674,59.7554802 59.6615029,59.9325381 C59.5287094,60.5411747 59.9713542,61.680985 60.8455777,62.9646549 C61.3103547,63.6507543 61.432082,63.7503494 61.2660902,63.3077046 Z M66.3675713,63.0310516 C66.8323483,62.699068 67.3303237,62.6548035 67.8282991,62.9093243 C68.4480018,63.2413079 68.3262745,63.0089194 67.4741833,62.3006877 C66.3011746,61.304737 66.2901085,61.2936708 65.7368025,61.1055468 C65.1281659,60.8952905 64.7851162,60.9506211 64.2871408,61.3379353 C64.0990168,61.4817949 63.8223638,61.6035222 63.6785043,61.6035222 C63.4571819,61.6145883 63.5125125,61.7031173 64.0879507,62.2232249 C64.7740501,62.8429276 65.4822817,63.2634401 65.8363976,63.2634401 C65.9581249,63.2634401 66.1905134,63.163845 66.3675713,63.0310516 Z M44.489853,62.7986631 C44.5562497,62.6548035 44.7997044,62.4556134 45.0210268,62.3449522 C45.3308781,62.1900265 45.4636715,62.046167 45.5522005,61.7363156 C45.6739278,61.2936708 45.7071262,60.3530507 45.596465,60.2534556 C45.5632666,60.2091911 45.2976797,60.286654 45.0099606,60.3973152 C44.3570596,60.6739681 44.2242662,60.9838195 44.2242662,62.2674894 C44.2242662,63.1859773 44.2574645,63.2634401 44.489853,62.7986631 Z M53.9403191,61.7031173 C54.3718977,61.2936708 54.4050961,60.7735632 54.0731125,59.6780174 L53.840724,58.9365874 L53.3538148,59.3349677 C53.0882279,59.5562901 52.8447733,59.8108108 52.8115749,59.8993398 C52.6123847,60.4083813 52.8115749,61.6145883 53.287418,62.7654647 L53.4644759,63.2081095 L53.5198065,62.6216052 C53.5751371,62.145762 53.6526,61.9797702 53.9403191,61.7031173 Z M47.8760856,61.6699189 C47.7432922,61.2715386 47.4998375,60.7624971 47.3117135,60.563307 C47.0350605,60.2313234 46.9022671,60.1759928 46.3932256,60.1427944 L45.7956551,60.1095961 L45.9284486,60.5522408 C46.0059114,60.7956955 46.0723081,61.0391501 46.0723081,61.0944807 C46.0723081,61.1498113 46.2051015,61.3600676 46.3710933,61.5592577 C46.614548,61.8691091 46.7473414,61.9355058 47.0903911,61.9355058 C47.4002425,61.9355058 47.5883665,62.0129686 47.7764905,62.2010926 C47.9203501,62.3560183 48.0531435,62.4556134 48.0642096,62.4445473 C48.0863419,62.422415 47.9978129,62.0793653 47.8760856,61.6699189 Z M57.0941631,60.3641168 C56.6957828,59.6226868 55.9432867,58.7927278 55.5117081,58.6156699 C55.2239889,58.4939426 55.0801294,58.5050087 54.7038813,58.626736 C54.4493606,58.715265 54.1727076,58.7595295 54.0841786,58.7484634 C53.8739224,58.6931328 54.3497655,59.5230917 54.8920054,60.1317283 C55.3125179,60.6075714 55.3457163,60.6297037 55.7772949,60.5522408 C56.4633943,60.4415796 56.7621796,60.474778 57.0609648,60.7071665 C57.2158905,60.8288938 57.3486839,60.9284889 57.3708161,60.9284889 C57.3929484,60.939555 57.2712211,60.6850343 57.0941631,60.3641168 Z M44.1468033,59.5230917 C44.2463984,59.4345628 44.4123902,59.3570999 44.5230514,59.3460338 C44.855035,59.2907032 45.1206218,58.6931328 45.1870186,57.8299754 L45.2534153,57.0332148 L44.9878284,57.2102727 C44.8439688,57.3098678 44.6447787,57.3983968 44.5341175,57.3983968 C44.4345224,57.3983968 44.2132,57.5201241 44.0472082,57.6750498 C43.8812164,57.8299754 43.7926875,57.9517027 43.836952,57.9517027 C43.8812164,57.9517027 43.8701503,58.0180995 43.8037536,58.0955623 C43.748423,58.161959 43.6930924,58.7041989 43.6820263,59.2796371 C43.6709602,60.2423895 43.6820263,60.3087862 43.8258859,59.9989349 C43.9033487,59.8108108 44.0472082,59.6005546 44.1468033,59.5230917 Z M58.3888991,59.8772075 C58.189709,59.368166 58.2671718,58.8923229 58.6212876,58.3611492 C59.0749985,57.6639836 59.0418002,57.1881405 58.4110314,55.9044706 C57.9573205,54.9859827 57.913056,54.9306521 57.7691964,55.1298423 C57.6917336,55.2515696 57.4925434,55.4839581 57.3376178,55.6388838 C56.7289812,56.2585865 56.7732457,57.1549421 57.4704112,58.5492732 C57.8466593,59.2907032 58.377833,60.1649266 58.4552958,60.1649266 C58.4774281,60.1649266 58.4442297,60.0321332 58.3888991,59.8772075 Z M63.4903802,59.8772075 C63.8002316,59.6005546 64.4752649,59.5673562 64.9400419,59.8108108 L65.3494883,60.0321332 L65.1945626,59.7997447 C64.8404468,59.2907032 64.0436862,58.5492732 63.4350496,58.1508929 C62.6272229,57.6307853 62.0517847,57.5865208 61.4874126,58.0070333 C61.2771563,58.161959 61.0005033,58.2836863 60.8677099,58.2836863 C60.6685197,58.2836863 60.7681148,58.4275459 61.4099498,59.0361825 C61.8525945,59.4456289 62.2288426,59.8108108 62.262041,59.8440092 C62.4390989,60.0763977 63.2469256,60.0985299 63.4903802,59.8772075 Z M47.3670441,58.8369923 C47.2785151,58.438612 47.079325,57.9295705 46.9354654,57.7082481 C46.6588124,57.2988017 46.526019,57.232405 45.784589,57.143876 L45.4194071,57.0996115 L45.4747377,57.5201241 C45.507936,57.7525126 45.6407295,58.1730251 45.7735229,58.4496781 C45.9837792,58.8701907 46.061242,58.9476535 46.337895,58.9476535 C46.7473414,58.9476535 47.267449,59.2132404 47.3670441,59.456695 C47.5219698,59.8661414 47.5219698,59.5009595 47.3670441,58.8369923 Z M52.3467979,58.2836863 C52.634517,57.9627689 52.7451782,57.7414465 52.7451782,57.4758596 C52.7451782,57.1217438 52.4574591,55.7938094 52.3467979,55.6167515 C52.3135995,55.5614209 52.0701449,55.6942144 51.7934919,55.9155368 C51.0188635,56.5573717 50.9414007,57.2656033 51.4947067,59.0804469 L51.6717646,59.6669513 L51.804558,59.1911081 C51.8820209,58.9365874 52.1254755,58.527141 52.3467979,58.2836863 Z M55.4010469,56.8782892 C54.582154,55.4175614 54.0841786,55.0523794 53.2210213,55.2737018 C52.9554344,55.3511647 52.6787815,55.384363 52.6234509,55.3511647 C52.4685252,55.2515696 52.5017235,55.3732969 52.8005088,55.9708674 C52.9554344,56.2696526 53.2542197,56.7122974 53.4644759,56.9446859 C53.840724,57.3651984 53.840724,57.3651984 54.3829639,57.2545372 C54.8698731,57.1549421 54.9805343,57.1660083 55.3014518,57.3762645 C55.5006419,57.4979918 55.688766,57.5865208 55.7108982,57.5643886 C55.7440966,57.5422563 55.600237,57.232405 55.4010469,56.8782892 Z M44.0804066,56.2696526 C44.7222415,55.9819335 44.7554399,55.9266029 44.855035,54.7757264 L44.9103656,54.089627 L44.4455885,54.2334866 C44.1800017,54.3109494 43.8590842,54.4990735 43.7262908,54.6650653 C43.4607039,54.9527844 43.2283154,56.0040657 43.2283154,56.8008263 L43.2283154,57.232405 L43.4164394,56.8561569 C43.5381667,56.6016362 43.7594891,56.4135121 44.0804066,56.2696526 Z M62.4833634,56.5020411 C62.2177765,56.026198 60.7902471,54.6318669 60.3144039,54.3994784 C59.7721641,54.1449576 58.9864696,54.1560238 58.8204778,54.4326767 C58.7762133,54.5101396 58.5770232,54.6208008 58.3999652,54.6871975 L58.0569155,54.7978587 L58.6655521,55.4839581 C59.6172384,56.5463056 60.2590733,56.8450908 60.7791809,56.4577766 C61.0779662,56.2253881 61.8083301,56.2585865 62.2067104,56.5020411 C62.6272229,56.7786941 62.6272229,56.7786941 62.4833634,56.5020411 Z M46.9797299,55.6278176 C46.9022671,55.2958341 46.8469365,54.9859827 46.8580026,54.9527844 C46.8580026,54.919586 46.7362753,54.731462 46.5702835,54.5322718 C46.337895,54.2556188 46.1608371,54.1670899 45.8067212,54.1338915 C45.5411344,54.1117593 45.2866136,54.0564287 45.2202169,54.0232303 C45.1427541,53.9789658 45.1206218,54.0453626 45.1538202,54.2113544 C45.4858038,55.8270078 45.5300683,55.8934045 46.2382999,56.0040657 C46.4928207,56.0483302 46.7252092,56.1700575 46.8469365,56.3360493 C47.1235895,56.7012312 47.1678539,56.4356444 46.9797299,55.6278176 Z M55.6445015,55.8270078 C55.6113031,55.2183712 55.6334354,55.0855778 55.8879561,54.7425281 C56.0428818,54.5322718 56.2199397,54.2445527 56.2863364,54.1006932 C56.4412621,53.7576435 56.2420719,52.88342 55.7662288,51.865337 C55.4342452,51.1349731 55.3789146,51.0575103 55.2682534,51.2567004 C55.2018567,51.3784278 54.9805343,51.6550807 54.770278,51.8764031 C54.0841786,52.606767 54.1727076,53.5141888 55.1465261,55.4950242 C55.412113,56.0483302 55.6555676,56.5131072 55.6666337,56.5131072 C55.6776998,56.5131072 55.6666337,56.2032559 55.6445015,55.8270078 Z M50.3106319,55.6720821 C50.3106319,55.4950242 50.4766237,55.2183712 50.7532767,54.9306521 C50.9967313,54.6871975 51.2291198,54.3552139 51.2733843,54.2113544 C51.3508471,53.901503 51.251252,52.8723539 51.0852603,52.2858496 L50.9635329,51.8764031 L50.6979461,52.1198578 C49.7573259,52.9498167 49.7573259,52.9387506 49.7573259,53.7687096 C49.7573259,54.6318669 50.0561111,56.1036608 50.2110368,56.0040657 C50.2663674,55.9708674 50.3106319,55.8159417 50.3106319,55.6720821 Z M54.117377,53.7797757 C53.6968645,52.8170233 53.3427486,52.2526512 52.9443683,51.9206676 C52.6234509,51.6440146 52.545988,51.6329485 51.9816159,51.6993452 C51.6385662,51.7436097 51.3287149,51.7989403 51.2844504,51.8321387 C51.1627231,51.8985354 51.9041531,53.3149987 52.1918722,53.5805855 C52.3799962,53.7465773 52.5902525,53.8019079 53.0882279,53.8019079 C53.6526,53.8019079 53.7743273,53.8461724 54.0399142,54.1117593 C54.205906,54.2777511 54.3608316,54.4105445 54.3718977,54.4105445 C54.39403,54.4105445 54.2723027,54.1228254 54.117377,53.7797757 Z M43.8701503,53.1268746 C44.0693405,53.071544 44.301729,52.9387506 44.3902579,52.8502217 C44.5562497,52.6842299 44.8882333,51.5444195 44.8882333,51.123907 C44.8882333,50.9136507 44.855035,50.8915185 44.6447787,50.9800475 C44.5009191,51.0353781 44.2574645,51.1017748 44.0914727,51.1349731 C43.9254809,51.1681715 43.6930924,51.3452294 43.560299,51.5333534 C43.3279105,51.865337 43.006993,53.0826102 43.006993,53.6801806 L43.006993,54.0010981 L43.2615138,53.62485 C43.4053733,53.4145937 43.6709602,53.1932714 43.8701503,53.1268746 Z M46.9243993,53.2818003 C46.8358704,52.3190479 46.5924157,51.5001551 46.3268289,51.2567004 C46.2051015,51.1460392 45.8841841,51.0243119 45.6075311,50.9800475 C45.1427541,50.9136507 45.1095557,50.9247169 45.1095557,51.1571054 C45.1095557,51.677213 45.3640765,52.5625025 45.5632666,52.7616927 C45.6739278,52.8723539 45.8952502,52.971949 46.0501759,52.971949 C46.3821595,52.971949 46.8801348,53.4477921 46.8801348,53.7576435 C46.8801348,53.8793708 46.9022671,53.9678997 46.9354654,53.9678997 C46.9686638,53.9678997 46.9575977,53.6580484 46.9243993,53.2818003 Z M59.8828253,52.8944861 C59.4291144,52.1973206 58.5548909,51.2013698 58.10118,50.8693863 C57.448279,50.4046092 56.9613697,50.3382125 56.4744605,50.6369977 C56.2642042,50.7587251 55.9875512,50.8693863 55.8547578,50.8693863 C55.7330304,50.8693863 55.6223693,50.9025846 55.6223693,50.935783 C55.6223693,51.1017748 56.4523282,52.1198578 56.9171052,52.5293042 C57.4814773,53.0272796 57.636403,53.0494118 58.3888991,52.7838249 C58.8979406,52.606767 58.9200729,52.606767 59.4512466,52.88342 C59.7500318,53.0383457 60.0156187,53.1711391 60.0377509,53.1822052 C60.0598832,53.1822052 59.9824203,53.0604779 59.8828253,52.8944861 Z M48.9826975,51.9317337 C48.9826975,51.8100064 49.2150861,51.489089 49.5138713,51.2235021 L50.0339789,50.7365928 L50.0339789,49.7738404 C50.0339789,49.2537328 49.9897144,48.6893607 49.9454499,48.5233689 L49.8679871,48.2245837 L49.4696068,48.4901706 C49.2482844,48.6450962 49.026962,48.7668236 48.9826975,48.7668236 C48.7835074,48.7668236 48.5511189,49.5414519 48.5400528,50.2607497 C48.5179205,51.2013698 48.750309,52.5071719 48.8831025,52.2969157 C48.9384331,52.2083867 48.9826975,52.0423949 48.9826975,51.9317337 Z M52.8669055,50.0836918 C52.2804012,48.534435 51.5389712,47.7708728 50.8528717,48.0143274 C50.6758138,48.0807241 50.4212931,48.1028564 50.2995658,48.069658 C50.0339789,48.0032613 50.0671773,48.158187 50.5319543,49.1652039 C50.9635329,50.1279563 51.2069876,50.3160803 51.8709547,50.2386174 C52.3467979,50.1832868 52.4242607,50.2054191 52.7119798,50.4931382 C52.8779716,50.6701961 53.0328973,50.7808573 53.0550295,50.7476589 C53.0660956,50.7144606 52.9886328,50.4046092 52.8669055,50.0836918 Z M43.560299,50.0172951 C43.6488279,49.9398322 43.836952,49.8734355 43.9697454,49.8734355 C44.1025388,49.8734355 44.3127951,49.7406421 44.4345224,49.5857164 C44.6779771,49.275865 44.9988945,48.3352449 44.9988945,47.9368646 C44.9988945,47.7044761 44.9767623,47.7044761 44.5119853,47.8151373 C43.9254809,47.9700629 43.7152247,48.1360547 43.4607039,48.6450962 C43.2504476,49.0545427 43.006993,50.0283612 43.006993,50.4599398 C43.006993,50.6923283 43.006993,50.6923283 43.195117,50.4267415 C43.2947121,50.2718158 43.4607039,50.0947579 43.560299,50.0172951 Z M46.8801348,49.4086585 C46.7694736,48.3684432 46.526019,47.9921952 45.8288535,47.8151373 C45.5300683,47.7376744 45.2534153,47.7044761 45.231283,47.7266083 C45.1980847,47.7598067 45.231283,48.1471209 45.2976797,48.6118979 C45.4083409,49.3975924 45.6849939,49.9398322 45.8841841,49.8181049 C46.061242,49.7074437 46.5592174,49.9840967 46.6809447,50.2718158 C46.802672,50.5263366 46.8248042,50.5374027 46.8801348,50.3492786 C46.9243993,50.2386174 46.9243993,49.8181049 46.8801348,49.4086585 Z M54.9362698,50.4378076 C55.0579972,50.3714109 54.9916004,50.1611546 54.6485507,49.4639891 C52.6123847,45.4248555 51.2401859,40.6332257 50.5651526,35.2661577 C50.2884996,33.0086694 50.2884996,26.866973 50.5651526,24.4766912 C51.1627231,19.4416068 52.4131946,14.2626629 53.9735174,10.3341905 C54.2169721,9.74768614 54.4050961,9.23864464 54.4050961,9.20544628 C54.4050961,9.18331404 54.305501,9.10585121 54.1837737,9.03945449 C53.9735174,8.92879329 53.9181868,8.99519001 53.4534098,9.98007465 C53.1767568,10.566579 52.6898476,11.7063893 52.3689301,12.5031499 C49.8347887,18.7997719 47.1678539,29.9322881 45.5522005,40.9430771 C45.1427541,43.7649375 45.1427541,43.7870698 45.4747377,43.7870698 C45.7292584,43.7870698 45.7403245,43.7317392 45.9837792,41.9943584 C46.4928207,38.2429439 47.9646145,29.9544204 48.2080692,29.456445 C48.2965981,29.2793871 48.3076643,29.3125854 48.2633998,29.6224368 C48.2412675,29.8326931 48.1527386,31.027834 48.0863419,32.2783055 C47.8871517,35.8526621 48.0863419,40.2348454 48.6064495,43.7870698 C48.7835074,45.0264752 49.2925489,47.6380794 49.3700117,47.7819389 C49.4696068,47.9257985 49.8679871,47.7487406 49.8679871,47.5606165 C49.8679871,47.4610214 49.7905243,47.0847734 49.7130614,46.7195914 C48.8720363,43.1231026 48.4183254,37.1252658 48.6396478,32.6656197 C48.838838,28.8699407 49.3478795,24.8861376 49.9786483,22.2966657 C50.1003756,21.7876242 50.2221029,21.2785827 50.2442352,21.1568554 C50.3106319,20.6699461 50.6758138,19.3198795 50.7090122,19.364144 C50.7532767,19.4084085 50.3327641,22.1970706 50.1225079,23.3147487 C50.0893095,23.5250049 50.0561111,23.7352612 50.0671773,23.7684596 C50.0782434,23.8016579 50.0339789,24.2775011 49.9786483,24.8197409 C49.8015904,26.4685927 49.7573259,27.3538823 49.7573259,29.9544204 C49.7462598,37.1252658 51.0520619,43.1452348 54.0067158,49.4639891 C54.4936251,50.5042043 54.6264185,50.6369977 54.9362698,50.4378076 Z M43.7926875,46.7306576 C43.9586793,46.6310625 44.1910678,46.5535996 44.3127951,46.5535996 C44.6890432,46.5535996 45.0984896,45.8121696 45.3751426,44.639161 C45.4415393,44.3514419 45.4304732,44.3403757 45.231283,44.4399708 C45.1095557,44.5063675 44.8661011,44.5616981 44.6890432,44.5616981 C44.0582744,44.5616981 43.5049684,45.5244505 43.1840509,47.1622362 L43.1176542,47.4942198 L43.2947121,47.2065007 C43.4053733,47.0405089 43.6266957,46.8302526 43.7926875,46.7306576 Z M47.1014572,45.8011035 C47.0461266,45.4691199 46.9243993,45.0818058 46.8358704,44.9490123 C46.6809447,44.7055577 45.8288535,44.4067725 45.6407295,44.5174337 C45.507936,44.6059626 45.5411344,45.6683101 45.69606,46.0998887 C45.7956551,46.3876079 45.9284486,46.5093352 46.2161677,46.6089302 C46.4264239,46.675327 46.7030769,46.8855832 46.8248042,47.0737073 L47.0461266,47.4056909 L47.1346556,46.9187816 C47.1789201,46.6310625 47.1678539,46.1552193 47.1014572,45.8011035 Z" id="Wheat" fill="#EFC708" fill-rule="nonzero" transform="translate(59.412210, 40.993007) scale(-1, 1) rotate(-180.000000) translate(-59.412210, -40.993007) "></path>
                <g id="Group" transform="translate(24.565716, 51.199467) scale(-1, 1) rotate(-180.000000) translate(-24.565716, -51.199467) translate(0.000000, 42.590232)" fill="#000000" fill-rule="nonzero">
                    <path d="M16.3461538,17.0674429 C15.1048951,16.9975128 14.0559441,16.9275827 14.0384615,16.9101002 C14.0034965,16.9101002 13.986014,16.7702401 13.986014,16.6303799 C13.986014,16.4380723 14.1783217,16.3681422 14.6678322,16.3681422 C15.7867133,16.3681422 16.2062937,16.1233869 16.4160839,15.3716387 C16.6608392,14.4975128 16.6783217,2.87163865 16.4335664,2.0149953 C16.2062937,1.17583446 15.9440559,1.00100928 14.8776224,0.861149146 C14.3006993,0.791219076 13.986014,0.686323971 13.986014,0.528981314 C13.986014,0.336673622 14.7202797,0.284226069 17.9195804,0.284226069 C21.2937063,0.284226069 21.8531469,0.319191104 21.8531469,0.546463831 C21.8531469,0.721289006 21.6783217,0.808701594 21.2937063,0.808701594 C20.2797203,0.808701594 19.4755245,1.12338691 19.2657343,1.6128974 C19.1258741,1.89261768 19.0559441,3.18632397 19.0559441,5.17933096 L19.0559441,8.32618411 L19.6678322,8.32618411 C20.541958,8.32618411 21.2412587,7.64436593 23.5664336,4.49751278 C24.6678322,3.02898131 25.8741259,1.47303726 26.2587413,1.05345684 L26.9755245,0.284226069 L29.3006993,0.284226069 C31.2412587,0.284226069 31.6433566,0.336673622 31.6433566,0.546463831 C31.6433566,0.686323971 31.3986014,0.843666629 30.9965035,0.913596699 C29.3531469,1.21079949 28.4265734,1.98003026 26.1713287,4.88212817 C25.2447552,6.07093935 24.1083916,7.39961068 23.6363636,7.83667362 L22.7622378,8.65835194 L23.6188811,8.83317712 C26.1363636,9.37513516 27.6748252,11.2457646 27.3776224,13.3961142 C27.1678322,14.9345757 25.7517483,16.2807296 23.7587413,16.8052051 C22.5699301,17.1198904 19.3006993,17.2422681 16.3461538,17.0674429 Z M23.1118881,15.9835268 C24.1958042,15.4066037 24.6503497,14.4101002 24.6503497,12.714296 C24.6503497,10.2317785 23.7762238,9.32268761 21.1188811,9.02548481 C20.3146853,8.9205897 19.527972,8.85065963 19.3706294,8.85065963 C19.0734266,8.85065963 19.0559441,9.14786243 19.0559441,12.714296 L19.0559441,16.5954149 L20.7167832,16.4905198 C21.993007,16.4205897 22.5524476,16.2982121 23.1118881,15.9835268 Z" id="Shape"></path>
                    <path d="M37.5524476,16.9625478 C35.0874126,16.3681422 32.9195804,14.707303 31.9055944,12.644366 C29.9475524,8.64086942 31.3636364,3.4135967 35,1.28072956 C37.6748252,-0.27521449 41.6958042,-0.432557148 44.5104895,0.913596699 C45.8566434,1.56044984 47.6923077,3.37863166 48.2867133,4.65485544 C49.458042,7.17233796 49.4055944,10.4066037 48.1643357,12.8716387 C47.6223776,13.9555548 46.1363636,15.4415688 44.965035,16.0709394 C43.006993,17.137373 39.8251748,17.5219883 37.5524476,16.9625478 Z M41.9230769,16.3506597 C44.6153846,15.7562541 46.3286713,12.7492611 46.3286713,8.71079949 C46.3286713,3.34366663 43.9685315,0.441568727 39.7902098,0.668841454 C37.027972,0.826184111 35.3146853,2.06744285 34.4055944,4.6198904 C33.951049,5.89611418 33.7587413,9.72478551 34.0909091,11.3331771 C34.8951049,15.4765338 37.7447552,17.2947156 41.9230769,16.3506597 Z" id="Shape"></path>
                    <path d="M0.402097902,16.9450653 C0.174825175,16.9101002 0,16.7527576 0,16.6128974 C0,16.4380723 0.227272727,16.3681422 0.786713287,16.3681422 C1.3986014,16.3681422 1.6958042,16.2632471 2.01048951,15.9310792 L2.44755245,15.5114988 L2.44755245,8.71079949 C2.44755245,2.1198904 2.43006993,1.89261768 2.08041958,1.45555474 C1.81818182,1.10590439 1.5034965,0.966044251 0.856643357,0.878631664 C0.297202797,0.808701594 0,0.686323971 0,0.528981314 C0,0.336673622 0.699300699,0.284226069 3.75874126,0.284226069 C6.81818182,0.284226069 7.51748252,0.336673622 7.51748252,0.528981314 C7.51748252,0.686323971 7.2027972,0.791219076 6.60839161,0.861149146 C5.03496503,1.05345684 5,1.15835194 4.93006993,4.89961068 L4.86013986,8.09891138 L7.30769231,8.18632397 C9.51048951,8.25625404 9.82517483,8.30870159 10.7167832,8.72828201 C11.8181818,9.27024005 12.5174825,10.1094009 12.8671329,11.2632471 C13.3916084,12.9590513 13.0594406,14.3226876 11.8706294,15.5289813 C10.5944056,16.8052051 9.98251748,16.9450653 4.98251748,16.9975128 C2.67482517,17.0149953 0.611888112,16.9975128 0.402097902,16.9450653 Z M8.6013986,16.0534569 C9.49300699,15.6688415 10.0174825,15.0394709 10.2972028,14.0080023 C10.6293706,12.7842261 10.541958,11.6303799 10.0174825,10.5814289 C9.37062937,9.34017012 8.54895105,8.9205897 6.43356643,8.74576453 L4.8951049,8.64086942 L4.8951049,12.4695408 C4.8951049,14.5849254 4.94755245,16.3681422 5.03496503,16.4380723 C5.26223776,16.6828275 7.7972028,16.4205897 8.6013986,16.0534569 Z" id="Shape"></path>
                </g>
                <rect id="Rectangle-2" x="0" y="0" width="150" height="100"></rect>
            </g>
            <rect id="Rectangle-Copy-3" x="0" y="0" width="170" height="160"></rect>
        </g>
    </g>
</svg>