<svg height="160" viewBox="0 0 170 160" width="170" xmlns="http://www.w3.org/2000/svg" xmlns:xlink="http://www.w3.org/1999/xlink"><defs><path id="a" d="m0 0h170v160h-170z"/><mask id="b" fill="#fff"><use fill="#fff" fill-rule="evenodd" xlink:href="#a"/></mask></defs><g fill="none" fill-rule="evenodd"><use fill="#fff" xlink:href="#a"/><g mask="url(#b)"><g transform="translate(-11 39)"><path d="m181.533245 82.7562589h-179.1470777c-1.31795974 0-2.3861673-1.0682076-2.3861673-2.3861673s1.06820756-2.3861673 2.3861673-2.3861673h179.1470777c1.31796 0 2.386167 1.0682076 2.386167 2.3861673 0 1.3176946-1.068472 2.3861673-2.386167 2.3861673z" fill="#848484" fill-opacity=".278431" fill-rule="nonzero"/><path d="m173.739227 58.2553582c0-9.8697182-7.477718-17.9776496-17.160785-18.896324v-2.2300059h-5.809787v42.6058125h5.809787v-2.5828935c9.683067-.9186744 17.160785-9.0268709 17.160785-18.8965891zm-17.160785 12.772093v-25.5436558c6.197142.8895102 11.078445 6.2764154 11.078445 12.7718279 0 6.4954126-4.881303 11.8823178-11.078445 12.7718279z" fill="#f09f54" fill-rule="nonzero"/><path d="m156.578442 39.3590342v-2.2300059h-5.809787v42.6058125h5.809787v-2.5828935c9.683067-.9186744 17.160785-9.0266058 17.160785-18.896324s-7.477718-17.9779147-17.160785-18.8965891zm0 35.8415585v2.2103863h-5.422432v-38.3454434h5.422432v2.2445881c8.521269.823758 15.388658 8.0946749 15.388658 16.9449694 0 8.8508247-6.867389 16.1217416-15.388658 16.9454996z" fill="#f09f54" fill-opacity=".286275" fill-rule="nonzero"/><path d="m173.739227 58.2553582c0-9.8697182-7.477718-17.9776496-17.160785-18.896324v-2.2300059h-5.809787v42.6058125h5.809787v-2.5828935c9.683067-.9186744 17.160785-9.0268709 17.160785-18.8965891zm-17.160785 12.772093v-25.5436558c6.197142.8895102 11.078445 6.2764154 11.078445 12.7718279 0 6.4954126-4.881303 11.8823178-11.078445 12.7718279z" fill="none" stroke="#444e59" stroke-linecap="square" stroke-width="1.060519"/><path d="m153.092517 75.474207h-2.323862" fill="none" stroke="#444e59" stroke-linecap="square" stroke-width=".795389"/><path d="m153.092517 71.213572h-2.323862" fill="none" stroke="#444e59" stroke-linecap="square" stroke-width=".795389"/><path d="m153.092517 66.953203h-2.323862" fill="none" stroke="#444e59" stroke-linecap="square" stroke-width=".795389"/><path d="m153.092517 62.692569h-2.323862" fill="none" stroke="#444e59" stroke-linecap="square" stroke-width=".795389"/><path d="m153.092517 58.431935h-2.323862" fill="none" stroke="#444e59" stroke-linecap="square" stroke-width=".795389"/><path d="m153.092517 54.1713h-2.323862" fill="none" stroke="#444e59" stroke-linecap="square" stroke-width=".795389"/><path d="m153.092517 49.910666h-2.323862" fill="none" stroke="#444e59" stroke-linecap="square" stroke-width=".795389"/><path d="m153.092517 45.650297h-2.323862" fill="none" stroke="#444e59" stroke-linecap="square" stroke-width=".795389"/><path d="m153.092517 41.389663h-2.323862" fill="none" stroke="#444e59" stroke-linecap="square" stroke-width=".795389"/><path d="m137.895283 15.5692114h8.77102v64.0667361h-8.77102z" fill="#f09f54" fill-rule="nonzero"/><path d="m137.895283 15.5692114h8.77102v64.0667361h-8.77102z" fill="#f09f54" fill-rule="nonzero"/><path d="m142.852943 15.5692114h3.813625v64.0667361h-3.813625z" fill="#f09f54" fill-opacity=".286275" fill-rule="nonzero"/><g stroke="#444e59"><path d="m137.895283 15.5692114h8.77102v64.0667361h-8.77102z" fill="none" stroke-linecap="square" stroke-width="1.060519"/><path d="m140.94613 73.152996h-3.050847" fill="none" stroke-linecap="square" stroke-width=".795389"/><path d="m139.802095 76.203844h-1.906812" fill="none" stroke-linecap="square" stroke-width=".795389"/><path d="m140.94613 67.051566h-3.050847" fill="none" stroke-linecap="square" stroke-width=".795389"/><path d="m139.802095 70.102414h-1.906812" fill="none" stroke-linecap="square" stroke-width=".795389"/><path d="m140.94613 60.949871h-3.050847" fill="none" stroke-linecap="square" stroke-width=".795389"/><path d="m139.802095 64.000719h-1.906812" fill="none" stroke-linecap="square" stroke-width=".795389"/><path d="m140.94613 54.848176h-3.050847" fill="none" stroke-linecap="square" stroke-width=".795389"/><path d="m139.802095 57.899024h-1.906812" fill="none" stroke-linecap="square" stroke-width=".795389"/><path d="m140.94613 48.746747h-3.050847" fill="none" stroke-linecap="square" stroke-width=".795389"/><path d="m139.802095 51.797594h-1.906812" fill="none" stroke-linecap="square" stroke-width=".795389"/><path d="m140.94613 42.645052h-3.050847" fill="none" stroke-linecap="square" stroke-width=".795389"/><path d="m139.802095 45.695899h-1.906812" fill="none" stroke-linecap="square" stroke-width=".795389"/><path d="m140.94613 36.543622h-3.050847" fill="none" stroke-linecap="square" stroke-width=".795389"/><path d="m139.802095 39.594204h-1.906812" fill="none" stroke-linecap="square" stroke-width=".795389"/><path d="m140.94613 30.441927h-3.050847" fill="none" stroke-linecap="square" stroke-width=".795389"/><path d="m139.802095 33.492775h-1.906812" fill="none" stroke-linecap="square" stroke-width=".795389"/><path d="m140.94613 24.340232h-3.050847" fill="none" stroke-linecap="square" stroke-width=".795389"/><path d="m139.802095 27.39108h-1.906812" fill="none" stroke-linecap="square" stroke-width=".795389"/><path d="m140.94613 18.238802h-3.050847" fill="none" stroke-linecap="square" stroke-width=".795389"/><path d="m139.802095 21.28965h-1.906812" fill="none" stroke-linecap="square" stroke-width=".795389"/></g><path d="m121.683397 31.0676331h3.431308v9.0462254h-3.431308z" fill="#848484" fill-rule="nonzero"/><path d="m121.683397 31.0676331h1.26732v9.0462254h-1.26732z" fill="#848484" fill-opacity=".247059" fill-rule="nonzero"/><path d="m121.683397 31.0676331h3.431308v9.0462254h-3.431308z" fill="none" stroke="#444e59" stroke-linecap="square" stroke-width="1.060519"/><path d="m122.619305 40.1138585h1.559758v4.3672164h-1.559758z" fill="#fff" fill-rule="nonzero"/><path d="m122.619305 40.1138585h1.559758v4.3672164h-1.559758z" fill="none" stroke="#444e59" stroke-linecap="square" stroke-width="1.060519"/><path d="m120.762601 48.4031386-7.9523 31.2017887 12.083551-30.7932239z" fill="#fff" fill-rule="nonzero"/><path d="m120.762601 48.4031386-7.9523 31.2017887 12.083551-30.7932239z" fill="none" stroke="#444e59" stroke-linecap="square" stroke-width="1.060519"/><path d="m126.064135 48.4031386 7.9523 31.2017887-12.083816-30.7932239z" fill="#fff" fill-rule="nonzero"/><path d="m126.064135 48.4031386 7.9523 31.2017887-12.083816-30.7932239z" fill="none" stroke="#444e59" stroke-linecap="square" stroke-width="1.060519"/><path d="m128.717553 49.2072769c0 1.4643432-.517714 2.7142415-1.553167 3.749687-1.035445 1.0354534-2.285336 1.5531695-3.749692 1.5531695-1.464338 0-2.714239-.5177161-3.74969-1.5531695-1.035443-1.0354455-1.553169-2.2853438-1.553169-3.749687 0-1.4643431.517726-2.7142388 1.553169-3.7496869 1.035451-1.0354428 2.285352-1.5531695 3.74969-1.5531695 1.464356 0 2.714247.5177267 3.749692 1.5531695 1.035453 1.0354481 1.553167 2.2853438 1.553167 3.7496869 0 .0617063-.001061.1233967-.003235.1850685" fill="#71a850" fill-rule="nonzero"/><path d="m119.590993 49.2072769c0-2.6770146 1.985557-4.8847496 4.563148-5.245326-.242329-.0339366-.487839-.0575331-.739712-.0575331-2.928623 0-5.302859 2.3742365-5.302859 5.3028591 0 2.9286227 2.374236 5.3028592 5.302859 5.3028592.251608 0 .497383-.0235966.739712-.0575332-2.577326-.3605764-4.563148-2.5683114-4.563148-5.245326z" fill="#71a850" fill-opacity=".4" fill-rule="nonzero"/><path d="m128.717553 49.2072769c0 1.4643432-.517714 2.7142415-1.553167 3.749687-1.035445 1.0354534-2.285336 1.5531695-3.749692 1.5531695-1.464338 0-2.714239-.5177161-3.74969-1.5531695-1.035443-1.0354455-1.553169-2.2853438-1.553169-3.749687 0-1.4643431.517726-2.7142388 1.553169-3.7496869 1.035451-1.0354428 2.285352-1.5531695 3.74969-1.5531695 1.464356 0 2.714247.5177267 3.749692 1.5531695 1.035453 1.0354481 1.553167 2.2853438 1.553167 3.7496869 0 .0617063-.001061.1233967-.003235.1850685" fill="none" stroke="#444e59" stroke-linecap="square" stroke-width="1.060519"/><path d="m125.211213 49.2072769c0 .4960948-.175389.9195388-.526187 1.2703292-.350791.3507958-.77424.5261897-1.270332.5261897-.49609 0-.919528-.1753939-1.270327-.5261897-.35079-.3507904-.526192-.7742344-.526192-1.2703292s.175402-.9195387.526192-1.2703292c.350799-.3507904.774237-.5261896 1.270327-.5261896.496092 0 .919541.1753992 1.270332.5261896.350798.3507905.526187.7742344.526187 1.2703292 0 .0209029-.000364.041803-.001087.0626979" fill="#444e59" fill-rule="nonzero"/><path d="m125.211213 49.2072769c0 .4960948-.175389.9195388-.526187 1.2703292-.350791.3507958-.77424.5261897-1.270332.5261897-.49609 0-.919528-.1753939-1.270327-.5261897-.35079-.3507904-.526192-.7742344-.526192-1.2703292s.175402-.9195387.526192-1.2703292c.350799-.3507904.774237-.5261896 1.270327-.5261896.496092 0 .919541.1753992 1.270332.5261896.350798.3507905.526187.7742344.526187 1.2703292 0 .0209029-.000364.041803-.001087.0626979" fill="none" stroke="#444e59" stroke-linecap="square" stroke-width="1.060519"/><path d="m104.265966 79.53891h-34.9971201c-2.0499828 0-3.7118158-1.661833-3.7118158-3.7118158v-72.1152784c0-2.04998284 1.661833-3.7118158 3.7118158-3.7118158h34.9971201c2.049983 0 3.711816 1.66183296 3.711816 3.7118158v72.1152784c0 2.0499828-1.661833 3.7118158-3.711816 3.7118158z" fill="#848484" fill-rule="nonzero"/><path d="m104.265966 0h-2.241936c2.049982 0 3.711815 1.66183296 3.711815 3.7118158v72.1152784c0 2.0499828-1.661833 3.7118158-3.711815 3.7118158h2.241936c2.049983 0 3.711816-1.661833 3.711816-3.7118158v-72.1152784c0-2.04998284-1.661833-3.7118158-3.711816-3.7118158z" fill="#848484" fill-opacity=".278431" fill-rule="nonzero"/><path d="m67.7663559 75.8270942v-72.1152784c0-2.04998284 1.661833-3.7118158 3.7118158-3.7118158h-2.2093258c-2.0499828 0-3.7118158 1.66183296-3.7118158 3.7118158v72.1152784c0 2.0499828 1.661833 3.7118158 3.7118158 3.7118158h2.2093258c-2.0499828 0-3.7118158-1.661833-3.7118158-3.7118158z" fill="#848484" fill-opacity=".478431" fill-rule="nonzero"/><path d="m104.265966 79.53891h-34.9971201c-2.0499828 0-3.7118158-1.661833-3.7118158-3.7118158v-72.1152784c0-2.04998284 1.661833-3.7118158 3.7118158-3.7118158h34.9971201c2.049983 0 3.711816 1.66183296 3.711816 3.7118158v72.1152784c0 2.0499828-1.661833 3.7118158-3.711816 3.7118158z" fill="none" stroke="#444e59" stroke-linecap="square" stroke-width="1.060519"/><path d="m57.0728785 18.4360459h59.3890495v42.4207522h-59.3890495z" fill="#e9fbff" fill-rule="nonzero" transform="matrix(.00000007 1 -1 .00000007 126.413819 -47.120984)"/><path d="m107.759315 29.0828722h-3.309084c-1.799435 0-3.258178-1.4587436-3.258178-3.2581789v-8.0869861c0-1.7994353 1.458743-3.2581789 3.258178-3.2581789h3.309084zm-39.7763481 32.7875295h-2.4259368v-25.7896962h2.4259368c1.8262134 0 3.3066976 1.4804842 3.3066976 3.3066976v19.1765661c0 1.8262133-1.4804842 3.3064325-3.3066976 3.3064325z" fill="#c9c9c9" fill-rule="nonzero"/><path d="m57.0728785 18.4360459h59.3890495v42.4207522h-59.3890495z" fill="none" stroke="#444e59" stroke-linecap="square" stroke-width="1.060519" transform="matrix(.00000007 1 -1 .00000007 126.413819 -47.120984)"/><g fill="none" fill-rule="evenodd" stroke="#444e59" stroke-width="1.325649" transform="translate(79.078645 5.179574)"><path d="m13.521615.132565h1.855908"/><path d="m0 .132565h10.605188"/></g><g fill="none" fill-rule="nonzero" transform="translate(83.863441 70.913976)"><path d="m5.80793121 2.9039656c0 .80190811-.28351724 1.48637941-.85055199 2.05341362-.56703421.56703475-1.25150551.85055199-2.05341362.85055199-.801908 0-1.48637927-.28351724-2.05341367-.85055199-.56703461-.56703421-.85055193-1.25150551-.85055193-2.05341362 0-.801908.28351732-1.48637927.85055193-2.05341367.5670344-.56703461 1.25150567-.85055193 2.05341367-.85055193.80190811 0 1.48637941.28351732 2.05341362.85055193.56703475.5670344.85055199 1.25150567.85055199 2.05341367 0 .03379264-.00058965.06757494-.00176895.10134716" fill="#848484" fill-opacity=".286275"/><path d="m5.13158534 2.9039656c0 .61514041-.21748483 1.14019532-.65245449 1.57516525-.43496993.43496966-.96002484.65245449-1.57516525.65245449-.61514014 0-1.14019531-.21748483-1.57516511-.65245449-.43496979-.43496993-.65245473-.96002484-.65245473-1.57516525 0-.61514014.21748494-1.14019531.65245473-1.57516511.4349698-.43496979.96002497-.65245473 1.57516511-.65245473.61514041 0 1.14019532.21748494 1.57516525.65245473.43496966.4349698.65245449.96002497.65245449 1.57516511 0 .02592227-.00045231.05183657-.00135693.07774266" fill="#444e59"/></g><g fill="none" fill-rule="evenodd" stroke="#444e59" stroke-width=".530259" transform="translate(70.711152 15.569211)"><path d="m6.3631128 46.6628272h-4.2420752c-1.17134301 0-2.1210376-.9496946-2.1210376-2.1210376v-4.2420752c0-1.171343.94969459-2.1210376 2.1210376-2.1210376h4.2420752c1.17134301 0 2.1210376.9496946 2.1210376 2.1210376v4.2420752c0 1.1716081-.94969459 2.1210376-2.1210376 2.1210376zm23.4798862 0h-4.2420752c-1.171343 0-2.1210376-.9496946-2.1210376-2.1210376v-4.2420752c0-1.171343.9496946-2.1210376 2.1210376-2.1210376h4.2420752c1.171343 0 2.1210376.9496946 2.1210376 2.1210376v4.2420752c0 1.1716081-.9496946 2.1210376-2.1210376 2.1210376zm-11.6657068 0h-4.2420752c-1.171343 0-2.1210376-.9496946-2.1210376-2.1210376v-4.2420752c0-1.171343.9496946-2.1210376 2.1210376-2.1210376h4.2420752c1.171343 0 2.1210376.9496946 2.1210376 2.1210376v4.2420752c0 1.1716081-.9496946 2.1210376-2.1210376 2.1210376zm-11.8141794-12.7262256h-4.2420752c-1.17134301 0-2.1210376-.9496946-2.1210376-2.1210376v-4.2420752c0-1.171343.94969459-2.1210376 2.1210376-2.1210376h4.2420752c1.17134301 0 2.1210376.9496946 2.1210376 2.1210376v4.2420752c0 1.1716081-.94969459 2.1210376-2.1210376 2.1210376zm23.4798862 0h-4.2420752c-1.171343 0-2.1210376-.9496946-2.1210376-2.1210376v-4.2420752c0-1.171343.9496946-2.1210376 2.1210376-2.1210376h4.2420752c1.171343 0 2.1210376.9496946 2.1210376 2.1210376v4.2420752c0 1.1716081-.9496946 2.1210376-2.1210376 2.1210376zm-11.6657068 0h-4.2420752c-1.171343 0-2.1210376-.9496946-2.1210376-2.1210376v-4.2420752c0-1.171343.9496946-2.1210376 2.1210376-2.1210376h4.2420752c1.171343 0 2.1210376.9496946 2.1210376 2.1210376v4.2420752c0 1.1716081-.9496946 2.1210376-2.1210376 2.1210376z"/><path d="m6.3631128 8.4841504h-4.2420752c-1.17134301 0-2.1210376-.94969459-2.1210376-2.1210376v-4.2420752c0-1.17134301.94969459-2.1210376 2.1210376-2.1210376h4.2420752c1.17134301 0 2.1210376.94969459 2.1210376 2.1210376v4.2420752c0 1.17160814-.94969459 2.1210376-2.1210376 2.1210376zm23.4798862 0h-4.2420752c-1.171343 0-2.1210376-.94969459-2.1210376-2.1210376v-4.2420752c0-1.17134301.9496946-2.1210376 2.1210376-2.1210376h4.2420752c1.171343 0 2.1210376.94969459 2.1210376 2.1210376v4.2420752c0 1.17160814-.9496946 2.1210376-2.1210376 2.1210376zm-11.6657068 0h-4.2420752c-1.171343 0-2.1210376-.94969459-2.1210376-2.1210376v-4.2420752c0-1.17134301.9496946-2.1210376 2.1210376-2.1210376h4.2420752c1.171343 0 2.1210376.94969459 2.1210376 2.1210376v4.2420752c0 1.17160814-.9496946 2.1210376-2.1210376 2.1210376z" transform="translate(0 12.726226)"/><path d="m6.3631128 8.4841504h-4.2420752c-1.17134301 0-2.1210376-.94969459-2.1210376-2.1210376v-4.2420752c0-1.17134301.94969459-2.1210376 2.1210376-2.1210376h4.2420752c1.17134301 0 2.1210376.94969459 2.1210376 2.1210376v4.2420752c0 1.17160814-.94969459 2.1210376-2.1210376 2.1210376zm23.4798862 0h-4.2420752c-1.171343 0-2.1210376-.94969459-2.1210376-2.1210376v-4.2420752c0-1.17134301.9496946-2.1210376 2.1210376-2.1210376h4.2420752c1.171343 0 2.1210376.94969459 2.1210376 2.1210376v4.2420752c0 1.17160814-.9496946 2.1210376-2.1210376 2.1210376zm-11.6657068 0h-4.2420752c-1.171343 0-2.1210376-.94969459-2.1210376-2.1210376v-4.2420752c0-1.17134301.9496946-2.1210376 2.1210376-2.1210376h4.2420752c1.171343 0 2.1210376.94969459 2.1210376 2.1210376v4.2420752c0 1.17160814-.9496946 2.1210376-2.1210376 2.1210376z"/></g><path d="m77.0742643 62.2320386h-4.2420752c-1.171343 0-2.1210376-.9496946-2.1210376-2.1210376v-4.2420752c0-1.171343.9496946-2.1210376 2.1210376-2.1210376h4.2420752c1.171343 0 2.1210376.9496946 2.1210376 2.1210376v4.2420752c0 1.1716081-.9496946 2.1210376-2.1210376 2.1210376z" fill="#71a850" fill-rule="nonzero"/><path d="m77.0729387 53.7478882h-4.2420752c-.8494756 0-1.5804382.50083-1.9190088 1.2219828l8.2821216 1.4913545v-.5925649c0-1.1710778-.9494295-2.1207724-2.1210376-2.1207724z" fill="#5f8c42" fill-opacity=".517647" fill-rule="nonzero"/><path d="m77.0742643 62.2320386h-4.2420752c-1.171343 0-2.1210376-.9496946-2.1210376-2.1210376v-4.2420752c0-1.171343.9496946-2.1210376 2.1210376-2.1210376h4.2420752c1.171343 0 2.1210376.9496946 2.1210376 2.1210376v4.2420752c0 1.1716081-.9496946 2.1210376-2.1210376 2.1210376z" fill="none" stroke="#444e59" stroke-linecap="square" stroke-width="1.060519"/><path d="m88.8884437 62.2320386h-4.2420752c-1.171343 0-2.1210376-.9496946-2.1210376-2.1210376v-4.2420752c0-1.171343.9496946-2.1210376 2.1210376-2.1210376h4.2420752c1.1713431 0 2.1210376.9496946 2.1210376 2.1210376v4.2420752c0 1.1716081-.9496945 2.1210376-2.1210376 2.1210376z" fill="#f09f54" fill-rule="nonzero"/><path d="m88.8884437 53.7478882h-4.2420752c-.8494755 0-1.5804381.50083-1.9190087 1.2219828l8.2821215 1.4913545v-.5925649c0-1.1710778-.9496945-2.1207724-2.1210376-2.1207724z" fill="#d38444" fill-opacity=".517647" fill-rule="nonzero"/><path d="m88.8884437 62.2320386h-4.2420752c-1.171343 0-2.1210376-.9496946-2.1210376-2.1210376v-4.2420752c0-1.171343.9496946-2.1210376 2.1210376-2.1210376h4.2420752c1.1713431 0 2.1210376.9496946 2.1210376 2.1210376v4.2420752c0 1.1716081-.9496945 2.1210376-2.1210376 2.1210376z" fill="none" stroke="#444e59" stroke-linecap="square" stroke-width="1.060519"/><path d="m100.554151 49.505813h-4.2420757c-1.171343 0-2.1210376-.9496946-2.1210376-2.1210376v-4.2420752c0-1.171343.9496946-2.1210376 2.1210376-2.1210376h4.2420757c1.171343 0 2.121037.9496946 2.121037 2.1210376v4.2420752c0 1.1716081-.949694 2.1210376-2.121037 2.1210376z" fill="#2fa9ed" fill-rule="nonzero"/><path d="m100.554151 41.0216626h-4.2420757c-.8494755 0-1.5804381.50083-1.9190087 1.2219828l8.2821214 1.4913545v-.5925649c0-1.1710778-.949694-2.1207724-2.121037-2.1207724z" fill="#288fbc" fill-opacity=".517647" fill-rule="nonzero"/><path d="m100.554151 49.505813h-4.2420757c-1.171343 0-2.1210376-.9496946-2.1210376-2.1210376v-4.2420752c0-1.171343.9496946-2.1210376 2.1210376-2.1210376h4.2420757c1.171343 0 2.121037.9496946 2.121037 2.1210376v4.2420752c0 1.1716081-.949694 2.1210376-2.121037 2.1210376z" fill="none" stroke="#444e59" stroke-linecap="square" stroke-width="1.060519"/><path d="m88.8884437 36.7795874h-4.2420752c-1.171343 0-2.1210376-.9496946-2.1210376-2.1210376v-4.2420752c0-1.171343.9496946-2.1210376 2.1210376-2.1210376h4.2420752c1.1713431 0 2.1210376.9496946 2.1210376 2.1210376v4.2420752c0 1.1716081-.9496945 2.1210376-2.1210376 2.1210376z" fill="#e7534e" fill-rule="nonzero"/><path d="m88.8884437 28.295437h-4.2420752c-.8494755 0-1.5804381.50083-1.9190087 1.2219828l8.2821215 1.4913545v-.5925649c0-1.1710778-.9496945-2.1207724-2.1210376-2.1207724z" fill="#bf4040" fill-opacity=".517647" fill-rule="nonzero"/><path d="m88.8884437 36.7795874h-4.2420752c-1.171343 0-2.1210376-.9496946-2.1210376-2.1210376v-4.2420752c0-1.171343.9496946-2.1210376 2.1210376-2.1210376h4.2420752c1.1713431 0 2.1210376.9496946 2.1210376 2.1210376v4.2420752c0 1.1716081-.9496945 2.1210376-2.1210376 2.1210376z" fill="none" stroke="#444e59" stroke-linecap="square" stroke-width="1.060519"/><path d="m97.7424501 43.4009365 2.4376029 1.4073084c.350766.2025591.350766.7086917 0 .9109857l-2.4376029 1.4073084c-.3507666.2025591-.789026-.0506397-.789026-.4554928v-2.8146169c0-.404853.4382594-.6580519.789026-.4554928zm-9.8577874 12.9431017h-2.2347782c-.4745822 0-.8595505.3847032-.8595505.8595505v1.6400923c0 .4745822.3847032.8595505.8595505.8595505h.0678732l-.1850606.7418329c-.0135216.0540865.0477234.0959769.0933257.0636311l1.1299828-.8051989h1.1286571c.4745822 0 .8595505-.3847032.8595505-.8595505v-1.6400923c0-.4751124-.3849683-.8598156-.8595505-.8598156z" fill="#fff" fill-rule="nonzero"/><path d="m73.3311632 57.985191.9740865.9740866c.1333603.1333602.3497061.1333602.4833315 0l2.1897062-2.1897062" fill="none" stroke="#fff" stroke-linecap="square" stroke-width="1.060519"/><path d="m88.7442132 32.5375122c0 .5458808-.1929959 1.0118182-.5789903 1.3978131-.385997.3859981-.8519306.5789939-1.3978168.5789939-.5458755 0-1.0118144-.1929958-1.3978115-.5789939-.3859943-.3859949-.5789955-.8519323-.5789955-1.3978131 0-.5458795.1930012-1.0118172.5789955-1.3978142.3859971-.3859959.851936-.5789929 1.3978115-.5789929.5458862 0 1.0118198.192997 1.3978168.5789929.3859944.385997.5789903.8519347.5789903 1.3978142 0 .0230053-.0003977.046-.0012064.0689894" fill="none" stroke="#fff" stroke-linecap="square" stroke-width="1.060519"/><g fill="none" fill-rule="evenodd" transform="translate(51.827554 10.858652)"><g fill-rule="nonzero"><path d="m18.9302606 11.3491419-.0418905-3.96713566-2.6563345.02810375c-.1497983-.4944669-.3512968-.96613263-.5997234-1.40783871l1.858029-1.89753326-2.8350319-2.77564283-1.8580289 1.89753326c-.4470087-.23914699-.9226514-.43057063-1.4200347-.57002886l-.0281038-2.65633446-3.96713566.04189049.02810375 2.6565996c-.4944669.15006341-.96613263.35129685-1.40783871.59972338l-1.89779839-1.85802894-2.77564283 2.83503188 1.89753326 1.85802894c-.23914699.44674354-.43057063.92265136-.57002886 1.42003467l-2.65633446.02810375.04189049 3.9671357 2.6565996-.0281037c.14979828.4944668.35129685.9661326.59972338 1.4078387l-1.85802894 1.8975332 2.83476675 2.7756429 1.85802894-1.8975333c.44700867.239147.92265136.4305706 1.4202998.5700288l.02810375 2.6565996 3.96713573-.0418905-.0281038-2.6563344c.4944669-.1497983.9661327-.3512969 1.4078387-.5997234l1.8975333 1.8580289 2.7756428-2.8355621-1.8975332-1.8580289c.239147-.4467436.4305706-.9226514.5700288-1.4200347zm-9.43251936 1.2127033c-1.71008656.0180288-3.11129703-1.3537523-3.12932585-3.06383883-.01802882-1.71008656 1.35375225-3.11129703 3.06383882-3.12932585 1.71008659-.01802882 3.11129699 1.35375225 3.12932589 3.06383882.0182939 1.71035166-1.3534872 3.11129706-3.06383886 3.12932586z" fill="#fff"/><path d="m18.9302606 11.3491419-.0418905-3.96713566-2.6563345.02810375c-.1497983-.4944669-.3512968-.96613263-.5997234-1.40783871l1.858029-1.89753326-2.8350319-2.77564283-1.8580289 1.89753326c-.4470087-.23914699-.9226514-.43057063-1.4200347-.57002886l-.0281038-2.65633446-3.96713566.04189049.02810375 2.6565996c-.4944669.15006341-.96613263.35129685-1.40783871.59972338l-1.89779839-1.85802894-2.77564283 2.83503188 1.89753326 1.85802894c-.23914699.44674354-.43057063.92265136-.57002886 1.42003467l-2.65633446.02810375.04189049 3.9671357 2.6565996-.0281037c.14979828.4944668.35129685.9661326.59972338 1.4078387l-1.85802894 1.8975332 2.83476675 2.7756429 1.85802894-1.8975333c.44700867.239147.92265136.4305706 1.4202998.5700288l.02810375 2.6565996 3.96713573-.0418905-.0281038-2.6563344c.4944669-.1497983.9661327-.3512969 1.4078387-.5997234l1.8975333 1.8580289 2.7756428-2.8355621-1.8975332-1.8580289c.239147-.4467436.4305706-.9226514.5700288-1.4200347zm-9.43251936 1.2127033c-1.71008656.0180288-3.11129703-1.3537523-3.12932585-3.06383883-.01802882-1.71008656 1.35375225-3.11129703 3.06383882-3.12932585 1.71008659-.01802882 3.11129699 1.35375225 3.12932589 3.06383882.0182939 1.71035166-1.3534872 3.11129706-3.06383886 3.12932586z" fill="#f09f54"/><path d="m18.9302606 11.3491419-.0418905-3.96713566-2.6563345.02810375c-.1497983-.4944669-.3512968-.96613263-.5997234-1.40783871l1.858029-1.89753326-2.8350319-2.77564283-1.8580289 1.89753326c-.4470087-.23914699-.9226514-.43057063-1.4200347-.57002886l-.0281038-2.65633446-3.96713566.04189049.02810375 2.6565996c-.4944669.15006341-.96613263.35129685-1.40783871.59972338l-1.89779839-1.85802894-2.77564283 2.83503188 1.89753326 1.85802894c-.23914699.44674354-.43057063.92265136-.57002886 1.42003467l-2.65633446.02810375.04189049 3.9671357 2.6565996-.0281037c.14979828.4944668.35129685.9661326.59972338 1.4078387l-1.85802894 1.8975332 2.83476675 2.7756429 1.85802894-1.8975333c.44700867.239147.92265136.4305706 1.4202998.5700288l.02810375 2.6565996 3.96713573-.0418905-.0281038-2.6563344c.4944669-.1497983.9661327-.3512969 1.4078387-.5997234l1.8975333 1.8580289 2.7756428-2.8355621-1.8975332-1.8580289c.239147-.4467436.4305706-.9226514.5700288-1.4200347zm-9.43251936 1.2127033c-1.71008656.0180288-3.11129703-1.3537523-3.12932585-3.06383883-.01802882-1.71008656 1.35375225-3.11129703 3.06383882-3.12932585 1.71008659-.01802882 3.11129699 1.35375225 3.12932589 3.06383882.0182939 1.71035166-1.3534872 3.11129706-3.06383886 3.12932586z" fill="#f09f54"/><path d="m17.902883 7.3923463c.0018559.00583285.0039769.0116657.0058328.01749856l.9799194-.01034006-.0002651-.01776369zm-3.4289224-4.16571785 1.0371874-1.05945828-.8561038-.83834011-1.3699252 1.39935455c.4136023.1312392.8120923.29668014 1.1888416.49844384zm-3.364761 3.14205207c-.2786514.00291643-.5466975.04586744-.8028128.11771759 1.2887955.36349282 2.240346 1.53934304 2.2551933 2.94638636.0151123 1.43170033-.9451874 2.64334313-2.2612913 3.01160823.277856.0784784.5708243.1208992.8741327.1177176 1.7103517-.0180288 3.0818676-1.4189741 3.0638388-3.12932583-.0180288-1.7103517-1.418709-3.08213277-3.1290607-3.06410395zm-3.95573516-3.58481867.52548706.51435162c.44170608-.24869166.91337182-.4499251 1.40783871-.59972338l-.02810375-2.6565996 2.29045544-.0241268-.0002651-.01776369-3.96713569.04189049.02810375 2.6565996c-.08643229.02624784-.17127379.05594236-.25638042.08537176zm2.07649581 13.48979915c-.49738332-.1394582-.97329113-.3308819-1.42029981-.5700289l-.48783864.4984439c.07688761.0243919.15324496.0498444.23119309.071585l.02810375 2.6565996 1.67668022-.0177637zm-7.5530149-8.69227723 2.65633447-.02810375c.13945822-.49738331.33061673-.97329113.57002885-1.42003467l-1.89753326-1.85802894 1.95480128-1.99669177-.8561038-.83834011-2.77564283 2.83503188 1.89753326 1.85802894c-.23914699.44674354-.43057063.92265136-.57002886 1.42003467l-2.65633446.02810375.04189049 3.96713573 1.67668023-.0177637zm12.92798935 8.05066333c-.3645534.2052104-.7503171.3759539-1.1514583.5143516l1.3723113 1.3436773.8208415-.8383401zm-11.48780482-.8062594 1.85802894-1.8975333c-.24869166-.441706-.4499251-.9133718-.59972338-1.4078387l-1.67084737.0174986c.14926802.4878386.34838043.9536715.59389053 1.390075l-1.85802894 1.8975333 2.83476675 2.7756428.82084155-.8383401z" fill="#f09f54" fill-opacity=".286275"/></g><path d="m18.9302606 11.3491419-.0418905-3.96713566-2.6563345.02810375c-.1497983-.4944669-.3512968-.96613263-.5997234-1.40783871l1.858029-1.89753326-2.8350319-2.77564283-1.8580289 1.89753326c-.4470087-.23914699-.9226514-.43057063-1.4200347-.57002886l-.0281038-2.65633446-3.96713566.04189049.02810375 2.6565996c-.4944669.15006341-.96613263.35129685-1.40783871.59972338l-1.89779839-1.85802894-2.77564283 2.83503188 1.89753326 1.85802894c-.23914699.44674354-.43057063.92265136-.57002886 1.42003467l-2.65633446.02810375.04189049 3.9671357 2.6565996-.0281037c.14979828.4944668.35129685.9661326.59972338 1.4078387l-1.85802894 1.8975332 2.83476675 2.7756429 1.85802894-1.8975333c.44700867.239147.92265136.4305706 1.4202998.5700288l.02810375 2.6565996 3.96713573-.0418905-.0281038-2.6563344c.4944669-.1497983.9661327-.3512969 1.4078387-.5997234l1.8975333 1.8580289 2.7756428-2.8355621-1.8975332-1.8580289c.239147-.4467436.4305706-.9226514.5700288-1.4200347zm-9.43251936 1.2127033c-1.71008656.0180288-3.11129703-1.3537523-3.12932585-3.06383883-.01802882-1.71008656 1.35375225-3.11129703 3.06383882-3.12932585 1.71008659-.01802882 3.11129699 1.35375225 3.12932589 3.06383882.0182939 1.71035166-1.3534872 3.11129706-3.06383886 3.12932586z" stroke="#444e59" stroke-linecap="square" stroke-width="1.060519"/></g><g fill="none" fill-rule="evenodd" transform="translate(19.424462 53.196418)"><path d="m34.7624806 26.3424916h-32.81139114c-1.0774871 0-1.95108946-.8736024-1.95108946-1.9510895v-22.44031264c0-1.0774871.87360236-1.95108946 1.95108946-1.95108946h32.81165624c1.0774871 0 1.9510895.87360236 1.9510895 1.95108946v22.44031264c0 1.0774871-.8736024 1.9510895-1.9513546 1.9510895z" fill="#444e59" fill-rule="nonzero"/><path d="m36.7138352 4.26328558h-36.7138352v-2.31219612c0-1.0774871.87360236-1.95108946 1.95108946-1.95108946h32.81139114c1.0777522 0 1.9513546.87360236 1.9513546 1.95135459z" fill="#bcbcbc" fill-rule="nonzero"/><g stroke-width="1.060519"><path d="m34.7624806 26.3424916h-32.81139114c-1.0774871 0-1.95108946-.8736024-1.95108946-1.9510895v-22.44031264c0-1.0774871.87360236-1.95108946 1.95108946-1.95108946h32.81165624c1.0774871 0 1.9510895.87360236 1.9510895 1.95108946v22.44031264c0 1.0774871-.8736024 1.9510895-1.9513546 1.9510895z" stroke="#444e59" stroke-linecap="square"/><path d="m34.7624806 26.3424916h-32.81139114c-1.0774871 0-1.95108946-.8736024-1.95108946-1.9510895v-22.44031264c0-1.0774871.87360236-1.95108946 1.95108946-1.95108946h32.81165624c1.0774871 0 1.9510895.87360236 1.9510895 1.95108946v22.44031264c0 1.0774871-.8736024 1.9510895-1.9513546 1.9510895z" stroke="#444e59" stroke-linecap="square"/><path d="m36.7138352 4.26328558h-36.7138352v-2.31219612c0-1.0774871.87360236-1.95108946 1.95108946-1.95108946h32.81139114c1.0777522 0 1.9513546.87360236 1.9513546 1.95135459z" stroke="#444e59" stroke-linecap="square"/><path d="m5.07034 22.982238h4.130721" stroke="#fff" stroke-linecap="square"/><path d="m2.145164 22.982238h.288196" stroke="#fff" stroke-linecap="square"/><path d="m5.07034 20.695759h10.468382" stroke="#fff" stroke-linecap="square"/><path d="m2.145164 20.695759h.288196" stroke="#fff" stroke-linecap="square"/><path d="m20.523955 18.409016h2.848289" stroke="#64bdff" stroke-linecap="square"/><path d="m12.725695 18.409016h5.305776" stroke="#fff" stroke-linecap="square"/><path d="m5.07034 18.409016h5.234191" stroke="#ff5f5f" stroke-linecap="square"/><path d="m2.145164 18.409016h.288196" stroke="#fff" stroke-linecap="square"/><g transform="translate(2.145164 15.989707)"><path d="m11.755586.132565h12.769442" stroke="#fff"/><path d="m2.925176.132565h6.658467" stroke="#64bdff"/><path d="m0 .132565h.288196" stroke="#fff"/></g><g transform="translate(2.145164 13.702963)"><path d="m11.755586.132565h4.771274" stroke="#ff5f5f"/><path d="m2.925176.132565h6.658467" stroke="#ffbe78"/><path d="m0 .132565h.288196" stroke="#fff"/></g><g transform="translate(2.145164 11.41622)"><path d="m12.681419.132565h1.281902" stroke="#64bdff"/><path d="m7.625395.132565h2.955401" stroke="#ff5f5f"/><path d="m2.925176.132565h2.421164" stroke="#c383f2"/><path d="m0 .132565h.288196" stroke="#fff"/></g><g transform="translate(2.145164 9.129476)"><path d="m22.224232.132565h2.300796" stroke="#64bdff"/><path d="m10.260254.132565h9.04437" stroke="#ff5f5f"/><path d="m2.925176.132565h5.37683" stroke="#ffbe78"/><path d="m0 .132565h.288196" stroke="#fff"/></g><g transform="translate(2.145164 6.842732)"><path d="m16.52686.132565h4.700219" stroke="#ffbe78"/><path d="m10.580796.132565h3.667539" stroke="#6dbf7b"/><path d="m6.592715.132565h2.06536" stroke="#ffbe78"/><path d="m2.925176.132565h1.673499" stroke="#6dbf7b"/><path d="m0 .132565h.288196" stroke="#fff"/></g></g><g fill-rule="nonzero" transform="translate(2.947712 1.459539)"><path d="m1.34367732.67183866c0 .18552316-.06559229.34387704-.19677701.47506165-.13118461.13118472-.28953849.19677701-.47506165.19677701-.18552313 0-.34387701-.06559229-.47506167-.19677701-.13118466-.13118461-.19677699-.28953849-.19677699-.47506165 0-.18552313.06559233-.34387701.19677699-.47506167s.28953854-.19677699.47506167-.19677699c.18552316 0 .34387704.06559233.47506165.19677699.13118472.13118466.19677701.28953854.19677701.47506167 0 .00781801-.00013646.01563364-.00040928.02344682" fill="#e7534e"/><g fill="#444e59"><path d="m3.74919935.67183866c0 .18552316-.06559255.34387704-.19677727.47506165-.13118445.13118472-.28953821.19677701-.47506165.19677701-.18552292 0-.34387693-.06559229-.47506152-.19677701-.13118458-.13118461-.19677714-.28953849-.19677714-.47506165 0-.18552313.06559256-.34387701.19677714-.47506167.13118459-.13118466.2895386-.19677699.47506152-.19677699.18552344 0 .3438772.06559233.47506165.19677699.13118472.13118466.19677727.28953854.19677727.47506167 0 .00781801-.00013654.01563364-.00040936.02344682"/><path d="m6.15472086.67183866c0 .18552316-.06559203.34387704-.19677662.47506165-.13118458.13118472-.28953886.19677701-.47506204.19677701-.18552319 0-.34387694-.06559229-.47506179-.19677701-.13118432-.13118461-.19677687-.28953849-.19677687-.47506165 0-.18552313.06559255-.34387701.19677687-.47506167.13118485-.13118466.2895386-.19677699.47506179-.19677699.18552318 0 .34387746.06559233.47506204.19677699.13118459.13118466.19677662.28953854.19677662.47506167 0 .00781801-.00013628.01563364-.00040936.02344682"/></g></g></g><path d="m67.2459063 59.796292h-23.7521744c-1.171343 0-2.1210376-.9496946-2.1210376-2.1210376v-21.4367967c0-1.1713431.9496946-2.1210376 2.1210376-2.1210376h23.7521744c1.171343 0 2.1210376.9496945 2.1210376 2.1210376v21.4365316c0 1.1716081-.9496946 2.1213027-2.1210376 2.1213027z" fill="#fff" fill-rule="nonzero"/><path d="m67.2459063 59.796292h-23.7521744c-1.171343 0-2.1210376-.9496946-2.1210376-2.1210376v-21.4367967c0-1.1713431.9496946-2.1210376 2.1210376-2.1210376h23.7521744c1.171343 0 2.1210376.9496945 2.1210376 2.1210376v21.4365316c0 1.1716081-.9496946 2.1213027-2.1210376 2.1213027z" fill="#fff" fill-rule="nonzero"/><path d="m67.2459063 59.796292h-23.7521744c-1.171343 0-2.1210376-.9496946-2.1210376-2.1210376v-21.4367967c0-1.1713431.9496946-2.1210376 2.1210376-2.1210376h23.7521744c1.171343 0 2.1210376.9496945 2.1210376 2.1210376v21.4365316c0 1.1716081-.9496946 2.1213027-2.1210376 2.1213027z" fill="none" stroke="#444e59" stroke-linecap="square" stroke-width="1.060519"/><path d="m43.7938587 36.2880369h23.0002666v15.2892371h-23.0002666z" fill="#9483c4" fill-rule="nonzero"/><path d="m43.7938587 36.2880369h23.0002666v15.2892371h-23.0002666z" fill="none" stroke="#444e59" stroke-linecap="square" stroke-width="1.060519"/><path d="m43.793859 54.013018h14.516116" fill="none" stroke="#444e59" stroke-linecap="square" stroke-width="1.060519"/><path d="m43.793859 56.461491h8.594974" fill="none" stroke="#444e59" stroke-linecap="square" stroke-width="1.060519"/><path d="m46.0946543 48.837421 4.9573951-4.9048995 4.6111357 4.6114009" fill="none" stroke="#444e59" stroke-linecap="square" stroke-width="1.060519"/><path d="m64.3196698 48.837421-6.0096949-7.8157584-4.8054758 5.3633087" fill="none" stroke="#444e59" stroke-linecap="square" stroke-width="1.060519"/><path d="m65.5567651 55.1249718c0 .3592587-.1270131.6659077-.3810498.9199418-.254034.2540366-.5606804.3810497-.9199417.3810497-.3592561 0-.6659024-.1270131-.9199391-.3810497-.2540287-.2540341-.3810524-.5606831-.3810524-.9199418 0-.359256.1270237-.6658997.3810524-.9199364.2540367-.254034.560683-.3810524.9199391-.3810524.3592613 0 .6659077.1270184.9199417.3810524.2540367.2540367.3810498.5606804.3810498.9199364 0 .0151442-.0002599.0302752-.0007928.0454061" fill="none" stroke="#444e59" stroke-linecap="square" stroke-width="1.060519"/><path d="m54.1431966 41.0301467c0 .4507046-.1593456.8353998-.4780421 1.154099-.3186939.3186965-.7033944.4780421-1.1540964.4780421-.4506993 0-.8353971-.1593456-1.1540963-.4780421-.3186939-.3186992-.4780421-.7033944-.4780421-1.154099 0-.4506993.1593482-.8353971.4780421-1.1540963.3186992-.3186965.703397-.4780421 1.1540963-.4780421.450702 0 .8354025.1593456 1.1540964.4780421.3186965.3186992.4780421.703397.4780421 1.1540963 0 .0189939-.0003315.0379799-.0009943.0569631" fill="#f09f54" fill-rule="nonzero"/><path d="m54.1431966 41.0301467c0 .4507046-.1593456.8353998-.4780421 1.154099-.3186939.3186965-.7033944.4780421-1.1540964.4780421-.4506993 0-.8353971-.1593456-1.1540963-.4780421-.3186939-.3186992-.4780421-.7033944-.4780421-1.154099 0-.4506993.1593482-.8353971.4780421-1.1540963.3186992-.3186965.703397-.4780421 1.1540963-.4780421.450702 0 .8354025.1593456 1.1540964.4780421.3186965.3186992.4780421.703397.4780421 1.1540963 0 .0189939-.0003315.0379799-.0009943.0569631" fill="none" stroke="#444e59" stroke-linecap="square" stroke-width="1.060519"/><g fill="none" fill-rule="evenodd" stroke="#444e59" stroke-width="1.060519" transform="translate(37.138043 23.125408)"><path d="m3.787643 3.426801h7.099378"/><path d="m0 3.426801h1.875528"/><path d="m7.337464.132565h3.549557"/><path d="m4.479897.132565h1.060253"/></g><g fill="none" fill-rule="evenodd" stroke="#444e59" stroke-width="1.060519" transform="translate(30.285501 43.916084)"><path d="m2.951159 3.427067h5.532196"/><path d="m0 3.427067h1.461395"/><path d="m6.227101.132565h2.256254"/><path d="m3.490698.132565h.826144"/></g><g fill="none" fill-rule="evenodd" stroke="#444e59" stroke-width="1.060519" transform="translate(118.377495 5.444704)"><path d="m3.216554 3.426801h5.266801"/><path d="m0 3.426801h1.461395"/><path d="m6.227101.132565h2.256254"/><path d="m3.490698.132565h.826409"/></g><path d="m125.689241 27.3910796h-20.7289c-1.262017 0-2.285418-1.0231355-2.285418-2.285418v-10.0325079c0-1.2620174 1.023136-2.285418 2.285418-2.285418h20.7289c1.262018 0 2.285419 1.0231355 2.285419 2.285418v10.0325079c0 1.2622825-1.023401 2.285418-2.285419 2.285418z" fill="#2fa9ed" fill-rule="nonzero"/><path d="m125.689241 27.3910796h-20.7289c-1.262017 0-2.285418-1.0231355-2.285418-2.285418v-10.0325079c0-1.2620174 1.023136-2.285418 2.285418-2.285418h20.7289c1.262018 0 2.285419 1.0231355 2.285419 2.285418v10.0325079c0 1.2622825-1.023401 2.285418-2.285419 2.285418z" fill="none" stroke="#444e59" stroke-linecap="square" stroke-width=".795389"/><path d="m115.324791 16.711655h8.957937" fill="none" stroke="#fff" stroke-linecap="square" stroke-width=".795389"/><path d="m115.324791 19.596001h5.92724" fill="none" stroke="#fff" stroke-linecap="square" stroke-width=".795389"/><g fill="none" fill-rule="evenodd" transform="translate(115.324791 22.155298)"><path d="m4.50296282 1.76788484h-3.6190204c-.48810378 0-.88394242-.39583864-.88394242-.88394242s.39583864-.88394242.88394242-.88394242h3.6190204c.48810378 0 .88394242.39583864.88394242.88394242-.00026513.48810378-.39583864.88394242-.88394242.88394242z" fill="#fff" fill-opacity=".556863" fill-rule="nonzero"/><path d="m4.50296282 1.76788484h-3.6190204c-.48810378 0-.88394242-.39583864-.88394242-.88394242s.39583864-.88394242.88394242-.88394242h3.6190204c.48810378 0 .88394242.39583864.88394242.88394242-.00026513.48810378-.39583864.88394242-.88394242.88394242z" stroke="#fff" stroke-linecap="square" stroke-width=".795389"/></g><g fill="none" fill-rule="evenodd" stroke="#fff" stroke-width=".795389" transform="translate(105.604341 16.050157)"><path d="m5.97681883 8.00320512h-4.74767754c-.67873203 0-1.22914129-.55014412-1.22914129-1.22914129v-5.54492254c0-.67873203.55014413-1.22914129 1.22914129-1.22914129h4.74767754c.67873203 0 1.22914129.55014413 1.22914129 1.22914129v5.54492254c0 .67899717-.55040926 1.22914129-1.22914129 1.22914129z"/><path d="m4.87308415 3.09591951c0 .35069315-.1239887.65002816-.37196636.89800516-.24797687.2479774-.54731175.3719661-.89800517.3719661-.35069262 0-.65002776-.1239887-.89800516-.3719661-.2479774-.247977-.3719661-.54731201-.3719661-.89800516 0-.35069263.1239887-.65002777.3719661-.89800517.2479774-.24797729.54731254-.3719661.89800516-.3719661.35069342 0 .6500283.12398881.89800517.3719661.24797766.2479774.37196636.54731254.37196636.89800517 0 .01477833-.00025797.02955215-.00077365.04432146"/><path d="m1.19600008 7.87302644c0-1.32936031 1.07775223-2.40711254 2.40711254-2.40711254 1.32936032 0 2.40711255 1.07775223 2.40711255 2.40711254"/></g></g></g></g></svg>