<svg height="160" viewBox="0 0 170 160" width="170" xmlns="http://www.w3.org/2000/svg" xmlns:xlink="http://www.w3.org/1999/xlink"><linearGradient id="a" x1="45.541425%" x2="52.833934%" y1="70.313026%" y2="37.110056%"><stop offset="0" stop-color="#315629"/><stop offset=".01" stop-color="#315629" stop-opacity=".98"/><stop offset=".18" stop-color="#315629" stop-opacity=".63"/><stop offset=".35" stop-color="#315629" stop-opacity=".35"/><stop offset=".54" stop-color="#315629" stop-opacity=".15"/><stop offset=".75" stop-color="#315629" stop-opacity=".04"/><stop offset="1" stop-color="#315629" stop-opacity="0"/></linearGradient><g fill="none" fill-rule="evenodd"><g fill-rule="nonzero" transform="translate(20 20)"><path d="m90.1985352 56.8819199c7.317642-9.179407 9.6138804-21.4722321 5.446633-33.339828-6.4412999-18.32368623-26.5879258-27.98193838-44.9134609-21.54988263s-27.9893337 26.59162343-21.546185 44.91530963c6.4431487 18.3236863 26.5860769 27.9911826 44.9079144 21.5480339 6.9552727-3.0246747 15.5985209-2.1021119 21.7070326 2.5180971l7.0014937-8.0849036c-5.3320064-4.4686056-12.6034278-6.0068264-12.6034278-6.0068264zm-19.6308043 1.5382208c-12.7883097 4.4981868-26.8523074-2.2518666-31.3504942-15.0383275-4.4981867-12.7864609 2.2555643-26.8560051 15.043874-31.352343 12.7883098-4.49633794 26.857854 2.2518666 31.3467966 15.0420251 4.4889426 12.7901586-2.2500178 26.8486099-15.0401764 31.3486454z" fill="#5db407"/><path d="m71.7916519 57.9505396c-.0905924.0388253-.1848824.073953-.2773235.1109294l-.0831971.0332788c6.1880111-2.288843 13.0101686-2.5883524 18.7674039-1.2128279-.0573136-.03143 0 0 0 0 2.9847865-3.7345856 5.1583885-8.0503062 6.3821375-12.6718339l-12.1338264 1.8894972c-2.666003 5.3172154-6.742658 9.3439522-12.6551944 11.8509564z" fill="url(#a)"/><g fill="#464646"><path d="m30.9825784 87.1064808h3.2188011v11.3702624c0 2.8490368.1534523 4.8161838.4622058 5.8848038.4234927 1.485189 1.35785 2.773122 2.6382706 3.636635 1.2941762.88004 2.8397924 1.329304 4.6331509 1.329304 1.7933584 0 3.3278816-.436322 4.5739884-1.294176 1.2170011-.821169 2.1273021-2.022766 2.5883524-3.416625.3241604-.961388.4862405-3.006803.4862405-6.1362442v-11.3702624h3.28351v11.9655835c0 3.4511361-.4024272 6.0487331-1.2072816 7.7927891-.768682 1.704205-2.036028 3.135287-3.6347863 4.104388-1.617104.986039-3.6446467 1.479058-6.0826282 1.479058-2.4379814 0-4.4716869-.493019-6.1011164-1.479058-1.6156807-.971231-2.8921668-2.417528-3.6551233-4.141364-.8048544-1.76994-1.2072815-4.432245-1.2072815-7.986916z"/><path d="m126.437318 103.472263 2.727014 1.429141c-.898528 1.757614-1.933253 3.175045-3.104174 4.252293-1.145629 1.066434-2.485729 1.902506-3.947238 2.462632-1.591459.583624-3.276572.870012-4.971485.844912-4.10069 0-7.305317-1.34471-9.61388-4.034132-2.308564-2.689421-3.464079-5.725805-3.466544-9.1091513-.031567-3.095764 1.007561-6.107339 2.941478-8.5249236 2.479888-3.1738131 5.800374-4.7601033 9.961459-4.7588715 4.283107 0 7.704046 1.6245 10.262817 4.8734986 1.819242 2.2962383 2.743654 5.1594491 2.773235 8.5896323h-22.614805c.059163 2.9211405.990969 5.3141345 2.795421 7.1789805 1.804451 1.864846 4.031667 2.797886 6.681647 2.799118 1.27435-.000263 2.53864-.225582 3.734622-.665576 1.126979-.396865 2.172507-.995116 3.085686-1.765626.847994-.73953 1.766243-1.930172 2.754747-3.571927zm0-6.7703901c-.433857-1.7255683-1.062457-3.1029415-1.8858-4.1321197-.882094-1.0732044-2.001806-1.9264391-3.270568-2.4922136-1.338216-.6293019-2.799383-.9538653-4.278177-.9503243-2.465097 0-4.585697.7944068-6.3618 2.3831622-1.294176 1.1512006-2.27282 2.881699-2.935931 5.1914954z"/><path d="m92.0029866 99.2920742c0-.0961388 0-.1848824 0-.2865676.0061168-5.4422685 4.4175035-9.8520008 9.8597734-9.8560763.295812 0 .78575.0184883 1.076016.0388253v-3.1171158c-.317998-.0184882-.75432-.0369786-1.076016-.0369786-3.4414948-.00196-6.7427069 1.3637936-9.1769054 3.796605-2.4341984 2.4328114-3.8018327 5.7332446-3.8018327 9.1747404v.4732987 12.9805877h3.1189647z"/><path d="m70.7803456 86.0341625c3.8665055 0 7.0711323 1.4007925 9.6138804 4.2023759 2.3122615 2.5550736 3.4683922 5.5803645 3.4683922 9.0758728 0 3.4955088-1.219607 6.5657878-3.658821 9.2108368-2.4441442 2.622864-5.5871436 3.936145-9.4289981 3.939842-3.8603427 0-7.0113537-1.31328-9.4530328-3.939842-2.4416791-2.626561-3.6643675-5.694375-3.6680651-9.2034415 0-3.4794852 1.1561307-6.4992296 3.4683922-9.0592334 2.5501434-2.8188391 5.7695608-4.2276423 9.6582522-4.2264106zm-.0147906 3.1632236c-2.6881889 0-4.9986015.993548-6.931238 2.9804166s-2.8983384 4.3903387-2.8972315 7.2104103c-.0086994 1.775819.4476933 3.522987 1.323883 5.067624.8260141 1.522931 2.0621254 2.784021 3.5682287 3.640333 3.0672424 1.713345 6.8036244 1.713345 9.8708668 0 1.5069066-.855881 2.7437219-2.117035 3.5700775-3.640333.8748554-1.548365 1.3299077-3.298468 1.3202162-5.0768681 0-2.8139089-.9701723-5.217379-2.9102041-7.2104103-1.9400318-1.9930314-4.244898-2.9833843-6.9145986-2.9711725z"/><path d="m26.208917 99.3124112c0-3.4955083-1.156747-6.5207992-3.470241-9.0758728-2.5439807-2.8003508-5.7486075-4.2011425-9.6138804-4.2023759-3.86527298-.0012317-7.08407408 1.4075715-9.65640337 4.2264106-2.31102894 2.5612363-3.46715968 5.5785157-3.46839223 9.0518381 0 3.5078338 1.22268838 6.5756478 3.66806514 9.2034418 2.44537675 2.627794 5.59638768 3.941075 9.45303276 3.939842 3.8381569 0 6.9811562-1.313281 9.4289981-3.939842.1700917-.184882.334637-.369765.4954846-.554647v12.610823h3.1633364v-21.0155731.0129417c0-.0850458 0-.1700917 0-.2569864zm-4.5961743 5.1434258c-.8263997 1.523742-2.0631626 2.785483-3.5700776 3.642182-1.5016077.860406-3.2058203 1.304011-4.9363578 1.284932-1.7298679.018391-3.43330706-.42518-4.93450896-1.284932-1.50734142-.856145-2.74424025-2.118025-3.57007751-3.642182-.87550543-1.547347-1.33002017-3.297197-1.31821091-5.0750193 0-2.8139089.96508569-5.217379 2.89525706-7.2104103 1.93017137-1.9930314 4.24058402-2.9864657 6.93123802-2.9803314 2.6733983 0 4.9788807.9934628 6.9164474 2.9803314s2.9075825 4.3903387 2.9101615 7.2104103c.0082842 1.7781073-.4480377 3.5275533-1.3238712 5.0750193z"/></g></g><path d="m0 0h170v160h-170z"/></g></svg>