<svg height="160" viewBox="0 0 170 160" width="170" xmlns="http://www.w3.org/2000/svg" xmlns:xlink="http://www.w3.org/1999/xlink"><mask id="a" fill="#fff"><path d="m0 0h170v160h-170z" fill="#fff" fill-rule="evenodd"/></mask><g fill="none" fill-rule="evenodd" mask="url(#a)"><g fill-rule="nonzero" transform="matrix(1 0 0 -1 33 150)"><path d="m6.50527651 0c-3.44939117 0-6.25211399 2.80662946-6.25211399 6.27490276v87.63910024c0 3.4627093 2.80272282 6.274311 6.25181803 6.274311h91.98968375c3.4508707 0 6.2506337-2.8116017 6.2506337-6.274311v-87.63910024c0-3.46602402-2.799763-6.2725351-6.2506337-6.2725351l-91.98968375-.00011838zm-.05800778 103.466937c-3.56238796 0-6.44726873 3.504144-6.44726873 7.819212v20.882801c0 4.326907 2.88488077 7.83105 6.44715035 7.83105h91.84762385c3.5633348 0 6.4400478-3.504143 6.4400478-7.83105v-20.882801c0-4.315068-2.876713-7.819212-6.4400478-7.819212h-91.84762385z" fill="#000" transform="matrix(1 0 0 -1 0 140)"/><path d="m96.8518011 137.570362h-88.95019447c-3.03578979 0-5.4885422-2.456452-5.4885422-5.490762v-83.7265347c0-3.0313504 2.45275241-5.4907619 5.4885422-5.4907619h88.95019447c3.0387494 0 5.4900219 2.4594115 5.4900219 5.4907619v83.7265347c0 3.03431-2.4512725 5.490762-5.4900219 5.490762" fill="#ffcb05"/><path d="m93.6184593 134.166844h-82.5870962c-3.02913073 0-5.4885422-2.457931-5.4885422-5.490022v-77.1932604c0-3.0320903 2.45941147-5.4915017 5.4885422-5.4915017h82.5870962c3.0350499 0 5.4870624 2.4594114 5.4870624 5.4915017v77.1932604c0 3.032091-2.4520125 5.490022-5.4870624 5.490022" fill="#000"/><path d="m52.601928 2.79313377-9.0450702 28.93937093-30.9128192.1639607 24.9972095 17.2596821-9.2143582 28.938187 24.0087096-17.260274 24.8326569 17.4260105-9.3759513-29.1039235 24.0081177-17.2596821h-29.933198zm-44.6020633 95.50566553c-3.02960426 0-5.4842212 2.4564517-5.4842212 5.4870627v20.166582c0 3.03061 2.45461694 5.481143 5.4842212 5.481143h89.0952139c3.0246914 0 5.4811434-2.450533 5.4811434-5.481143v-20.166582c0-3.030611-2.456452-5.4870627-5.4811434-5.4870627z" fill="#ffcb05" transform="matrix(1 0 0 -1 0 132.22672)"/><path d="m52.4355995 5.21288686-6.0866734 22.52477594-22.0317098-.1639608 17.4289701 12.4959412-6.7442923 21.5374598 17.1040081-13.1523761 19.0774565 13.6495856-7.896161-21.2124979 18.0889565-13.1541518h-22.6940639zm-43.99179771 88.15406734c-1.81777439 0-3.29223744 1.4738711-3.29223744 3.2910536v19.4622022c0 1.817182 1.47446305 3.285134 3.29223744 3.285134h87.83443261c1.8231016 0 3.2851344-1.467952 3.2851344-3.285134v-19.4622022c0-1.8171825-1.4620328-3.2910536-3.2851344-3.2910536z" fill="#000" transform="matrix(1 0 0 -1 0 124.618232)"/><path d="m52.5001184 9.64456283-4.551243 16.83705397-16.4730256-.1213428 13.0322172 9.335701-5.0401658 16.0995264 12.7847962-9.8317267 14.254524 10.2046339-5.9014037-15.856249 13.5252833-9.8305428h-16.9684594zm-4.3168443 85.22408257-2.2042956 16.4730256h3.7059868l.2000677-3.001015h2.0545408l.2995096 3.001015h3.655082l-2.3522747-16.4730256zm-29.2465753 0v13.3713846h-1.4507864v-13.3240314l-3.7574835-.0414341v14.2119055l2.4049552 2.308473h4.2552849l2.3043295-2.409098v-14.1171996zm61.7250127.0236766 3.0246913 9.488415.0769491 6.984611h3.7053949v-6.984611l3.083883-9.488415h-3.6047692l-1.3318112 5.759344-1.3022155-5.759344zm-23.7133435.0236766.049721 16.5262984 3.6035853-.047354v-6.611703h1.5567394l.0473533 6.611703 3.4094368.047354v-6.659057l-1.7047184-1.604092 1.7047184-1.550821v-4.4097747l-2.4090986-2.3025537zm-24.1371554 0-2.229748 2.2315238v5.1319126l2.3664806 2.367665h2.7666159v3.539658h-1.502875v-2.101302h-3.7053949v2.953661l2.3546423 2.355826h4.1055302l2.4043633-2.409098v-5.054964l-2.4540842-2.450533h-2.6517842v-3.4567897h1.3501606l.049721 2.1486557h3.556232v-2.9536617l-2.5043971-2.3025537zm42.2154574 0-1.3022154 7.9139184-1.3554879-7.8606459h-4.3032302l-.0473533 16.4256719h3.3561644v-10.470996l1.5981735 10.470996h1.4501945l1.6040927-10.470996v10.470996h3.4094368l-.1006257-16.4789444zm-33.7528327 13.3240314.0485371 3.101641h3.6071368v-3.101641zm-16.476577.047354-.0485371 3.107559h3.6556739v-3.107559z" fill="#fff" transform="matrix(1 0 0 -1 0 121.08686)"/><path d="m60.5998985 15.9005243v3.6047691l1.5567394-.0473533v-3.5574158zm-9.7630644.3492305-.6522916 6.7656012h1.5040589z" fill="#000" transform="matrix(1 0 0 -1 0 38.91588)"/></g></g></svg>