<?xml version="1.0" encoding="UTF-8"?>
<svg width="170px" height="160px" viewBox="0 0 170 160" version="1.1" xmlns="http://www.w3.org/2000/svg" xmlns:xlink="http://www.w3.org/1999/xlink">
    <title>uw</title>
    <g id="Page-1" stroke="none" stroke-width="1" fill="none" fill-rule="evenodd">
        <g id="uw">
            <g id="upwork" transform="translate(10.000000, 60.000000)" fill="#14A800" fill-rule="nonzero">
                <g id="Group">
                    <g transform="translate(0.000000, 8.258570)">
                        <path d="M39.9612806,2.01305903e-15 C33.3317594,2.01305903e-15 29.6203608,4.3205213 28.5579375,8.76853338 C27.3538578,6.50203041 26.4614222,3.47058268 25.7673057,0.651619605 L16.6021343,0.651619605 L16.6021343,12.0549627 C16.6021343,16.1913306 14.7181037,19.2511096 11.0350364,19.2511096 C7.35196902,19.2511096 5.24128813,16.1913306 5.24128813,12.0549627 L5.28378506,0.651619605 L0,0.651619605 L0,12.0549627 C0,15.3838889 1.07658891,18.401171 3.04561337,20.5543489 C5.07130041,22.7783549 7.83360091,23.9399377 11.0350364,23.9399377 C17.409576,23.9399377 21.8575881,19.0527906 21.8575881,12.0549627 L21.8575881,4.39134951 C22.5233733,6.91283407 24.1099254,11.7574842 27.1413731,16.0071773 L24.3082444,32.1418453 L29.6770233,32.1418453 L31.5468883,20.7101709 C32.156011,21.2201341 32.8076306,21.6734347 33.5017471,22.0842384 C35.3007838,23.2174898 37.3548022,23.8549438 39.4796487,23.925772 C39.4796487,23.925772 39.8054585,23.9399377 39.9754462,23.9399377 C46.5483048,23.9399377 51.7754273,18.8544716 51.7754273,11.9841345 C51.7754273,5.11379734 46.5341392,2.01305903e-15 39.9612806,2.01305903e-15 M39.9612806,19.236944 C35.8957409,19.236944 33.2042686,16.0921711 32.4534895,14.8739258 C33.4167532,7.16781566 36.2357163,4.73132496 39.9612806,4.73132496 C43.6443479,4.73132496 46.5058079,7.67777883 46.5058079,11.9841345 C46.5058079,16.2904901 43.6443479,19.236944 39.9612806,19.236944" id="Shape"></path>
                        <path d="M115.874965,3.0881103 L115.874965,0.651619605 L110.690339,0.651619605 L110.690339,23.2174898 L115.945793,23.2174898 L115.945793,14.3781282 C115.945793,8.93852111 116.44159,5.02880348 123.736897,5.53876664 L123.736897,0.382472377 C120.337142,0.127490792 117.688167,0.835772972 115.874965,3.0881103" id="Path"></path>
                    </g>
                    <polygon id="Path" points="79.3842667 8.91018982 75.5737086 24.6907168 71.5081689 8.91018982 64.8219851 8.91018982 60.7422797 24.6907168 56.9458872 8.91018982 51.6196053 8.91018982 57.4558504 31.4902257 63.7737275 31.4902257 68.165077 15.4547172 72.5139295 31.4902257 78.8318066 31.4902257 85.0080272 8.91018982"></polygon>
                    <g transform="translate(84.781377, 0.000000)">
                        <path d="M11.7999811,8.25857021 C5.18462555,8.25857021 0,13.3865332 0,20.2427047 C0,27.0988762 5.18462555,32.1843422 11.7999811,32.1843422 C18.3728397,32.1843422 23.5999622,27.0988762 23.5999622,20.2427047 C23.5999622,13.3865332 18.3870054,8.25857021 11.7999811,8.25857021 M11.7999811,27.5096799 C8.0602512,27.5096799 5.25545377,24.563226 5.25545377,20.2427047 C5.25545377,15.9221834 8.07441685,12.9898952 11.7999811,12.9898952 C15.4830484,12.9898952 18.3445085,15.936349 18.3445085,20.2427047 C18.3445085,24.5490603 15.4830484,27.5096799 11.7999811,27.5096799" id="Shape"></path>
                        <path d="M46.4916423,20.3843611 L47.7098876,20.3843611 L55.047691,31.4902257 L60.9830957,31.4902257 L52.5403721,19.1802814 C56.6342431,17.5795637 59.3823779,13.4006988 59.3823779,8.91018982 L54.1410898,8.91018982 C54.1410898,13.7831712 50.3022004,15.6247049 46.4916423,15.6247049 L46.4916423,0 L41.2220229,0 L41.2220229,31.4902257 L46.4774766,31.4902257 L46.4916423,20.3843611 Z" id="Path"></path>
                    </g>
                </g>
                <path d="M145.651147,0 L145.651147,0.453300595 L146.288601,0.453300595 L146.288601,2.05401832 L146.784399,2.05401832 L146.784399,0.453300595 L147.421853,0.453300595 L147.421853,0 L145.651147,0 Z M149.305883,0 L148.852583,1.40239872 L148.838417,1.40239872 L148.399282,0 L147.705166,0 L147.705166,2.05401832 L148.172632,2.05401832 L148.172632,0.580791387 L148.186798,0.580791387 L148.625933,2.05401832 L149.050902,2.05401832 L149.504202,0.580791387 L149.518368,0.580791387 L149.518368,2.05401832 L150,2.05401832 L150,0 L149.305883,0 Z" id="Shape"></path>
            </g>
            <rect id="Rectangle-Copy-4" x="0" y="0" width="170" height="160"></rect>
        </g>
    </g>
</svg>