<?xml version="1.0" encoding="UTF-8"?>
<svg width="150px" height="150px" viewBox="0 0 150 150" version="1.1" xmlns="http://www.w3.org/2000/svg" xmlns:xlink="http://www.w3.org/1999/xlink">
    <title>logo</title>
    <g id="Page-1" stroke="none" stroke-width="1" fill="none" fill-rule="evenodd">
        <g id="logo" fill="#FFFFFF">
            <path d="M150,0 L150,150 L0,150 L0,0 L150,0 Z M77.1356182,11 C77.0899474,11 76.9757704,11.1255947 76.8730111,11.2854424 C76.7702518,11.4338725 76.690328,11.5823026 76.690328,11.6165557 C76.690328,11.6508088 76.4962271,12.096099 76.2450378,12.621313 C75.2745335,14.7221694 74.9776733,15.3615604 74.9776733,15.4072312 C74.9776733,15.4414843 73.596132,18.4557564 72.5685392,20.6822074 C72.3173498,21.2074215 72.123249,21.6527117 72.123249,21.6755471 C72.123249,21.6983825 71.894895,22.1893435 71.6208703,22.7830637 C71.3468456,23.3653663 71.0043146,24.096099 70.8673023,24.4157945 C70.8310343,24.4990765 70.7961886,24.5788819 70.7618356,24.6572371 L70.659325,24.8899787 C70.4363928,25.3936077 70.1950014,25.9215873 69.6798617,27.0304472 C69.3944193,27.6470029 69.1546477,28.1722169 69.1546477,28.1950523 C69.1546477,28.1988582 69.1523134,28.2074849 69.147567,28.2211016 L69.1260138,28.2770906 C69.1115412,28.3127392 69.0914663,28.3599958 69.0655266,28.4194312 L69.0057495,28.5547098 C68.7686153,29.0862036 68.235523,30.2331113 67.3163984,32.1912464 C67.1337152,32.5794481 66.9852851,32.9333968 66.9852851,32.9676499 C66.9852851,33.0019029 66.7455135,33.5385347 66.4600711,34.1436727 C66.1746286,34.7602284 65.558073,36.0846813 65.1013651,37.0894386 C64.6446572,38.094196 64.1308608,39.224548 63.9595953,39.6013321 C63.7883299,39.9781161 63.5028874,40.6060894 63.3202043,40.9942912 C63.1375211,41.3824929 62.989091,41.7250238 62.989091,41.7592769 C62.989091,41.79353 62.7835725,42.2502379 62.5323831,42.7868696 C62.2811938,43.3235014 61.8701567,44.2140818 61.6189674,44.7507136 C61.3887105,45.2426261 61.1968297,45.6769743 61.1664486,45.7723332 L61.1622595,45.7897241 C61.1622595,45.8239772 60.9567409,46.2692674 60.7169693,46.7830637 C60.6422352,46.9372027 60.5643165,47.0991971 60.4854714,47.2642123 L60.3272149,47.5968374 C59.8791131,48.5425687 59.4496048,49.4817922 59.4496048,49.5347288 C59.4496048,49.5575642 59.1984155,50.1170314 58.87872,50.7906755 C58.5704421,51.4643197 58.3078351,52.0237869 58.3078351,52.0466223 C58.3078351,52.0808754 58.1365696,52.4690771 57.9196334,52.925785 C57.7026971,53.3824929 57.2459892,54.3758325 56.9034583,55.1294006 C56.5609274,55.8829686 56.1384726,56.8078021 55.9672071,57.1845861 C55.7959417,57.5613701 55.4876638,58.2578497 55.2821453,58.7259753 C55.0766267,59.1941009 54.7340958,59.9705043 54.5057419,60.4386299 C54.2888056,60.9067555 53.9919455,61.5461465 53.8549331,61.8658421 C53.7407561,62.1029788 53.4779464,62.6914294 53.1964277,63.3089829 L53.0263107,63.6804296 C52.9979302,63.7420603 52.9696224,63.8033375 52.9415173,63.8639391 C52.576151,64.6517602 52.0509369,65.8277831 51.7540768,66.4900095 C51.4572166,67.152236 51.0005087,68.1455756 50.7493194,68.7164605 C50.4981301,69.2759277 50.2241053,69.8924833 50.1441814,70.0865842 C50.0642576,70.2692674 49.7902328,70.8629876 49.5390435,71.3996194 C49.4055442,71.6806704 49.2669104,71.9741525 49.1273412,72.2710023 L48.9178106,72.7176697 C48.2205359,74.2074271 47.5523641,75.6680817 47.4381871,75.9666984 C47.3354279,76.2521408 46.6389483,77.7706946 45.8511272,79.4490961 C45.6227733,79.9514748 45.3144954,80.6137012 45.1774831,80.9333968 C45.0404707,81.2416746 44.8349521,81.7098002 44.7207752,81.9609895 C44.6065982,82.2121789 44.3782442,82.7031399 44.2298142,83.0456708 C44.0699664,83.3882017 43.7731063,84.0618459 43.5447523,84.5299715 C43.3278161,84.9980971 42.9510321,85.8201713 42.7226781,86.356803 C42.4829065,86.8934348 42.0947047,87.7383444 41.8663508,88.2407231 C41.6265792,88.7431018 41.329719,89.4053283 41.181289,89.7250238 C41.0442766,90.0333016 40.7702518,90.6270219 40.5875687,91.038059 C40.3934678,91.4490961 40.1536962,91.9857279 40.0395192,92.2369172 C39.9253422,92.4881066 39.6170644,93.150333 39.3658751,93.7098002 C39.103268,94.2692674 38.9320026,94.7716461 38.9776733,94.8173168 C39.0347618,94.8629876 39.7426591,94.5775452 40.5533156,94.1893435 C43.1679683,92.9219791 45.6912794,91.8030447 46.4905183,91.5518554 C47.0499854,91.3691722 50.4067885,90.0447193 50.6808132,89.8962892 C50.7949902,89.8277831 50.954838,89.7821123 51.0461795,89.7821123 C51.1261034,89.7821123 51.8910891,89.5537583 52.7245811,89.2797336 C55.8872832,88.2407231 58.3535059,87.6355852 61.5047904,87.1446242 C61.9158275,87.076118 62.5095478,86.9847764 62.8178256,86.9162702 C63.1375211,86.8591817 64.3820501,86.7906755 65.6037438,86.7678402 L67.8187771,86.7107517 L68.3439911,85.6489058 C68.6408513,85.0666032 69.0975592,84.0732636 69.3715839,83.4452902 C69.6456086,82.8173168 70.0566458,81.8924833 70.2964174,81.3901047 C70.536189,80.887726 70.9243908,79.9857279 71.1527447,79.3920076 C71.3925164,78.7982873 71.632288,78.2274025 71.6779588,78.1360609 C71.7236296,78.0447193 72.2145906,76.8572788 72.7512223,75.5099905 C73.2878541,74.1627022 73.8016505,72.8953378 73.8815744,72.7126546 C74.3382823,71.7078972 74.4067885,71.5252141 74.4067885,71.4224548 C74.4067885,71.3539486 74.4867124,71.1598478 74.5780539,70.9771646 C74.6693955,70.8058991 75.0119264,70.018078 75.331622,69.2302569 C75.6398998,68.4424358 75.971013,67.643197 76.0623546,67.4605138 C76.1422785,67.2664129 76.2450378,66.9923882 76.2907086,66.8325404 C76.3592147,66.5356803 76.952935,65.8049477 77.1242005,65.8049477 C77.443896,65.8049477 77.9919455,66.7297812 78.8254374,68.7164605 C78.9852851,69.0932445 79.2593099,69.7326356 79.4534107,70.1436727 C79.5333346,70.3240723 79.5940768,70.4610847 79.6492471,70.5855833 L79.7030642,70.707054 C79.7118922,70.7269851 79.7206914,70.7468544 79.7295249,70.7668049 L79.783441,70.8886259 C79.9586692,71.2847193 80.1917552,71.8133206 80.914876,73.4548049 L81.0969317,73.8666694 C81.5520941,74.894541 81.9941842,75.8800582 82.1251519,76.1722169 C82.273582,76.5033302 82.3991767,76.7887726 82.3991767,76.8230257 C82.3991767,76.8458611 82.5476067,77.188392 82.7302899,77.5880114 C82.9129731,77.9876308 83.4267694,79.152236 83.8834773,80.1912464 C84.3401852,81.2302569 84.8311462,82.3491912 84.9795763,82.6688868 C85.1280064,83 85.5732966,84.0275928 85.9843337,84.9524263 C86.7150663,86.6422455 87.1489388,87.6127498 87.5371405,88.4690771 C87.7426591,88.9143673 88.8615934,91.4490961 90.1289578,94.3491912 L90.2156081,94.5481288 L90.2156081,94.5481288 L90.3919217,94.9507612 C90.6563127,95.5523311 90.9110701,96.1217888 91.0309559,96.3701237 C91.179386,96.6898192 91.3049807,96.9866794 91.3049807,97.0209324 C91.3049807,97.0551855 91.4534107,97.3977165 91.6475116,97.7859182 C92.0128779,98.5509039 91.9786248,98.7564225 91.441993,99.0532826 C91.2136391,99.1674596 91.0195382,99.1560419 90.1860463,98.9391056 C88.3592147,98.4823977 84.3401852,97.8658421 81.7712033,97.6603235 C77.6950853,97.3292103 70.8102138,97.4433873 67.55617,97.8886775 C66.6427542,98.0142721 65.3639721,98.1969553 64.7017457,98.2882969 C64.5731463,98.3063248 64.4464447,98.3247323 64.320056,98.3438522 L63.940244,98.4036824 C62.9851375,98.5602658 61.9584936,98.7756523 60.1917552,99.190295 C59.7385604,99.2992022 59.4237292,99.3745996 59.1318478,99.4487496 L58.9154364,99.5046324 C58.3401965,99.6557181 57.7413416,99.8340774 56.1955611,100.297812 C55.1337152,100.617507 54.1061224,100.94862 53.9120216,101.028544 C53.7293384,101.119886 53.181289,101.313987 52.7017457,101.473834 C52.2107847,101.622265 51.7312414,101.804948 51.6170644,101.873454 C51.4914697,101.94196 50.8064079,102.250238 50.0870929,102.558516 C47.5409464,103.654615 44.2298142,105.378687 42.4372357,106.55471 C42.2469407,106.681573 42.0601697,106.801388 41.9199936,106.888705 L41.7769043,106.976256 C41.7385008,106.999154 41.7103089,107.015224 41.6950853,107.022835 C41.56403,107.088363 40.9472154,107.498623 40.280553,107.956346 L39.9145955,108.208934 C39.487991,108.504942 39.073296,108.798283 38.7828452,109.012351 L38.5669347,109.174636 C38.5368941,109.197853 38.5100442,109.219005 38.4867124,109.237869 C38.1555991,109.489058 37.6418027,109.888677 37.3335249,110.105614 C36.0319074,111.053283 33.5542671,113.268316 31.5904231,115.243578 C29.067112,117.778306 26.5438008,120.815414 24.2260083,124.092293 C23.2669217,125.439581 20.9833822,129.058991 20.4467504,130.063749 C20.2983203,130.349191 20.1270549,130.634634 20.0585487,130.714558 C20.0014602,130.783064 19.9786248,130.885823 20.0242956,130.920076 C20.0539816,130.959657 24.9205087,130.990663 31.3461453,130.998227 L32.0942975,130.998995 C32.2200806,130.999106 32.3463936,130.999207 32.4732133,130.9993 L34.0178774,130.999972 C34.1483774,130.99999 34.2792909,131 34.4105944,131 L48.7169693,131 L49.6532204,130.166508 C50.3382823,129.568063 50.85364,129.125746 51.3678272,128.716902 L51.6775474,128.474631 C52.5623303,127.794016 53.5411433,127.139243 55.441993,125.907707 C56.3896619,125.302569 59.141327,123.863939 60.5342861,123.258801 C65.0556943,121.306375 70.4448475,120.198858 75.0690149,120.278782 C76.1194431,120.301618 77.2269597,120.358706 77.5466553,120.404377 C77.8549331,120.450048 78.6085011,120.541389 79.2022214,120.609895 C82.6161129,121.020932 87.0005087,122.379638 90.6770073,124.160799 C93.5771025,125.565176 96.4429445,127.346337 99.5485582,129.686965 C99.7198237,129.812559 100.165114,130.15509 100.541898,130.463368 L101.22696,131 L115.533335,130.977165 C127.268906,130.948377 129.383538,130.943784 129.739253,130.814276 L129.763015,130.804198 C129.776772,130.797315 129.786529,130.790103 129.793308,130.782541 L129.801371,130.770934 L129.801371,130.770934 L129.805731,130.758789 L129.805731,130.758789 L129.807154,130.746091 C129.807189,130.743928 129.807134,130.741741 129.807004,130.73953 L129.805456,130.725975 L129.805456,130.725975 C129.782621,130.611798 129.599938,130.143673 129.394419,129.698382 C129.188901,129.253092 128.949129,128.705043 128.869205,128.488107 C128.813259,128.336251 128.662202,127.988582 128.494362,127.617416 L128.348216,127.297538 C128.323782,127.244605 128.299462,127.192198 128.275485,127.140818 C128.035713,126.615604 127.841612,126.158896 127.841612,126.147479 C127.841612,126.124643 127.647512,125.679353 127.396322,125.154139 C127.156551,124.628925 126.66559,123.50999 126.300223,122.665081 C125.934857,121.820171 125.466731,120.758325 125.272631,120.324453 C125.067112,119.879163 124.758834,119.194101 124.587569,118.783064 C124.416303,118.372027 124.153696,117.766889 124.005266,117.435775 C123.856836,117.104662 123.605647,116.545195 123.457217,116.179829 C123.308787,115.82588 123.000509,115.140818 122.783572,114.672693 C122.566636,114.204567 122.246941,113.485252 122.075675,113.074215 C121.641803,112.023787 120.682716,109.831589 120.294514,108.986679 C120.1301,108.637298 119.99343,108.32491 119.96774,108.249279 L119.963401,108.233111 C119.963401,108.226261 119.957007,108.206166 119.945316,108.174927 L119.895443,108.04988 C119.831869,107.895604 119.73048,107.659943 119.62087,107.399619 C119.426769,106.977165 119.198415,106.463368 119.118492,106.280685 C119.038568,106.086584 118.833049,105.652712 118.673201,105.310181 C118.524771,104.96765 117.725533,103.140818 116.903458,101.256898 C116.786019,100.987767 116.665318,100.711412 116.543551,100.432927 L116.299249,99.8746245 C115.64746,98.3862923 115.007033,96.9339405 114.71126,96.2901998 C114.323059,95.4452902 113.934857,94.5661275 113.854933,94.3491912 C113.775009,94.132255 113.52382,93.5613701 113.306884,93.0932445 C113.089947,92.6251189 112.690328,91.7231208 112.427721,91.1065652 L112.347135,90.9146451 L112.347135,90.9146451 L112.17966,90.520118 C111.982887,90.0596765 111.789472,89.6176974 111.685571,89.3939106 C111.537141,89.074215 110.817826,87.452902 110.098511,85.7859182 C109.367778,84.1189343 108.694134,82.6003806 108.602792,82.4176974 C108.522868,82.2235966 108.363021,81.869648 108.248844,81.6184586 C108.146084,81.3672693 107.91773,80.8534729 107.746465,80.4766889 C107.5752,80.0999049 107.289757,79.4605138 107.118492,79.0494767 C106.947226,78.6384396 106.707455,78.1018078 106.604695,77.8506185 C106.490518,77.5994291 106.102317,76.7202664 105.748368,75.9096099 C105.232496,74.7252833 105.021787,74.2391347 104.82495,73.7979621 L104.740591,73.6097374 C104.655383,73.4204575 104.565079,73.2222991 104.44675,72.963844 C104.25265,72.5413892 104.092802,72.1760228 104.092802,72.1417697 C104.092802,72.1189343 103.887283,71.6508088 103.636094,71.114177 C103.384905,70.5775452 103.179386,70.1208373 103.179386,70.0865842 C103.179386,70.0637488 102.745513,69.0589914 102.208882,67.8715509 C101.67225,66.6726927 101.238377,65.6679353 101.238377,65.6336822 C101.238377,65.5994291 101.067112,65.1998097 100.861593,64.7431018 C100.644657,64.2863939 100.130861,63.1217888 99.708406,62.1512845 C99.2745335,61.1807802 98.8634964,60.2216936 98.7835725,60.0390105 C98.5323831,59.4681256 97.2307656,56.5223597 97.0709179,56.1569933 C96.990994,55.9628925 96.7512223,55.4262607 96.5457038,54.9581351 C96.4971786,54.8411037 96.4429445,54.7126546 96.386748,54.5809943 L96.2160178,54.1845861 C96.103268,53.9248335 95.9976543,53.6850618 95.9291481,53.5309229 C95.6437057,52.8915319 94.8102138,51.0190295 94.501936,50.3339676 C94.3991767,50.0827783 94.1137342,49.4548049 93.8853803,48.9524263 C93.6570263,48.4386299 93.4743432,47.9933397 93.4743432,47.9590866 C93.4743432,47.9248335 93.3030777,47.5252141 93.0861415,47.0570885 C92.8806229,46.6003806 92.538092,45.8353949 92.3325734,45.3672693 C92.1270549,44.8991437 91.8416125,44.2483349 91.6931824,43.9172217 C91.5447523,43.5975262 91.4191576,43.300666 91.4191576,43.2778306 C91.4191576,43.2435775 91.2364745,42.8211227 91.0081205,42.3187441 C90.7797666,41.8277831 90.5171596,41.2454805 90.4144003,41.0285442 C90.2383553,40.6246764 88.7004304,37.102573 87.0528561,33.3415126 L86.7986869,32.761391 C86.7137881,32.5676476 86.6287698,32.3736641 86.5438008,32.1798287 C85.8929921,30.6726927 85.2307656,29.1769743 85.0823356,28.8686965 C84.9826902,28.6361906 84.7622626,28.1379638 84.5352469,27.6199727 L84.3655341,27.2316166 C84.3376375,27.1675539 84.310084,27.1041432 84.2830968,27.0418649 C83.853254,26.0478536 83.609097,25.4884259 83.3763275,24.9708298 L83.2366379,24.66215 C83.1190447,24.4038632 82.9955835,24.1363967 82.8444669,23.8106565 C82.5932775,23.2854424 82.3991767,22.8401522 82.3991767,22.8173168 C82.3991767,22.7830637 82.2507466,22.4291151 82.0566458,22.018078 C81.8739626,21.6070409 81.7141148,21.2416746 81.7141148,21.2188392 C81.7141148,21.1960038 81.5656848,20.8420552 81.3830016,20.4538535 C81.2117361,20.0542341 80.7892813,19.1179829 80.4581681,18.3644148 C80.1384726,17.6108468 79.7502709,16.7316841 79.6018408,16.4234063 C79.3163984,15.7840152 79.2478922,15.6355852 78.049034,12.9067555 C77.5923261,11.8563273 77.181289,11 77.1356182,11 Z" id="Combined-Shape"></path>
        </g>
    </g>
</svg>