<?xml version="1.0" standalone="no"?>
<!DOCTYPE svg PUBLIC "-//W3C//DTD SVG 20010904//EN"
 "http://www.w3.org/TR/2001/REC-SVG-20010904/DTD/svg10.dtd">
<svg version="1.0" xmlns="http://www.w3.org/2000/svg"
 width="600.000000pt" height="600.000000pt" viewBox="0 0 600.000000 600.000000"
 preserveAspectRatio="xMidYMid meet">
<metadata>
Created by potrace 1.14, written by Peter Selinger 2001-2017
</metadata>
<g transform="translate(0.000000,600.000000) scale(0.100000,-0.100000)"
fill="#000000" stroke="none">
<path d="M2803 5913 c9 -2 25 -2 35 0 9 3 1 5 -18 5 -19 0 -27 -2 -17 -5z"/>
<path d="M3165 5835 c11 -9 29 -21 40 -26 l20 -10 -20 16 c-11 9 -29 21 -40
26 l-20 10 20 -16z"/>
<path d="M2537 5780 c-49 -17 -101 -37 -115 -46 -30 -17 -30 -17 87 20 76 24
96 26 259 26 202 0 266 -8 389 -50 93 -31 88 -15 -6 21 -107 40 -226 59 -381
59 -135 0 -151 -3 -233 -30z"/>
<path d="M2766 5741 c-28 -6 -39 -17 -50 -53 -6 -21 -46 -24 -64 -6 -9 9 -15
8 -26 -8 -18 -25 -29 -14 -20 21 7 28 11 28 73 9 19 -6 22 -4 19 12 -4 24 -54
30 -125 14 -57 -12 -60 -15 -39 -39 28 -31 22 -43 -24 -56 -25 -6 -54 -16 -64
-20 -13 -6 -6 9 23 48 l42 57 -53 -20 c-29 -11 -54 -20 -54 -20 -1 0 -4 -18
-8 -40 -5 -30 -11 -40 -25 -40 -11 0 -34 -12 -51 -26 -17 -15 -33 -25 -35 -22
-10 10 18 79 36 89 12 6 18 13 15 16 -2 3 -18 -5 -35 -16 -30 -22 -62 -94 -48
-108 4 -3 36 5 71 20 214 87 425 113 674 83 72 -9 144 -21 159 -27 26 -10 27
-10 9 10 -10 11 -35 23 -57 26 -33 6 -39 11 -39 31 0 19 5 24 28 25 48 1 -66
29 -158 39 -98 10 -133 10 -174 1z m102 -7 c35 -10 26 -20 -15 -16 -24 2 -45
-3 -58 -12 -19 -15 -17 -16 31 -10 41 5 52 3 57 -10 6 -14 -4 -16 -75 -16
l-81 0 24 26 c36 39 70 50 117 38z m160 -22 c7 -5 10 -16 6 -26 -5 -13 -15
-15 -43 -11 l-36 5 32 -12 c37 -15 58 -33 28 -25 -11 3 -34 8 -52 12 -35 7
-49 30 -32 51 12 15 76 19 97 6z"/>
<path d="M2978 5698 c6 -6 18 -8 28 -6 14 3 12 5 -9 10 -19 3 -25 2 -19 -4z"/>
<path d="M3541 5736 c2 -2 15 -9 29 -15 24 -11 24 -11 6 3 -16 13 -49 24 -35
12z"/>
<path d="M3156 5685 c12 -8 24 -27 27 -42 3 -15 16 -34 28 -41 19 -12 21 -12
15 3 -3 9 -6 27 -6 41 0 16 -9 28 -30 39 -37 19 -61 20 -34 0z"/>
<path d="M3111 5676 c2 -2 15 -9 29 -15 24 -11 24 -11 6 3 -16 13 -49 24 -35
12z"/>
<path d="M2495 5660 c-3 -6 1 -7 9 -4 18 7 21 14 7 14 -6 0 -13 -4 -16 -10z"/>
<path d="M2343 5628 c-12 -6 -24 -16 -27 -24 -3 -8 8 -5 30 8 47 28 45 39 -3
16z"/>
<path d="M2228 5613 c-8 -10 -22 -38 -31 -62 -16 -42 -16 -43 2 -27 15 14 55
106 46 106 -1 0 -9 -8 -17 -17z"/>
<path d="M2694 5620 c-59 -9 -90 -23 -104 -50 -16 -30 -12 -58 12 -74 44 -31
244 -15 318 24 16 8 30 9 52 1 17 -6 47 -11 67 -11 34 -1 35 -1 16 -16 -15
-12 -35 -14 -80 -10 -33 3 -78 2 -100 -3 -32 -7 -18 -9 68 -10 61 0 117 4 128
10 16 8 25 7 40 -7 26 -23 25 -28 -18 -57 -27 -18 -56 -26 -103 -30 l-65 -6
40 14 c22 7 52 14 66 14 14 1 36 12 49 26 l23 24 -99 -5 c-55 -3 -121 -5 -148
-4 -30 0 -55 -5 -65 -14 -18 -16 -121 -86 -127 -86 -2 0 -4 8 -4 18 0 9 -13
38 -29 63 -26 41 -36 48 -100 69 -62 20 -76 21 -119 11 -26 -7 -61 -23 -77
-37 l-30 -25 30 15 c17 8 53 22 80 30 46 12 54 12 85 -5 19 -10 44 -18 56 -19
21 0 54 -30 73 -67 20 -39 12 -36 -35 14 -42 43 -43 44 -16 8 40 -53 71 -85
82 -85 17 0 106 42 135 64 16 13 41 26 55 30 24 7 24 7 5 -8 -11 -8 -33 -24
-50 -36 -16 -12 -39 -28 -50 -36 l-20 -15 20 5 c11 2 76 10 145 16 151 14 178
21 216 61 35 37 28 54 -37 86 -64 31 -127 43 -158 31 -14 -6 -44 -14 -66 -19
-22 -4 -60 -12 -85 -18 -60 -13 -143 -14 -135 -1 3 6 39 10 79 10 48 0 79 5
92 15 10 8 37 15 59 15 36 1 38 2 16 11 -17 7 -45 6 -85 -2 -77 -14 -195 -20
-174 -8 17 9 74 18 143 23 22 1 46 3 53 4 20 3 14 22 -10 32 -21 8 -22 9 -3
10 l20 1 -20 9 c-24 10 -42 10 -111 0z m79 -7 c-7 -2 -19 -2 -25 0 -7 3 -2 5
12 5 14 0 19 -2 13 -5z m-53 -8 c0 -6 -50 -31 -80 -39 -14 -4 -5 5 20 18 45
25 60 30 60 21z m325 -172 c-11 -2 -66 -17 -121 -34 -109 -31 -130 -35 -99
-17 34 20 168 57 205 56 19 0 26 -2 15 -5z"/>
<path d="M2445 5561 c-38 -10 -88 -28 -110 -40 -22 -12 -31 -19 -20 -15 11 4
64 19 118 34 141 39 150 55 12 21z"/>
<path d="M3153 5544 c52 -34 56 -39 38 -46 -23 -8 -26 -19 -10 -35 8 -8 22 -6
50 6 53 24 55 28 34 51 -16 18 -58 33 -150 57 -11 2 6 -12 38 -33z"/>
<path d="M2180 5478 c-47 -13 -77 -43 -85 -85 -3 -19 -4 -37 -2 -39 4 -4 144
59 154 70 2 2 8 17 13 35 8 29 7 31 -18 30 -15 0 -43 -5 -62 -11z m45 -17
c-17 -16 -85 -40 -85 -30 0 5 1 9 3 9 1 0 20 7 42 15 48 17 52 18 40 6z m-25
-42 c-29 -19 -70 -39 -70 -34 0 7 63 45 75 45 6 0 3 -5 -5 -11z"/>
<path d="M3293 5465 c-10 -28 25 -52 85 -60 31 -4 63 -12 69 -17 7 -6 43 -12
80 -15 l68 -4 -34 31 c-31 29 -39 32 -82 28 -40 -4 -56 0 -96 23 -54 32 -81
36 -90 14z m73 -26 c8 -14 -10 -11 -32 6 -18 13 -18 14 4 8 12 -3 25 -9 28
-14z m154 -39 c8 -5 11 -10 5 -10 -5 0 -17 5 -25 10 -8 5 -10 10 -5 10 6 0 17
-5 25 -10z"/>
<path d="M2433 5448 c-28 -13 -40 -47 -22 -59 8 -5 26 -9 40 -9 15 0 42 -3 60
-6 l34 -6 -30 21 c-21 15 -39 19 -60 16 -28 -6 -29 -5 -11 10 26 20 44 19 84
-5 18 -11 35 -20 37 -20 12 0 3 19 -20 44 -26 28 -71 34 -112 14z m74 -4 c-3
-3 -12 -4 -19 -1 -8 3 -5 6 6 6 11 1 17 -2 13 -5z"/>
<path d="M4100 5433 c0 -9 50 -93 55 -93 6 0 -6 31 -28 68 -18 31 -27 39 -27
25z"/>
<path d="M2024 5418 c-5 -7 -20 -35 -34 -62 -14 -28 -34 -54 -45 -60 -46 -24
-96 -58 -92 -62 3 -3 20 4 38 15 19 11 58 26 87 33 62 13 92 44 92 92 0 45
-29 72 -46 44z m13 -82 c-3 -8 -16 -20 -28 -26 -17 -10 -20 -9 -14 2 24 41 55
59 42 24z"/>
<path d="M2240 5366 c0 -6 6 -21 14 -31 13 -18 24 -19 123 -15 59 2 134 4 167
4 45 0 53 2 35 8 -13 5 -83 6 -156 2 l-131 -7 -26 26 c-14 14 -26 20 -26 13z"/>
<path d="M2300 5370 c0 -6 23 -10 52 -10 62 0 60 5 -4 13 -29 4 -48 3 -48 -3z"/>
<path d="M4241 5340 c14 -31 19 -36 19 -24 0 6 -7 19 -16 30 -14 18 -14 18 -3
-6z"/>
<path d="M2775 5315 l-80 -12 81 -2 c62 -1 85 3 94 14 15 18 19 18 -95 0z"/>
<path d="M1867 5287 c-39 -24 -103 -94 -94 -103 3 -3 25 14 49 39 24 24 61 54
83 65 28 15 34 21 20 22 -11 0 -37 -10 -58 -23z"/>
<path d="M2435 5268 c-44 -5 -87 -13 -96 -18 -9 -5 -45 -14 -80 -21 -35 -7
-96 -27 -135 -45 -39 -17 -99 -39 -134 -48 -35 -9 -71 -23 -80 -31 -8 -7 -40
-23 -70 -35 -30 -11 -69 -28 -86 -38 -17 -9 -64 -34 -105 -54 -103 -52 -230
-171 -270 -252 l-30 -61 48 52 c74 79 371 273 553 360 208 101 309 136 480
168 41 8 89 19 105 24 27 8 28 9 5 9 -14 -1 -61 -5 -105 -10z"/>
<path d="M3073 5272 c4 -6 40 -18 80 -27 39 -9 81 -18 92 -22 11 -3 17 -2 13
2 -4 4 -40 15 -80 25 -40 10 -82 21 -92 25 -13 6 -17 5 -13 -3z"/>
<path d="M1530 5225 c-18 -19 -31 -37 -29 -40 3 -2 23 13 44 35 22 22 35 40
29 40 -6 0 -25 -16 -44 -35z"/>
<path d="M4130 5212 c0 -10 14 -31 31 -48 l31 -29 -21 42 c-24 48 -41 63 -41
35z"/>
<path d="M2500 5185 c-63 -13 -146 -31 -185 -40 -230 -55 -487 -169 -650 -291
-101 -75 -294 -234 -315 -259 -8 -10 -38 -27 -66 -40 -29 -13 -57 -31 -63 -41
-10 -18 -10 -18 -11 1 0 11 7 34 16 50 l15 30 -30 -30 c-37 -34 -46 -64 -62
-203 -10 -90 -8 -371 3 -437 2 -14 -7 -24 -33 -36 -19 -10 -42 -25 -50 -35
-19 -23 -16 -130 5 -212 17 -63 25 -165 46 -537 10 -189 10 -204 -9 -279 -42
-159 -20 -241 81 -309 54 -36 57 -41 68 -95 20 -103 81 -285 135 -399 59 -125
122 -225 243 -388 96 -128 271 -459 255 -483 -15 -25 -100 -50 -193 -57 -76
-6 -103 -13 -168 -45 -42 -20 -99 -54 -126 -75 -28 -21 -115 -67 -195 -102
-201 -90 -260 -123 -556 -319 -250 -166 -267 -179 -458 -359 -109 -104 -195
-190 -192 -193 3 -3 33 21 67 54 63 61 65 59 16 -13 l-29 -43 1574 0 1575 0
16 25 c9 13 42 53 74 87 32 35 65 79 72 97 8 19 61 82 118 140 150 153 256
296 346 467 20 40 81 125 135 190 53 66 115 146 138 179 37 55 141 258 170
330 6 17 21 46 32 65 30 53 141 305 141 321 0 24 30 60 43 52 7 -4 4 4 -6 17
-44 63 -44 89 -1 282 13 59 24 136 24 173 0 54 3 67 18 71 9 3 36 14 60 25 48
22 98 90 108 148 12 74 33 140 88 271 39 94 63 173 80 260 14 69 34 149 46
178 47 123 -2 401 -73 411 -12 1 -42 3 -67 3 -47 0 -69 -17 -115 -93 -11 -18
-33 -37 -50 -42 -16 -5 -38 -16 -47 -24 -22 -20 -52 -108 -45 -135 6 -23 5
-21 -41 38 -37 49 -41 65 -9 38 l22 -19 -19 22 c-18 22 -36 22 -36 2 0 -6 13
-29 29 -52 21 -31 29 -54 30 -85 l0 -43 -22 30 c-69 93 -89 116 -82 91 4 -14
24 -45 43 -69 34 -41 36 -49 37 -115 1 -48 10 -101 30 -164 l28 -93 30 28 c16
15 37 44 47 63 10 19 28 55 41 79 15 29 23 63 24 101 1 58 26 109 53 110 19 0
50 -57 73 -135 l21 -69 44 88 c32 64 44 101 44 132 0 25 -5 44 -11 44 -7 0 -9
13 -4 38 3 20 -1 68 -9 107 -8 38 -13 71 -11 73 9 9 27 -77 37 -174 10 -107 9
-114 -15 -185 -14 -41 -28 -101 -32 -134 -10 -93 -39 -189 -99 -330 -31 -72
-61 -157 -67 -190 -26 -133 -99 -206 -142 -142 -15 22 -15 21 -22 -18 -4 -22
-13 -54 -21 -72 -8 -17 -14 -57 -14 -88 0 -102 -50 -263 -109 -348 -15 -23
-40 -70 -54 -105 -14 -34 -40 -88 -58 -118 -29 -48 -154 -220 -181 -249 -12
-13 19 75 32 91 6 6 24 38 40 70 16 33 45 86 65 119 19 33 44 80 56 105 12 25
27 48 33 52 7 4 23 29 35 57 21 44 22 53 11 81 -16 38 -27 30 -71 -48 -17 -31
-48 -79 -68 -107 -21 -27 -49 -76 -64 -108 -51 -111 -206 -325 -261 -358 -43
-26 -53 -24 -19 5 15 13 43 46 62 72 32 47 30 45 -44 -26 -42 -41 -100 -102
-127 -135 -48 -57 -133 -135 -170 -156 -10 -5 11 32 45 83 35 51 73 111 86
133 l24 40 -40 -39 c-32 -29 -42 -35 -45 -22 -2 11 -27 -12 -78 -70 -81 -95
-124 -130 -214 -176 -45 -23 -67 -28 -92 -23 -24 4 -31 10 -27 20 7 19 1 19
-45 -1 -25 -11 -77 -18 -158 -22 -114 -4 -121 -6 -117 -23 5 -19 -1 -19 -151
-15 -143 4 -158 6 -188 28 -28 20 -43 23 -108 21 -89 -3 -132 9 -160 44 -32
41 -6 76 135 183 107 81 157 144 194 244 35 93 93 189 131 216 30 21 129 42
285 59 50 5 103 14 118 20 46 18 87 13 141 -17 28 -16 64 -32 80 -36 15 -4 45
-20 65 -36 53 -42 86 -47 124 -19 44 32 56 50 104 158 34 75 54 105 98 147 52
50 55 55 55 101 0 26 -9 80 -19 118 -15 58 -23 73 -50 90 -18 11 -54 37 -81
57 -55 42 -74 88 -62 148 7 29 16 39 54 57 41 20 50 30 96 120 27 54 53 109
57 123 13 44 146 304 174 340 16 19 36 51 46 70 21 40 172 202 228 242 39 30
47 48 21 48 -41 0 -188 -131 -318 -283 -93 -109 -166 -217 -147 -217 19 0 63
45 83 83 37 75 163 226 231 279 31 24 22 11 -34 -48 -94 -100 -120 -138 -205
-299 -37 -72 -83 -152 -101 -178 -18 -27 -42 -79 -53 -115 -36 -119 -54 -135
-125 -112 -34 11 -37 15 -31 41 l5 29 -37 -24 c-70 -45 -138 -61 -257 -61
-107 0 -112 1 -186 37 -71 35 -134 89 -181 158 l-18 25 12 -30 c6 -16 16 -52
23 -80 9 -40 19 -55 46 -72 90 -58 120 -93 121 -142 2 -51 -32 -77 -108 -84
-84 -8 -138 -33 -208 -96 -55 -50 -58 -51 -117 -51 -71 0 -98 12 -176 81 -56
49 -60 51 -105 45 -41 -4 -52 -1 -78 20 -47 40 -40 113 16 172 18 18 25 15 20
-10 -3 -13 -8 -41 -11 -63 l-7 -40 35 45 c19 25 46 69 61 98 35 69 85 123 140
153 40 21 45 27 44 56 -1 18 4 38 10 46 6 7 13 23 15 35 2 12 12 29 23 36 19
15 19 15 -1 53 -12 23 -30 40 -45 43 -22 6 -20 8 24 23 59 20 114 21 139 3 21
-16 22 -27 3 -20 -23 9 41 -109 86 -161 41 -46 74 -63 44 -22 -38 51 -56 83
-55 97 0 8 11 -6 25 -32 24 -48 37 -57 49 -38 3 6 19 8 35 5 l28 -5 -10 37
c-15 57 -46 111 -68 123 -22 12 -26 44 -11 82 11 27 64 91 56 67 -5 -13 2 -15
40 -13 25 2 55 6 66 9 33 11 21 -12 -13 -25 -68 -25 -78 -30 -77 -37 0 -13
113 -82 199 -121 45 -21 77 -41 73 -46 -4 -4 0 -12 9 -17 12 -7 14 -16 8 -44
-9 -41 1 -45 53 -20 24 12 28 12 15 2 -22 -17 -24 -41 -3 -33 14 5 14 2 1 -22
-8 -15 -29 -47 -45 -72 -38 -56 -41 -75 -3 -27 44 57 82 106 155 195 37 46 67
89 67 97 0 15 185 82 280 101 50 10 114 57 150 111 l32 48 -36 -34 c-20 -19
-36 -30 -36 -24 0 6 -17 20 -37 30 -21 11 -61 34 -90 52 -41 26 -55 31 -70 22
-10 -6 -12 -11 -5 -11 6 0 12 -4 12 -9 0 -5 -9 -7 -20 -4 -32 8 -24 -4 26 -37
25 -18 43 -34 41 -37 -8 -7 -42 14 -105 65 -31 25 -81 61 -110 78 l-52 32 45
4 c43 3 59 -5 33 -15 -9 -4 -8 -6 2 -6 8 -1 37 26 64 58 27 33 87 97 135 143
85 83 219 255 315 402 63 99 119 158 139 150 9 -3 43 -39 77 -80 72 -87 89
-98 29 -19 -57 75 -45 78 16 5 47 -57 110 -110 131 -110 6 0 21 -12 35 -27
l24 -27 -29 22 c-16 12 -34 22 -41 22 -7 0 -24 9 -39 21 -38 30 -32 6 7 -26
17 -15 37 -36 42 -46 6 -9 29 -31 53 -48 23 -17 42 -36 42 -42 0 -5 -15 1 -32
14 -54 40 -77 41 -33 2 64 -57 102 -66 90 -22 -15 56 -71 195 -87 219 -10 14
-18 30 -18 36 0 5 -13 28 -30 50 -16 23 -30 46 -30 50 0 15 -42 97 -61 117
-10 11 -25 38 -34 60 -17 41 -61 95 -78 95 -5 0 -3 -8 4 -17 13 -17 12 -17 -6
-1 -22 18 -110 59 -166 77 -19 6 -87 47 -150 91 -63 44 -139 98 -169 119 -234
164 -581 284 -922 321 -145 15 -260 11 -388 -15z m615 -38 c210 -44 445 -134
570 -219 152 -103 198 -137 280 -207 90 -76 305 -288 305 -301 0 -10 -96 -118
-128 -144 -104 -85 -224 -130 -324 -123 -118 8 -169 51 -362 312 -57 77 -146
181 -198 232 -52 51 -90 94 -85 96 21 7 -114 102 -221 155 l-115 57 -241 2
c-263 2 -407 -13 -461 -48 -16 -10 -48 -27 -70 -38 -53 -26 -155 -108 -155
-125 0 -8 -28 -40 -62 -72 -35 -32 -62 -61 -61 -64 1 -3 -10 -19 -23 -36 -24
-27 -24 -17 0 16 6 9 1 5 -12 -8 -12 -13 -20 -28 -16 -33 3 -5 -10 -31 -29
-57 -19 -26 -57 -87 -84 -137 -78 -141 -121 -208 -149 -232 -77 -69 -174 29
-174 177 0 30 53 136 99 200 87 120 233 260 366 350 198 134 446 221 754 265
152 22 445 13 596 -18z m-1887 -732 c9 -12 5 -8 -10 7 -16 16 -28 36 -27 46 0
12 3 9 10 -8 6 -14 18 -34 27 -45z m-49 -193 c1 -13 -3 -20 -9 -17 -5 3 -9 32
-9 63 1 57 1 57 10 17 4 -22 8 -50 8 -63z m3261 13 c25 -30 3 -25 -26 6 -22
24 -24 29 -8 21 11 -6 27 -18 34 -27z m-3077 -90 c12 -8 16 -15 8 -15 -15 0
-71 57 -71 72 0 6 9 -1 21 -16 11 -14 30 -33 42 -41z m532 7 c0 -9 -4 -22 -8
-29 -4 -6 0 -13 8 -17 8 -3 15 -12 15 -21 0 -9 12 -18 31 -22 19 -3 34 -14 36
-25 4 -14 15 -18 57 -18 28 0 69 -5 91 -10 22 -5 42 -6 45 -2 9 13 41 13 56 1
11 -9 14 -9 12 -1 -2 6 11 23 27 37 17 14 22 22 13 19 -21 -7 -22 -1 -8 26 10
19 12 19 79 -5 38 -14 105 -31 149 -39 48 -9 88 -21 99 -33 11 -10 32 -27 47
-37 14 -10 24 -21 22 -24 -6 -6 44 -47 67 -55 10 -4 32 0 49 9 24 13 28 18 17
26 -12 8 -11 9 1 5 8 -2 38 6 66 18 52 23 65 24 269 25 326 0 381 -8 490 -72
47 -27 45 -30 -12 -13 -19 5 -23 2 -23 -14 0 -13 -6 -21 -16 -21 -11 0 -15 -6
-11 -20 4 -16 0 -20 -21 -21 -25 0 -26 -1 -8 -12 10 -7 31 -22 45 -34 l26 -22
-40 9 c-22 5 -56 9 -75 9 l-35 -1 39 -11 c37 -11 34 -12 -50 -14 -49 -1 -109
-6 -134 -12 -25 -5 -76 -13 -115 -16 -52 -4 -88 -14 -140 -41 -88 -44 -110
-69 -126 -137 -6 -30 -26 -81 -43 -113 l-31 -59 -50 1 c-27 1 -72 3 -100 4
-27 2 -61 0 -74 -5 -17 -6 -22 -5 -17 3 4 7 1 12 -7 12 -8 0 -27 16 -43 37
-15 20 -49 58 -76 85 -36 37 -49 58 -54 90 -4 23 -17 52 -29 64 -31 31 -124
56 -240 63 -103 7 -160 25 -134 42 11 6 11 11 1 21 -6 6 -12 22 -12 35 0 15
-7 24 -22 28 -40 10 -126 22 -145 20 -37 -3 -84 -37 -121 -88 -22 -28 -49 -61
-62 -72 -30 -27 -50 -68 -50 -104 0 -43 13 -45 35 -5 24 44 46 49 142 30 57
-11 89 -13 118 -6 226 54 505 -92 565 -296 15 -49 0 -188 -26 -254 -22 -55
-29 -40 -10 23 15 51 8 60 -18 25 -9 -13 -14 -17 -10 -10 4 9 0 12 -12 10 -13
-2 -18 3 -19 22 0 19 -6 25 -22 26 -26 1 -29 -6 -11 -24 9 -9 8 -12 -5 -12
-26 0 -68 30 -60 44 4 6 -1 5 -10 -3 -9 -7 -14 -18 -10 -24 3 -6 1 -7 -6 -3
-7 4 -20 -2 -31 -16 -25 -29 -45 -62 -33 -55 12 7 44 -29 35 -39 -4 -4 1 -4
10 -1 10 3 20 2 23 -3 4 -6 19 -10 36 -10 26 0 29 -3 29 -30 0 -24 4 -30 20
-30 23 0 22 -2 -27 -56 -79 -88 -336 -102 -488 -27 -16 8 -60 45 -98 82 -59
57 -72 66 -105 66 -38 0 -38 -1 -24 50 4 16 -4 12 -41 -18 -62 -50 -60 -29 3
40 28 30 51 62 51 71 5 49 -4 158 -13 167 -7 7 -9 -17 -4 -76 l6 -86 -61 -56
-61 -56 7 -58 c8 -68 23 -102 35 -83 5 8 10 2 15 -19 5 -24 12 -31 30 -31 32
0 134 27 149 39 7 6 20 3 36 -9 23 -18 24 -20 4 -20 -11 0 -28 -6 -37 -13 -16
-11 -15 -15 15 -44 30 -28 41 -31 113 -36 81 -5 93 -7 158 -25 20 -6 38 -7 41
-4 3 3 6 0 6 -6 0 -7 9 -12 20 -12 13 0 20 -7 20 -19 0 -11 5 -21 11 -23 17
-6 -39 -66 -172 -184 -133 -118 -169 -172 -152 -227 5 -18 38 -71 72 -120 34
-48 74 -113 87 -145 14 -31 47 -79 73 -107 26 -27 58 -67 71 -88 12 -21 32
-42 45 -47 21 -8 95 -133 95 -160 0 -9 -12 -11 -40 -6 -37 6 -41 4 -51 -21 -5
-16 -19 -46 -30 -67 -15 -28 -19 -49 -14 -73 8 -42 18 -42 30 -1 12 40 35 49
35 14 0 -13 5 -28 10 -31 6 -3 10 -21 10 -38 1 -30 3 -29 44 36 24 38 47 68
51 67 4 -1 11 4 16 11 6 11 9 10 15 -4 3 -9 10 -15 15 -12 4 3 6 12 2 20 -4
11 2 15 22 15 l28 0 -27 -32 c-34 -42 -78 -136 -78 -166 -1 -38 33 -75 95
-105 31 -15 57 -32 57 -37 0 -11 96 -74 128 -84 27 -9 28 -21 5 -35 -17 -10
-16 -10 2 -11 11 0 37 -17 57 -38 21 -22 55 -44 78 -51 22 -6 40 -16 40 -21 0
-6 4 -9 8 -8 14 5 82 -25 82 -36 0 -12 40 -56 51 -56 4 0 19 -10 32 -23 l25
-22 -40 -20 c-22 -11 -45 -29 -50 -41 -7 -15 -16 -20 -26 -16 -11 4 -14 1 -10
-10 7 -16 -18 -42 -50 -52 -26 -9 -50 -36 -32 -36 8 0 11 -9 8 -25 -3 -13 0
-26 6 -28 6 -2 -1 -21 -18 -45 -15 -23 -31 -40 -35 -39 -3 1 -18 -9 -31 -22
l-25 -23 40 6 40 6 -45 -23 c-40 -19 -61 -22 -180 -22 -127 0 -139 2 -195 28
-86 40 -122 71 -171 148 -54 82 -84 161 -130 332 -18 70 -43 145 -54 166 -11
22 -17 47 -14 56 11 28 -158 364 -238 475 -38 54 -38 54 -4 15 33 -37 61 -83
173 -278 47 -83 59 -93 43 -36 -26 88 -40 173 -29 180 7 4 8 12 5 18 -15 23
13 10 34 -17 l21 -27 -7 25 c-10 38 -101 210 -123 234 -50 54 -130 219 -170
347 -12 37 -61 93 -61 70 0 -22 -28 6 -47 46 -9 19 -27 40 -40 46 -12 5 -23
14 -23 19 0 4 -7 8 -16 8 -33 0 -67 66 -78 150 -4 30 -13 69 -21 85 l-14 30 6
-32 c7 -44 -2 -41 -27 8 -12 23 -24 39 -27 36 -2 -3 1 -15 7 -27 6 -12 13 -46
16 -76 2 -30 13 -91 24 -135 12 -45 19 -83 17 -86 -5 -5 -42 128 -56 202 -5
28 -18 66 -28 85 -25 49 -26 274 0 377 9 40 17 98 17 130 0 35 8 80 21 113 15
40 20 70 17 109 -4 40 1 67 18 110 13 31 21 63 18 72 -2 10 4 41 16 70 l20 54
-27 67 c-25 66 -27 68 -45 51 -10 -9 -16 -23 -13 -31 3 -9 -6 -31 -19 -51 -14
-20 -28 -52 -31 -71 l-6 -35 31 31 c22 21 33 44 37 72 l6 41 19 -24 c17 -22
18 -28 4 -85 -8 -38 -23 -72 -39 -88 -22 -23 -25 -33 -20 -69 7 -55 -12 -57
-61 -8 l-35 34 -16 -57 c-24 -82 -18 -261 10 -292 17 -18 34 -56 52 -112 6
-21 -23 -71 -37 -63 -5 3 -12 27 -15 53 -4 26 -14 74 -22 107 -30 117 -19 256
31 390 9 23 15 74 16 121 0 77 -2 83 -38 135 -21 29 -47 58 -59 64 -25 13 -16
39 10 29 20 -7 90 -98 111 -144 16 -35 16 -35 12 -5 -3 17 -8 39 -11 50 -6 17
-3 16 15 -5 l22 -25 -7 30 c-6 30 -17 43 -66 77 l-24 18 28 -10 c16 -6 36 -10
46 -10 20 0 141 155 141 182 0 29 -38 8 -50 -27 -13 -39 -76 -125 -91 -125 -6
0 0 19 14 43 13 23 40 70 60 105 45 78 31 73 -17 -7 -31 -50 -86 -105 -86 -85
0 11 44 69 62 82 10 7 18 18 18 24 0 6 -15 -1 -34 -16 -46 -35 -84 -36 -41 -1
17 13 39 27 50 31 11 3 32 17 47 31 16 15 31 22 39 18 7 -5 10 -4 6 2 -7 12
77 71 131 92 45 19 60 4 61 -62 0 -35 9 -73 26 -110 15 -31 28 -57 30 -57 5 0
-17 70 -34 114 -11 29 -7 81 8 90 7 5 11 -18 11 -65 0 -15 6 -29 15 -32 11 -5
13 0 8 26 -3 18 -9 39 -13 47 -3 8 -6 22 -5 30 0 8 -4 18 -9 22 -6 4 -6 11 1
20 6 7 13 24 15 38 4 23 5 22 23 -15 10 -22 22 -53 25 -70 l6 -30 8 30 c4 17
15 47 23 67 l16 37 69 0 c38 -1 72 2 75 5 4 3 16 6 28 6 15 0 21 -6 20 -18z
m-615 -10 c0 -5 -20 -32 -45 -61 -55 -64 -60 -52 -7 18 35 48 52 62 52 43z
m30 -28 c0 -15 -60 -77 -94 -96 -18 -10 -18 -9 1 15 17 22 83 91 91 96 1 0 2
-6 2 -15z m107 10 c-3 -3 -12 -4 -19 -1 -8 3 -5 6 6 6 11 1 17 -2 13 -5z
m-106 -62 c-5 -9 -18 -26 -30 -36 -11 -10 -18 -22 -16 -26 6 -10 -49 -70 -64
-70 -26 0 -7 34 50 90 64 63 76 71 60 42z m1039 -417 c19 -19 32 -35 29 -35
-3 0 -20 16 -39 35 -19 19 -32 35 -29 35 3 0 20 -16 39 -35z m1164 -57 c94
-37 193 -123 235 -206 11 -22 26 -42 33 -45 7 -3 4 -6 -8 -6 -14 -1 -26 10
-37 35 -25 51 -112 139 -160 162 -31 14 -76 21 -169 27 -152 8 -201 -3 -298
-69 -72 -49 -92 -52 -39 -5 78 69 200 105 323 95 60 -5 66 -4 36 5 -19 6 -75
9 -125 7 -77 -4 -100 -9 -165 -40 -102 -48 -152 -94 -194 -180 -24 -46 -36
-63 -36 -48 0 60 79 169 158 217 131 81 316 102 446 51z m-541 -100 c-11 -13
-32 -41 -47 -63 -14 -22 -26 -35 -26 -30 0 19 74 115 89 115 2 0 -5 -10 -16
-22z m-1657 -100 c-18 -26 -22 -17 -5 14 6 11 13 17 16 15 3 -3 -2 -16 -11
-29z m2117 25 c-18 -2 -48 -2 -65 0 -18 2 -4 4 32 4 36 0 50 -2 33 -4z m245
-28 c31 -3 34 -8 22 -39 -14 -38 -137 -86 -220 -86 -73 0 -170 28 -206 59
l-34 30 22 15 c17 11 67 17 187 21 91 3 167 8 170 11 3 2 12 2 20 -2 9 -3 26
-7 39 -9z m-798 -25 c0 -5 -5 -10 -11 -10 -5 0 -7 5 -4 10 3 6 8 10 11 10 2 0
4 -4 4 -10z m-76 -12 c45 2 66 -13 104 -73 13 -22 37 -52 53 -67 16 -15 29
-37 29 -50 -1 -21 -4 -19 -36 17 -19 22 -46 59 -60 83 -15 23 -34 46 -43 51
-9 5 -65 6 -126 2 -84 -5 -117 -12 -140 -26 -16 -11 -26 -14 -21 -7 4 7 24 21
45 31 20 11 44 27 51 36 12 14 23 16 60 9 25 -4 63 -7 84 -6z m-434 -244 c0
-8 -19 -13 -24 -6 -3 5 1 9 9 9 8 0 15 -2 15 -3z m-800 -94 c0 -5 -2 -10 -4
-10 -3 0 -8 5 -11 10 -3 6 -1 10 4 10 6 0 11 -4 11 -10z m-30 -45 c0 -8 -4
-15 -10 -15 -5 0 -7 7 -4 15 4 8 8 15 10 15 2 0 4 -7 4 -15z m1640 -160 c20
-10 30 -23 30 -38 0 -48 -22 -143 -41 -175 -10 -18 -19 -40 -19 -49 0 -8 29
-46 64 -84 38 -40 77 -93 93 -128 28 -61 28 -61 71 -61 27 0 41 -4 37 -10 -4
-7 2 -9 19 -4 14 3 26 4 26 0 0 -5 -28 -14 -104 -32 -25 -6 -28 -5 -23 11 6
14 4 16 -10 9 -10 -4 -76 -11 -148 -14 -71 -4 -166 -12 -210 -19 -44 -7 -105
-16 -135 -20 -30 -5 -147 -7 -260 -4 -186 4 -203 3 -180 -11 14 -8 33 -15 42
-16 27 0 48 -29 48 -67 0 -49 9 -37 13 18 3 42 5 44 33 42 35 -3 64 -35 64
-72 0 -14 5 -33 10 -41 7 -11 10 2 10 44 l0 59 56 -6 c74 -8 99 -25 113 -81
15 -62 27 -58 23 8 l-4 55 39 10 c62 17 99 14 115 -11 l15 -22 32 27 c39 33
64 34 83 6 l14 -22 27 27 c14 14 35 26 47 26 16 0 20 -7 21 -37 3 -76 -7 -89
-72 -105 -102 -24 -176 -29 -377 -30 -191 0 -216 2 -233 18 -12 10 -33 17 -49
16 -33 -3 -52 24 -64 89 -4 21 -13 42 -20 49 -8 6 -56 15 -108 20 -51 6 -104
13 -118 16 -14 3 -65 9 -113 14 -77 6 -92 11 -115 34 -15 14 -21 26 -14 26 6
0 12 9 12 20 0 11 5 20 10 20 6 0 10 6 8 13 -3 16 26 68 49 88 26 21 54 33 76
30 9 -1 17 2 17 7 0 4 20 7 44 6 24 -2 57 1 73 5 34 9 119 -19 174 -58 97 -70
129 -96 129 -103 0 -17 66 -36 150 -43 46 -4 95 -14 107 -22 20 -13 28 -13 73
2 28 9 58 14 66 11 20 -8 56 29 85 85 12 24 47 82 79 129 57 86 91 152 49 97
-12 -15 -35 -35 -53 -43 -26 -14 -22 -7 26 42 83 85 104 147 73 208 -8 15 -12
33 -8 39 3 5 1 7 -5 3 -6 -3 -13 -2 -17 4 -9 15 22 12 55 -5z m-1125 -25 c-3
-5 -12 -7 -20 -3 -21 7 -19 13 6 13 11 0 18 -4 14 -10z m1575 6 c0 -8 -130
-48 -143 -43 -15 5 26 28 68 38 35 8 75 11 75 5z m-1444 -211 c19 -14 19 -14
-1 -15 -16 0 -17 -2 -6 -9 31 -20 -64 -75 -141 -84 l-47 -4 32 21 c18 12 39
36 47 53 22 47 79 66 116 38z m1385 -22 c13 -16 12 -17 -3 -4 -17 13 -22 21
-14 21 2 0 10 -8 17 -17z m-1513 -18 c-6 -14 -16 -24 -22 -22 -6 3 -20 -3 -31
-12 -11 -8 -4 1 14 22 40 43 55 48 39 12z m1366 -114 c27 -30 33 -40 16 -29
-26 16 -90 103 -90 122 1 6 8 -2 17 -19 8 -16 34 -50 57 -74z m-406 12 c-41
-63 -54 -76 -33 -33 15 31 53 80 61 80 2 0 -11 -21 -28 -47z m317 -64 c11 -17
31 -37 45 -44 16 -9 19 -14 9 -15 -14 0 -34 19 -84 78 -13 15 -14 21 -4 17 8
-3 23 -19 34 -36z m-1975 -194 c0 -5 -5 -3 -10 5 -5 8 -10 20 -10 25 0 6 5 3
10 -5 5 -8 10 -19 10 -25z m2980 -50 c-6 -30 -8 -33 -9 -13 -1 25 8 62 14 56
2 -2 -1 -21 -5 -43z m-2923 -92 c-5 -4 -57 111 -57 123 1 5 14 -20 31 -55 16
-35 28 -66 26 -68z m799 1 c71 -60 131 -97 194 -119 48 -17 175 -23 230 -11
24 5 31 4 21 -3 -12 -8 -13 -15 -4 -34 10 -22 8 -29 -22 -60 l-33 -34 -21 20
c-38 38 -151 22 -151 -21 0 -13 -52 -63 -74 -72 -22 -7 -79 10 -126 39 -39 23
-69 67 -104 151 -39 94 -40 99 -16 62 27 -39 36 -35 22 10 -21 69 -23 98 -6
98 13 0 14 3 5 13 -13 16 -4 30 13 20 6 -4 39 -30 72 -59z m2210 -142 c-3 -18
-37 -99 -77 -179 -65 -133 -80 -155 -158 -237 -48 -50 -109 -125 -136 -166
-79 -120 -127 -179 -248 -306 -117 -122 -258 -234 -300 -238 -13 -2 -29 -6
-35 -10 -7 -4 -12 -5 -12 -2 0 2 26 19 58 37 175 99 368 293 522 524 29 44 92
121 140 170 87 91 121 146 154 250 27 87 54 178 67 225 l12 45 9 -40 c5 -22 7
-55 4 -73z m-2906 -44 c18 -29 25 -46 18 -38 -18 19 -61 90 -55 90 3 0 20 -24
37 -52z m71 -105 c13 -16 12 -17 -3 -4 -10 7 -18 15 -18 17 0 8 8 3 21 -13z
m892 -241 c-28 -26 -66 -56 -85 -67 l-33 -19 17 26 c12 18 14 28 6 36 -13 13
-4 28 23 35 16 4 19 3 10 -6 -20 -20 -12 -26 17 -11 15 7 32 14 38 14 6 0 19
9 29 20 10 11 21 20 24 20 3 -1 -17 -22 -46 -48z m1620 -57 c-20 -25 -39 -45
-41 -45 -6 0 15 27 47 63 39 43 36 31 -6 -18z m8 -108 c-22 -31 -46 -59 -52
-62 -10 -7 12 26 66 97 11 14 22 25 23 23 2 -2 -15 -28 -37 -58z m-98 -18
c-35 -60 -214 -272 -280 -333 -38 -34 -97 -83 -133 -108 -64 -45 -369 -215
-439 -244 -28 -12 -32 -17 -21 -24 21 -13 -103 -69 -171 -77 l-54 -6 28 23
c16 12 26 28 23 36 -9 22 112 94 145 87 67 -16 318 98 495 223 95 68 134 110
71 78 -31 -16 -31 -16 -17 1 13 15 9 15 -27 -4 -68 -34 -63 -24 9 18 117 69
208 151 325 294 60 73 74 84 46 36z m-968 -120 c-22 -4 -53 -7 -70 -7 -26 1
-24 2 10 8 22 4 54 7 70 7 25 1 23 -1 -10 -8z m-177 -324 c-3 -3 -9 2 -12 12
-6 14 -5 15 5 6 7 -7 10 -15 7 -18z m-980 -318 c12 -26 16 -47 11 -47 -6 0 -7
-6 -3 -12 4 -7 0 -6 -9 2 -27 25 -50 134 -41 193 l8 52 7 -71 c4 -39 16 -92
27 -117z m1092 -51 c-14 -7 -36 -16 -50 -20 -14 -3 -7 3 15 14 45 22 74 27 35
6z m-83 -32 c-3 -3 -12 -4 -19 -1 -8 3 -5 6 6 6 11 1 17 -2 13 -5z m-837 -30
c0 -2 -9 0 -20 6 -11 6 -20 13 -20 16 0 2 9 0 20 -6 11 -6 20 -13 20 -16z
m797 20 c-3 -3 -12 -4 -19 -1 -8 3 -5 6 6 6 11 1 17 -2 13 -5z"/>
<path d="M2353 5082 c-45 -10 -84 -20 -87 -22 -8 -8 407 -3 459 5 49 8 49 8
20 17 -16 5 -93 11 -170 13 -108 3 -159 0 -222 -13z"/>
<path d="M3810 4814 c36 -41 133 -135 169 -162 17 -13 31 -31 31 -41 0 -11 18
-25 50 -40 54 -24 150 -121 150 -151 0 -10 -12 -33 -27 -52 l-27 -33 37 34
c20 19 37 44 37 55 0 28 -156 188 -298 307 -125 103 -161 128 -122 83z"/>
<path d="M3510 4789 c69 -57 176 -84 235 -59 12 5 -4 6 -40 3 -55 -5 -66 -2
-140 36 -44 22 -69 32 -55 20z"/>
<path d="M3282 4691 c103 -99 182 -191 301 -351 62 -83 140 -154 181 -164 18
-4 18 -2 -4 12 -55 37 -107 92 -184 194 -150 197 -351 408 -390 408 -3 0 40
-45 96 -99z"/>
<path d="M1760 4691 c-74 -81 -142 -168 -173 -221 -31 -52 -11 -33 45 43 29
39 85 108 123 152 39 44 74 86 79 93 18 29 -7 7 -74 -67z"/>
<path d="M3600 4664 c0 -3 28 -18 63 -34 78 -37 144 -40 195 -8 20 12 30 24
23 26 -7 2 -21 -4 -33 -14 -30 -28 -118 -24 -190 9 -32 14 -58 24 -58 21z"/>
<path d="M3699 4522 c55 -44 142 -53 206 -22 23 12 29 18 15 14 -14 -3 -55 -8
-91 -11 -54 -4 -74 -1 -110 17 -40 19 -42 19 -20 2z"/>
<path d="M4039 4383 c-13 -16 -12 -17 4 -4 9 7 17 15 17 17 0 8 -8 3 -21 -13z"/>
<path d="M1735 4016 c-10 -7 -19 -32 -22 -58 l-5 -46 36 8 c42 9 66 26 66 46
0 8 9 14 21 14 31 0 14 16 -35 33 -36 12 -48 13 -61 3z"/>
<path d="M1306 3770 c-29 -44 -33 -70 -12 -70 9 0 16 12 18 28 3 25 4 25 16
-13 8 -22 42 -98 77 -170 35 -71 71 -154 80 -183 13 -38 28 -61 58 -84 22 -18
38 -28 36 -23 -2 6 -29 57 -61 115 -31 58 -63 127 -72 154 -9 27 -26 62 -37
77 -29 42 -81 171 -75 192 6 25 2 21 -28 -23z"/>
<path d="M1815 3600 c-13 -6 -15 -9 -5 -9 8 0 22 4 30 9 18 12 2 12 -25 0z"/>
<path d="M1945 3603 c-48 -12 -28 -18 51 -15 80 3 190 -18 230 -45 7 -5 -52
-8 -130 -9 -77 0 -166 -6 -197 -12 -78 -15 -169 -72 -217 -136 -45 -61 -58
-112 -42 -162 l12 -34 23 34 c13 19 26 43 29 53 3 11 22 34 41 53 l34 33 101
-47 c103 -48 138 -56 78 -17 -18 12 -49 33 -68 47 l-35 26 40 -8 c56 -12 168
-8 197 7 12 7 37 16 53 20 25 6 22 7 -22 8 -28 1 -55 -3 -58 -9 -7 -12 -115
-14 -115 -1 0 4 41 11 92 15 148 10 189 8 210 -11 15 -14 34 -17 83 -15 74 4
82 -4 112 -99 13 -40 18 -48 21 -31 5 31 -23 111 -58 163 -85 128 -322 226
-465 192z m-221 -195 c-18 -37 -53 -78 -65 -78 -5 0 10 25 33 55 22 30 43 55
45 55 2 0 -4 -15 -13 -32z"/>
<path d="M1461 3535 c-1 -5 8 -21 19 -35 11 -14 20 -20 20 -14 0 7 -9 22 -20
35 -10 13 -19 20 -19 14z"/>
<path d="M1282 3485 c-12 -15 -22 -31 -22 -36 0 -4 -3 -16 -6 -26 -4 -10 7 1
25 25 35 48 38 82 3 37z"/>
<path d="M2150 3365 c-34 -10 -39 -13 -19 -14 44 -2 119 11 119 20 0 12 -47 9
-100 -6z"/>
<path d="M1733 3278 c-38 -73 -39 -76 -14 -53 14 12 43 22 74 25 l52 6 -43 22
c-29 16 -42 28 -38 38 12 32 -6 10 -31 -38z"/>
<path d="M2215 3240 c-130 -42 -158 -45 -257 -21 -90 21 -113 19 -175 -13 -18
-9 -35 -21 -38 -27 -4 -6 7 -3 25 6 41 21 127 30 160 17 25 -11 25 -11 -6 -11
-17 -1 -46 -4 -63 -7 -69 -14 -23 -19 126 -13 132 5 172 10 243 32 47 15 90
27 97 27 7 0 19 -12 27 -27 21 -38 20 -12 -1 32 -9 19 -24 35 -32 35 -9 -1
-56 -14 -106 -30z"/>
<path d="M2407 3243 c-18 -17 1 -93 24 -93 17 0 31 52 20 77 -10 22 -31 30
-44 16z"/>
<path d="M1304 3095 c-7 -19 -13 -56 -13 -82 l1 -48 10 50 c5 28 13 65 17 83
12 42 4 41 -15 -3z"/>
<path d="M1806 3052 c-2 -1 -23 -6 -47 -10 -43 -8 -43 -8 -20 -21 34 -19 82
-16 127 7 l38 20 -48 3 c-26 3 -49 3 -50 1z"/>
<path d="M1263 2800 c0 -30 2 -43 4 -27 2 15 2 39 0 55 -2 15 -4 2 -4 -28z"/>
<path d="M1252 2680 c0 -19 2 -27 5 -17 2 9 2 25 0 35 -3 9 -5 1 -5 -18z"/>
<path d="M1980 1650 c0 -8 12 -53 27 -100 l28 -85 3 45 c2 35 -4 57 -27 100
-17 30 -31 48 -31 40z"/>
<path d="M2085 1578 c-4 -16 -11 -28 -16 -28 -5 0 -8 -24 -8 -52 1 -29 4 -42
6 -28 2 14 11 44 20 67 8 23 13 47 10 55 -2 7 -8 1 -12 -14z"/>
<path d="M1229 3973 l-24 -28 28 24 c25 23 32 31 24 31 -2 0 -14 -12 -28 -27z"/>
<path d="M3524 784 c-18 -14 -18 -15 4 -4 12 6 22 13 22 15 0 8 -5 6 -26 -11z"/>
<path d="M4115 5145 c4 -17 14 -37 22 -45 11 -12 10 -6 -3 25 -21 51 -28 58
-19 20z"/>
<path d="M4196 5066 c15 -19 30 -33 32 -31 7 7 -19 45 -39 56 -18 9 -17 5 7
-25z"/>
<path d="M3560 5056 c0 -4 122 -77 160 -95 l25 -12 -25 22 c-24 21 -160 93
-160 85z"/>
<path d="M4160 4975 c22 -44 40 -84 40 -90 0 -6 28 -37 62 -70 61 -59 62 -53
3 15 -17 19 -49 69 -72 110 -59 107 -81 130 -33 35z"/>
<path d="M1361 4995 c-31 -36 -45 -79 -18 -57 14 12 61 92 54 92 -3 0 -19 -16
-36 -35z"/>
<path d="M3809 4998 c7 -10 68 -56 135 -102 120 -85 221 -173 231 -205 2 -9
13 -21 22 -27 10 -5 36 -21 58 -34 39 -24 38 -23 -24 48 -66 75 -121 119 -296
237 -55 37 -109 74 -120 84 -18 15 -19 15 -6 -1z"/>
<path d="M1369 4937 c-28 -35 -63 -97 -57 -102 2 -2 14 13 27 33 13 20 33 50
43 65 28 40 18 43 -13 4z"/>
<path d="M3770 4937 c7 -6 126 -96 167 -125 18 -13 38 -20 44 -17 6 4 -26 31
-73 62 -75 49 -151 94 -138 80z"/>
<path d="M4268 4865 c11 -16 33 -43 47 -60 l26 -30 -18 33 c-10 18 -31 45 -47
60 l-29 27 21 -30z"/>
<path d="M4494 3951 c25 -27 109 -81 127 -81 9 0 7 5 -6 12 -11 6 -47 29 -80
51 -34 22 -52 30 -41 18z"/>
<path d="M4550 3945 c17 -21 64 -45 87 -45 16 0 15 1 -2 13 -11 7 -38 21 -59
30 -35 16 -38 16 -26 2z"/>
<path d="M4407 3892 c19 -35 90 -85 106 -75 5 3 -6 12 -24 20 -19 7 -49 30
-67 51 l-34 37 19 -33z"/>
<path d="M4460 3902 c0 -18 70 -72 85 -66 21 8 19 13 -11 25 -15 5 -24 12 -21
15 3 3 19 -2 36 -10 35 -19 45 -20 36 -6 -15 25 -125 62 -125 42z"/>
<path d="M4755 3885 c17 -9 45 -32 63 -53 19 -20 29 -27 23 -16 -15 30 -78 84
-99 84 -10 0 -6 -6 13 -15z"/>
<path d="M4343 3822 c26 -29 114 -57 133 -41 18 15 9 28 -34 46 -32 13 -36 13
-44 -1 -8 -15 -12 -15 -41 0 -32 17 -32 17 -14 -4z"/>
<path d="M4356 3745 c-4 -10 3 -20 19 -27 21 -9 28 -8 45 7 11 10 17 22 14 26
-9 16 -71 10 -78 -6z"/>
<path d="M4484 3687 c21 -26 41 -45 44 -43 6 7 -34 56 -61 75 -13 10 -7 -3 17
-32z"/>
<path d="M4419 3673 c12 -22 81 -90 81 -79 0 11 -73 96 -82 96 -5 0 -4 -8 1
-17z"/>
<path d="M4411 3623 c7 -12 15 -20 18 -17 3 2 -3 12 -13 22 -17 16 -18 16 -5
-5z"/>
<path d="M4446 3494 c16 -23 31 -37 33 -32 2 6 -11 24 -29 42 l-32 31 28 -41z"/>
<path d="M4389 3438 c20 -34 21 -45 15 -137 -4 -56 -4 -101 -1 -101 9 0 29
169 23 193 -3 12 -18 36 -32 52 l-26 30 21 -37z"/>
<path d="M2962 3313 c-8 -15 -9 -24 -1 -28 15 -10 21 0 17 27 l-3 23 -13 -22z"/>
<path d="M3780 3254 c0 -20 -6 -34 -16 -38 -27 -10 -36 -7 -29 14 5 15 3 18
-9 14 -17 -6 -20 -22 -10 -48 7 -19 35 -21 52 -4 9 9 12 4 12 -26 0 -49 17
-37 25 18 5 31 2 52 -9 72 l-15 29 -1 -31z"/>
<path d="M4772 3228 c-29 -124 -76 -230 -108 -242 -8 -3 -12 -11 -9 -17 4 -6
-8 -27 -26 -46 -35 -37 -26 -36 27 3 35 26 106 140 124 199 6 22 10 67 8 100
l-3 60 -13 -57z"/>
<path d="M4026 3212 c61 -44 73 -47 30 -8 -22 20 -46 36 -54 36 -8 0 3 -13 24
-28z"/>
<path d="M2688 3003 c7 -3 16 -2 19 1 4 3 -2 6 -13 5 -11 0 -14 -3 -6 -6z"/>
<path d="M2748 3003 c7 -3 16 -2 19 1 4 3 -2 6 -13 5 -11 0 -14 -3 -6 -6z"/>
<path d="M2827 2970 c28 -16 77 -59 109 -95 69 -78 89 -85 34 -12 -44 58 -73
83 -137 116 -62 31 -66 25 -6 -9z"/>
<path d="M3032 2959 c8 -24 100 -88 158 -110 63 -24 227 -31 270 -12 20 9 1
11 -95 11 -140 -1 -201 16 -286 84 -28 22 -49 34 -47 27z"/>
<path d="M4484 2863 c3 -21 9 -74 12 -118 4 -44 10 -87 15 -95 5 -9 6 13 3 50
-7 89 -25 200 -31 200 -3 0 -3 -17 1 -37z"/>
<path d="M3974 2664 c-3 -13 -5 -47 -5 -76 1 -29 3 -117 4 -195 2 -167 11
-189 57 -135 43 52 53 161 22 253 -28 81 -36 116 -23 103 15 -14 51 -146 51
-186 0 -22 3 -29 9 -20 5 8 3 42 -5 80 -7 37 -16 83 -19 103 -11 70 -78 124
-91 73z m22 -100 c-4 -20 -10 -34 -13 -30 -3 3 -2 21 1 42 4 20 10 34 13 30 3
-3 2 -21 -1 -42z"/>
<path d="M2885 2614 c-27 -7 -70 -20 -95 -28 l-45 -15 50 2 c53 1 158 38 144
51 -2 2 -26 -2 -54 -10z"/>
<path d="M3899 2158 c-7 -18 -35 -61 -62 -96 -36 -47 -42 -59 -24 -47 40 26
119 156 104 171 -2 3 -10 -10 -18 -28z"/>
<path d="M4403 2178 c-14 -19 -44 -101 -38 -106 3 -3 16 21 31 52 25 54 28 82
7 54z"/>
<path d="M4242 2088 c-18 -24 -44 -80 -33 -73 6 3 20 24 31 46 20 39 21 50 2
27z"/>
<path d="M4614 1917 c-51 -30 -141 -119 -201 -200 -36 -48 -63 -90 -61 -93 3
-3 37 35 76 83 68 86 183 193 205 193 7 0 3 -6 -8 -12 -32 -17 -115 -100 -131
-131 -15 -28 -15 -28 8 -25 15 2 22 -2 20 -10 -2 -9 3 -10 16 -3 31 16 163 14
210 -3 35 -13 51 -14 88 -5 44 11 46 11 74 -20 19 -20 38 -31 56 -31 33 0 122
-53 197 -119 60 -52 93 -73 137 -86 14 -4 0 9 -31 29 -30 19 -76 62 -102 95
-41 53 -68 78 -143 129 -11 7 1 3 26 -9 24 -12 78 -57 120 -99 86 -90 108
-105 187 -131 l58 -20 -45 5 c-38 5 -42 4 -26 -7 11 -7 38 -28 60 -48 23 -20
69 -50 103 -68 34 -17 64 -35 68 -41 9 -15 28 -12 19 3 -4 6 6 0 22 -14 16
-15 79 -57 139 -94 61 -38 136 -86 168 -107 32 -22 63 -38 69 -36 6 2 -67 55
-163 118 -125 83 -192 135 -243 188 -82 85 -124 112 -221 141 -87 26 -108 40
-185 123 -69 76 -185 153 -245 164 -54 9 -79 23 -150 83 -52 45 -106 72 -140
71 -5 -1 -19 -6 -31 -13z m133 -54 c26 -20 67 -52 91 -70 24 -18 39 -33 33
-33 -6 0 -36 21 -67 46 -31 26 -73 57 -92 70 -19 13 -30 24 -24 24 6 0 32 -17
59 -37z m170 -109 c-3 -3 -12 -4 -19 -1 -8 3 -5 6 6 6 11 1 17 -2 13 -5z"/>
<path d="M4125 1909 c-4 -6 -5 -12 -2 -15 2 -3 7 2 10 11 7 17 1 20 -8 4z"/>
<path d="M4106 1863 c-6 -14 -5 -15 5 -6 7 7 10 15 7 18 -3 3 -9 -2 -12 -12z"/>
<path d="M4031 1746 c-55 -83 -54 -105 2 -28 41 57 60 92 54 99 -3 3 -28 -29
-56 -71z"/>
<path d="M4775 1661 c21 -22 41 -41 43 -41 10 0 -43 62 -61 71 -14 7 -8 -4 18
-30z"/>
<path d="M4678 1668 c-9 -13 -23 -48 -32 -78 -10 -30 -20 -62 -23 -70 -5 -13
-4 -13 11 -1 24 20 66 94 72 127 3 15 7 31 10 36 12 20 -25 6 -38 -14z"/>
<path d="M2770 1671 c-17 -5 9 -10 75 -14 55 -4 118 -10 140 -13 22 -4 37 -4
34 0 -7 7 -182 36 -209 35 -8 -1 -26 -4 -40 -8z"/>
<path d="M4866 1539 c5 -9 39 -44 76 -78 50 -47 79 -65 110 -72 74 -16 96 -30
137 -83 29 -40 57 -62 112 -90 41 -21 90 -50 109 -65 19 -15 85 -60 146 -99
105 -68 177 -134 293 -267 49 -56 43 -44 -14 30 -82 105 -163 179 -295 267
-74 50 -145 99 -158 109 -13 10 -44 25 -70 34 -56 19 -78 36 -121 95 -40 56
-72 76 -129 85 -34 5 -57 18 -96 53 -85 78 -109 98 -100 81z"/>
<path d="M4745 1493 c-11 -89 -36 -166 -96 -297 -33 -72 -72 -175 -85 -229
-25 -95 -25 -99 -8 -118 18 -20 18 -20 27 3 5 13 17 57 27 98 38 158 70 270
83 297 44 86 89 275 69 287 -7 4 -13 -12 -17 -41z"/>
<path d="M4980 1521 c0 -17 83 -101 100 -101 8 0 -5 16 -28 36 -23 19 -49 45
-57 57 -9 12 -15 16 -15 8z"/>
<path d="M3709 1433 c-13 -16 -12 -17 4 -4 16 13 21 21 13 21 -2 0 -10 -8 -17
-17z"/>
<path d="M5186 1399 c12 -13 38 -50 59 -81 20 -31 43 -59 51 -62 17 -7 17 -5
-44 82 -24 34 -53 67 -65 73 l-22 12 21 -24z"/>
<path d="M4209 1310 c-26 -40 -79 -167 -79 -188 0 -11 -18 -55 -39 -98 -22
-43 -38 -80 -37 -82 5 -5 116 130 132 160 19 36 46 170 42 205 l-3 27 -16 -24z"/>
<path d="M4494 1157 c-114 -118 -143 -155 -248 -321 -121 -191 -238 -354 -330
-461 -56 -64 -165 -210 -234 -312 l-43 -63 33 1 c29 0 40 9 90 77 31 42 107
142 168 222 61 80 175 246 255 370 89 139 188 277 257 361 119 142 195 246
187 254 -3 2 -64 -55 -135 -128z"/>
<path d="M5394 1218 c16 -13 48 -37 70 -55 23 -18 79 -58 126 -89 47 -31 123
-93 170 -138 78 -75 75 -66 -10 28 -19 21 -66 60 -105 86 -38 26 -99 71 -135
100 -36 29 -83 61 -105 71 l-40 19 29 -22z"/>
<path d="M4039 903 c-118 -121 -159 -171 -84 -103 75 68 210 210 199 210 -5 0
-57 -48 -115 -107z"/>
<path d="M5880 800 c23 -27 44 -50 47 -50 3 0 -14 23 -37 50 -23 28 -44 50
-47 50 -3 0 14 -22 37 -50z"/>
<path d="M3595 350 c-3 -5 -50 -39 -105 -75 -54 -36 -104 -73 -112 -82 -18
-22 101 43 159 87 42 32 84 80 70 80 -3 0 -9 -4 -12 -10z"/>
<path d="M4875 102 c-16 -11 -40 -38 -53 -60 l-23 -42 45 0 c44 0 45 1 56 41
6 22 10 49 8 60 -3 19 -4 19 -33 1z"/>
</g>
</svg>
