<svg height="700pt" preserveAspectRatio="xMidYMid meet" viewBox="0 0 700 700" width="700pt" xmlns="http://www.w3.org/2000/svg"><path d="m0 3500v-3500h3500 3500v3500 3500h-3500-3500zm3955 2188c192-436 374-851 406-923 31-71 130-296 219-500 259-589 551-1253 837-1905 147-333 350-796 453-1030 104-234 186-428 183-432-2-5-303-8-669-8h-665l-77 59c-415 316-871 470-1276 432-235-22-429-77-633-180-136-68-298-173-392-255l-65-56h-673-674l18 31c65 113 202 317 283 421 131 170 393 431 550 547 387 288 825 465 1330 538 99 14 188 18 430 18 316 0 406-8 631-54 151-31 170-100-200 740-178 404-332 749-343 767-38 63-27 84-247-453-94-230-196-461-213-482-7-9-41-13-103-13-267 0-709-128-1142-330-51-24-95-41-98-38s99 234 226 514c128 280 287 631 354 779 213 470 409 901 545 1200 73 160 152 333 175 385s125 275 225 495c101 220 195 428 211 463 15 34 32 62 37 62s165-357 357-792z" transform="matrix(.1 0 0 -.1 0 700)"/></svg>